<?xml version="1.0" encoding="UTF-8"?>
<svg id="Layer_1" xmlns="http://www.w3.org/2000/svg" xmlns:xlink="http://www.w3.org/1999/xlink" version="1.1" viewBox="0 0 631.1 687.8">
  <!-- Generator: Adobe Illustrator 30.2.1, SVG Export Plug-In . SVG Version: 2.1.1 Build 1)  -->
  <defs>
    <style>
      .st0 {
        fill: url(#linear-gradient2);
      }

      .st1 {
        fill: url(#linear-gradient1);
      }

      .st2 {
        fill: url(#linear-gradient9);
      }

      .st3 {
        fill: url(#linear-gradient3);
      }

      .st4 {
        fill: url(#linear-gradient6);
      }

      .st5 {
        fill: url(#linear-gradient8);
      }

      .st6 {
        fill: url(#linear-gradient7);
      }

      .st7 {
        fill: url(#linear-gradient5);
      }

      .st8 {
        fill: url(#linear-gradient4);
      }

      .st9 {
        fill: #f8c2e0;
      }

      .st9, .st10, .st11, .st12, .st13, .st14, .st15, .st16, .st17, .st18, .st19, .st20 {
        mix-blend-mode: multiply;
      }

      .st9, .st11, .st12, .st13, .st14, .st15, .st16, .st21, .st22, .st23, .st24, .st25, .st26, .st17, .st27, .st28, .st18, .st19, .st20 {
        isolation: isolate;
      }

      .st9, .st14, .st17, .st19 {
        opacity: .3;
      }

      .st10, .st11, .st13, .st18 {
        opacity: .2;
      }

      .st29 {
        fill: url(#linear-gradient31);
      }

      .st30 {
        fill: url(#linear-gradient30);
      }

      .st31 {
        fill: url(#linear-gradient38);
      }

      .st32 {
        fill: url(#linear-gradient32);
      }

      .st33 {
        fill: url(#linear-gradient39);
      }

      .st34 {
        fill: url(#linear-gradient34);
      }

      .st35 {
        fill: url(#linear-gradient37);
      }

      .st36 {
        fill: url(#linear-gradient35);
      }

      .st37 {
        fill: url(#linear-gradient33);
      }

      .st38 {
        fill: url(#linear-gradient36);
      }

      .st39 {
        fill: url(#linear-gradient40);
      }

      .st40 {
        fill: url(#linear-gradient41);
      }

      .st41 {
        fill: url(#linear-gradient42);
      }

      .st42 {
        fill: url(#linear-gradient46);
      }

      .st43 {
        fill: url(#linear-gradient48);
      }

      .st44 {
        fill: url(#linear-gradient43);
      }

      .st45 {
        fill: url(#linear-gradient44);
      }

      .st46 {
        fill: url(#linear-gradient47);
      }

      .st47 {
        fill: url(#linear-gradient45);
      }

      .st48 {
        fill: url(#linear-gradient49);
      }

      .st49 {
        fill: url(#linear-gradient50);
      }

      .st50 {
        fill: url(#linear-gradient51);
      }

      .st51 {
        fill: url(#linear-gradient52);
      }

      .st52 {
        fill: url(#linear-gradient53);
      }

      .st53 {
        fill: url(#linear-gradient56);
      }

      .st54 {
        fill: url(#linear-gradient54);
      }

      .st55 {
        fill: url(#linear-gradient55);
      }

      .st56 {
        fill: url(#linear-gradient28);
      }

      .st57 {
        fill: url(#linear-gradient29);
      }

      .st58 {
        fill: url(#linear-gradient18);
      }

      .st59 {
        fill: url(#linear-gradient13);
      }

      .st60 {
        fill: url(#linear-gradient15);
      }

      .st61 {
        fill: url(#linear-gradient16);
      }

      .st62 {
        fill: url(#linear-gradient17);
      }

      .st63 {
        fill: url(#linear-gradient14);
      }

      .st64 {
        fill: url(#linear-gradient19);
      }

      .st65 {
        fill: url(#linear-gradient23);
      }

      .st66 {
        fill: url(#linear-gradient22);
      }

      .st67 {
        fill: url(#linear-gradient24);
      }

      .st68 {
        fill: url(#linear-gradient25);
      }

      .st69 {
        fill: url(#linear-gradient21);
      }

      .st70 {
        fill: url(#linear-gradient20);
      }

      .st71 {
        fill: url(#linear-gradient27);
      }

      .st72 {
        fill: url(#linear-gradient26);
      }

      .st11 {
        fill: #f4a6d2;
      }

      .st12 {
        opacity: .7;
      }

      .st12, .st13, .st14, .st15, .st16, .st73 {
        fill: #f084c1;
      }

      .st15 {
        opacity: .4;
      }

      .st16, .st23, .st20 {
        opacity: .5;
      }

      .st74 {
        fill: url(#linear-gradient);
      }

      .st75 {
        fill: #f6b0d7;
      }

      .st76 {
        fill: #fef6fa;
      }

      .st21, .st23 {
        fill: #fef4fa;
      }

      .st21, .st23, .st27, .st28 {
        mix-blend-mode: soft-light;
      }

      .st77 {
        fill: #f7f5fe;
      }

      .st78, .st28 {
        fill: #fff;
      }

      .st79 {
        fill: #ebe6fc;
      }

      .st80 {
        fill: #fad1e8;
      }

      .st24 {
        fill: url(#linear-gradient12);
        opacity: .6;
      }

      .st25 {
        fill: url(#linear-gradient11);
      }

      .st25, .st26 {
        opacity: .9;
      }

      .st26 {
        fill: url(#linear-gradient10);
      }

      .st17 {
        fill: #f5a8d3;
      }

      .st27 {
        fill: #fbe1f0;
      }

      .st18, .st19, .st20 {
        fill: #ef77bb;
      }
    </style>
    <linearGradient id="linear-gradient" x1="61.2" y1="570.5" x2="301" y2="570.5" gradientTransform="translate(0 779.3) scale(1 -1)" gradientUnits="userSpaceOnUse">
      <stop offset="0" stop-color="#f9cae4"/>
      <stop offset=".5" stop-color="#f9cae4"/>
      <stop offset="1" stop-color="#d1c5f9"/>
    </linearGradient>
    <linearGradient id="linear-gradient1" x1="225.2" y1="475.8" x2="225.2" y2="610.6" gradientTransform="translate(0 779.3) scale(1 -1)" gradientUnits="userSpaceOnUse">
      <stop offset="0" stop-color="#fbe1f0"/>
      <stop offset=".6" stop-color="#fbdced"/>
      <stop offset="1" stop-color="#fad1e8"/>
    </linearGradient>
    <linearGradient id="linear-gradient2" x1="264.6" y1="519" x2="264.6" y2="616.5" gradientTransform="translate(0 779.3) scale(1 -1)" gradientUnits="userSpaceOnUse">
      <stop offset="0" stop-color="#fbe1f0"/>
      <stop offset=".6" stop-color="#fbdced"/>
      <stop offset="1" stop-color="#fad1e8"/>
    </linearGradient>
    <linearGradient id="linear-gradient3" x1="391.9" y1="634.4" x2="624.6" y2="634.4" gradientTransform="translate(108.6 1111.3) rotate(-17.1) scale(1 -1)" gradientUnits="userSpaceOnUse">
      <stop offset="0" stop-color="#f9cae4"/>
      <stop offset=".5" stop-color="#f9cae4"/>
      <stop offset="1" stop-color="#d1c5f9"/>
    </linearGradient>
    <linearGradient id="linear-gradient4" x1="544.3" y1="503.4" x2="544.3" y2="695.4" gradientTransform="translate(108.6 1111.3) rotate(-17.1) scale(1 -1)" gradientUnits="userSpaceOnUse">
      <stop offset="0" stop-color="#fbe1f0"/>
      <stop offset=".6" stop-color="#fbdced"/>
      <stop offset="1" stop-color="#fad1e8"/>
    </linearGradient>
    <linearGradient id="linear-gradient5" x1="558.5" y1="614.4" x2="558.5" y2="632.3" gradientTransform="translate(108.6 1111.3) rotate(-17.1) scale(1 -1)" gradientUnits="userSpaceOnUse">
      <stop offset="0" stop-color="#fbe1f0"/>
      <stop offset=".6" stop-color="#fbdced"/>
      <stop offset="1" stop-color="#fad1e8"/>
    </linearGradient>
    <linearGradient id="linear-gradient6" x1="395.1" y1="353" x2="399.5" y2="403" gradientTransform="translate(38.6 936.7) rotate(-10) scale(1 -1)" gradientUnits="userSpaceOnUse">
      <stop offset="0" stop-color="#f397ca"/>
      <stop offset=".4" stop-color="#fc5d5b"/>
      <stop offset=".7" stop-color="#ef77bb"/>
      <stop offset="1" stop-color="#ef77bb"/>
    </linearGradient>
    <linearGradient id="linear-gradient7" x1="395.6" y1="360.9" x2="400.7" y2="420" gradientTransform="translate(38.6 936.7) rotate(-10) scale(1 -1)" gradientUnits="userSpaceOnUse">
      <stop offset="0" stop-color="#f9cae4"/>
      <stop offset=".2" stop-color="#f9cae4"/>
      <stop offset=".7" stop-color="#f398cb"/>
      <stop offset="1" stop-color="#b5a3f5"/>
    </linearGradient>
    <linearGradient id="linear-gradient8" x1="396.4" y1="599" x2="402.1" y2="664.5" gradientTransform="translate(38.6 936.7) rotate(-10) scale(1 -1)" gradientUnits="userSpaceOnUse">
      <stop offset="0" stop-color="#f9cae4"/>
      <stop offset=".2" stop-color="#f9cae4"/>
      <stop offset=".7" stop-color="#f398cb"/>
      <stop offset="1" stop-color="#b5a3f5"/>
    </linearGradient>
    <linearGradient id="linear-gradient9" x1="394.3" y1="572" x2="401.4" y2="653.4" gradientTransform="translate(38.6 936.7) rotate(-10) scale(1 -1)" gradientUnits="userSpaceOnUse">
      <stop offset="0" stop-color="#f397ca"/>
      <stop offset=".4" stop-color="#fc5d5b"/>
      <stop offset=".7" stop-color="#ef77bb"/>
      <stop offset="1" stop-color="#ef77bb"/>
    </linearGradient>
    <linearGradient id="linear-gradient10" x1="399.4" y1="391.1" x2="399.4" y2="636.7" gradientTransform="translate(38.6 936.7) rotate(-10) scale(1 -1)" gradientUnits="userSpaceOnUse">
      <stop offset="0" stop-color="#fdf0f7"/>
      <stop offset="1" stop-color="#fce7f3"/>
    </linearGradient>
    <linearGradient id="linear-gradient11" x1="399.4" y1="267.4" x2="399.4" y2="637.2" gradientTransform="translate(38.6 936.7) rotate(-10) scale(1 -1)" gradientUnits="userSpaceOnUse">
      <stop offset="0" stop-color="#fbe1f0"/>
      <stop offset="0" stop-color="#fbe1f0"/>
      <stop offset=".3" stop-color="#fce7f3"/>
      <stop offset="1" stop-color="#fce7f3"/>
    </linearGradient>
    <linearGradient id="linear-gradient12" x1="399.3" y1="267.4" x2="399.3" y2="637.2" gradientTransform="translate(38.6 936.7) rotate(-10) scale(1 -1)" gradientUnits="userSpaceOnUse">
      <stop offset=".5" stop-color="#fbe1f0"/>
      <stop offset=".6" stop-color="#fbdced"/>
      <stop offset=".8" stop-color="#d9cffa"/>
      <stop offset="1" stop-color="#cbbdf8"/>
      <stop offset="1" stop-color="#b8a6f5"/>
    </linearGradient>
    <linearGradient id="linear-gradient13" x1="396" y1="498" x2="396" y2="578.9" gradientTransform="translate(38.6 936.7) rotate(-10) scale(1 -1)" gradientUnits="userSpaceOnUse">
      <stop offset="0" stop-color="#f084c1"/>
      <stop offset=".3" stop-color="#f084c1"/>
      <stop offset=".4" stop-color="#f084c1"/>
      <stop offset=".6" stop-color="#f084c1"/>
      <stop offset=".8" stop-color="#f084c1"/>
      <stop offset="1" stop-color="#f084c1"/>
    </linearGradient>
    <linearGradient id="linear-gradient14" x1="393.4" y1="540.4" x2="396.4" y2="574.5" gradientTransform="translate(38.6 936.7) rotate(-10) scale(1 -1)" gradientUnits="userSpaceOnUse">
      <stop offset="0" stop-color="#f084c1"/>
      <stop offset=".5" stop-color="#f084c1"/>
      <stop offset="1" stop-color="#f081bf"/>
    </linearGradient>
    <linearGradient id="linear-gradient15" x1="399.3" y1="396.5" x2="399.3" y2="468.4" gradientTransform="translate(38.6 936.7) rotate(-10) scale(1 -1)" gradientUnits="userSpaceOnUse">
      <stop offset="0" stop-color="#f084c1"/>
      <stop offset=".3" stop-color="#f084c1"/>
      <stop offset=".4" stop-color="#f084c1"/>
      <stop offset=".6" stop-color="#f084c1"/>
      <stop offset=".8" stop-color="#f084c1"/>
      <stop offset="1" stop-color="#f084c1"/>
    </linearGradient>
    <linearGradient id="linear-gradient16" x1="387.6" y1="384.1" x2="395.5" y2="474.5" gradientTransform="translate(38.6 936.7) rotate(-10) scale(1 -1)" gradientUnits="userSpaceOnUse">
      <stop offset="0" stop-color="#f084c1"/>
      <stop offset=".5" stop-color="#f084c1"/>
      <stop offset="1" stop-color="#f081bf"/>
    </linearGradient>
    <linearGradient id="linear-gradient17" x1="398.8" y1="464.6" x2="398.8" y2="482.5" gradientTransform="translate(38.6 936.7) rotate(-10) scale(1 -1)" gradientUnits="userSpaceOnUse">
      <stop offset="0" stop-color="#f084c1"/>
      <stop offset=".2" stop-color="#f084c1"/>
      <stop offset=".6" stop-color="#f084c1"/>
      <stop offset="1" stop-color="#f084c1"/>
      <stop offset="1" stop-color="#f084c1"/>
    </linearGradient>
    <linearGradient id="linear-gradient18" x1="80.2" y1="232.2" x2="260.4" y2="232.2" gradientTransform="translate(-6.4 695.5) rotate(6.1) scale(1 -1)" gradientUnits="userSpaceOnUse">
      <stop offset="0" stop-color="#f081bf"/>
      <stop offset="0" stop-color="#f081bf"/>
      <stop offset="0" stop-color="#f081bf"/>
      <stop offset=".3" stop-color="#f6b0d7"/>
      <stop offset=".5" stop-color="#f4a1d0"/>
      <stop offset="1" stop-color="#f4a1d0"/>
    </linearGradient>
    <linearGradient id="linear-gradient19" x1="169.7" y1="161.2" x2="169.7" y2="308.3" gradientTransform="translate(-6.4 695.5) rotate(6.1) scale(1 -1)" gradientUnits="userSpaceOnUse">
      <stop offset="0" stop-color="#f084c1"/>
      <stop offset=".2" stop-color="#f084c1"/>
      <stop offset=".6" stop-color="#f084c1"/>
      <stop offset="1" stop-color="#f084c1"/>
      <stop offset="1" stop-color="#f084c1"/>
    </linearGradient>
    <linearGradient id="linear-gradient20" x1="71.6" y1="240.4" x2="259.2" y2="240.4" gradientTransform="translate(-6.4 695.5) rotate(6.1) scale(1 -1)" gradientUnits="userSpaceOnUse">
      <stop offset="0" stop-color="#f081bf"/>
      <stop offset="0" stop-color="#f081bf"/>
      <stop offset="0" stop-color="#f081bf"/>
      <stop offset=".3" stop-color="#f6b0d7"/>
      <stop offset=".5" stop-color="#f4a1d0"/>
      <stop offset="1" stop-color="#f4a1d0"/>
    </linearGradient>
    <linearGradient id="linear-gradient21" x1="71.7" y1="245.1" x2="253.5" y2="245.1" gradientTransform="translate(-6.4 695.5) rotate(6.1) scale(1 -1)" gradientUnits="userSpaceOnUse">
      <stop offset="0" stop-color="#f084c1"/>
      <stop offset=".2" stop-color="#f084c1"/>
      <stop offset=".6" stop-color="#f084c1"/>
      <stop offset="1" stop-color="#f084c1"/>
      <stop offset="1" stop-color="#f084c1"/>
    </linearGradient>
    <linearGradient id="linear-gradient22" x1="60.6" y1="249.1" x2="251.9" y2="249.1" gradientTransform="translate(-6.4 695.5) rotate(6.1) scale(1 -1)" gradientUnits="userSpaceOnUse">
      <stop offset="0" stop-color="#f081bf"/>
      <stop offset="0" stop-color="#f081bf"/>
      <stop offset="0" stop-color="#f081bf"/>
      <stop offset=".3" stop-color="#f6b0d7"/>
      <stop offset=".5" stop-color="#f4a1d0"/>
      <stop offset="1" stop-color="#f4a1d0"/>
    </linearGradient>
    <linearGradient id="linear-gradient23" x1="148.7" y1="125" x2="148.7" y2="320.3" gradientTransform="translate(-6.4 695.5) rotate(6.1) scale(1 -1)" gradientUnits="userSpaceOnUse">
      <stop offset="0" stop-color="#fbe1f0"/>
      <stop offset="0" stop-color="#fbe1f0"/>
      <stop offset=".3" stop-color="#fce7f3"/>
      <stop offset="1" stop-color="#fce7f3"/>
    </linearGradient>
    <linearGradient id="linear-gradient24" x1="135.2" y1="186.2" x2="135.2" y2="203.1" gradientTransform="translate(-37.6 569) rotate(14.4) scale(1 -1)" gradientUnits="userSpaceOnUse">
      <stop offset="0" stop-color="#f084c1"/>
      <stop offset=".2" stop-color="#f084c1"/>
      <stop offset=".6" stop-color="#f084c1"/>
      <stop offset="1" stop-color="#f084c1"/>
      <stop offset="1" stop-color="#f084c1"/>
    </linearGradient>
    <linearGradient id="linear-gradient25" x1="222.1" y1="165.5" x2="222.1" y2="182.3" gradientTransform="translate(-40.7 523.2) rotate(16.6) scale(1 -1)" gradientUnits="userSpaceOnUse">
      <stop offset="0" stop-color="#f084c1"/>
      <stop offset=".2" stop-color="#f084c1"/>
      <stop offset=".6" stop-color="#f084c1"/>
      <stop offset="1" stop-color="#f084c1"/>
      <stop offset="1" stop-color="#f084c1"/>
    </linearGradient>
    <linearGradient id="linear-gradient26" x1="210.9" y1="265.8" x2="210.9" y2="342.8" gradientTransform="translate(-6.4 695.5) rotate(6.1) scale(1 -1)" gradientUnits="userSpaceOnUse">
      <stop offset="0" stop-color="#b5a3f5"/>
      <stop offset="1" stop-color="#d1c5f9"/>
    </linearGradient>
    <linearGradient id="linear-gradient27" x1="130" y1="268.2" x2="130" y2="338.4" gradientTransform="translate(-6.4 695.5) rotate(6.1) scale(1 -1)" gradientUnits="userSpaceOnUse">
      <stop offset="0" stop-color="#b5a3f5"/>
      <stop offset="1" stop-color="#d1c5f9"/>
    </linearGradient>
    <linearGradient id="linear-gradient28" x1="317.8" y1="289.8" x2="317.8" y2="386.9" gradientTransform="translate(-41.4 260) rotate(34.9) scale(1 -1)" gradientUnits="userSpaceOnUse">
      <stop offset="0" stop-color="#f081bf"/>
      <stop offset="0" stop-color="#f081bf"/>
      <stop offset="0" stop-color="#f081bf"/>
      <stop offset=".3" stop-color="#f6b0d7"/>
      <stop offset=".5" stop-color="#f4a1d0"/>
      <stop offset="1" stop-color="#f4a1d0"/>
    </linearGradient>
    <linearGradient id="linear-gradient29" x1="126.3" y1="219.8" x2="410.7" y2="417.9" gradientTransform="translate(-41.4 260) rotate(34.9) scale(1 -1)" gradientUnits="userSpaceOnUse">
      <stop offset="0" stop-color="#fbe1f0"/>
      <stop offset=".6" stop-color="#fef6fa"/>
      <stop offset="1" stop-color="#fdf1f8"/>
    </linearGradient>
    <linearGradient id="linear-gradient30" x1="265.2" y1="351.1" x2="265.2" y2="378.3" gradientTransform="translate(-44.3 306.3) rotate(31.2) scale(1 -1)" gradientUnits="userSpaceOnUse">
      <stop offset="0" stop-color="#f081bf"/>
      <stop offset="0" stop-color="#f081bf"/>
      <stop offset="0" stop-color="#f081bf"/>
      <stop offset=".3" stop-color="#f6b0d7"/>
      <stop offset=".5" stop-color="#f4a1d0"/>
      <stop offset="1" stop-color="#f4a1d0"/>
    </linearGradient>
    <linearGradient id="linear-gradient31" x1="253.3" y1="351.7" x2="255.7" y2="378.9" gradientTransform="translate(-44.3 306.3) rotate(31.2) scale(1 -1)" gradientUnits="userSpaceOnUse">
      <stop offset="0" stop-color="#f084c1"/>
      <stop offset=".4" stop-color="#f084c1"/>
      <stop offset=".9" stop-color="#f084c1"/>
      <stop offset="1" stop-color="#f084c1"/>
    </linearGradient>
    <linearGradient id="linear-gradient32" x1="336.6" y1="363" x2="336.6" y2="390.1" gradientTransform="translate(-45.7 320.5) rotate(30.4) scale(1 -1)" gradientUnits="userSpaceOnUse">
      <stop offset="0" stop-color="#f081bf"/>
      <stop offset="0" stop-color="#f081bf"/>
      <stop offset="0" stop-color="#f081bf"/>
      <stop offset=".3" stop-color="#f6b0d7"/>
      <stop offset=".5" stop-color="#f4a1d0"/>
      <stop offset="1" stop-color="#f4a1d0"/>
    </linearGradient>
    <linearGradient id="linear-gradient33" x1="324.7" y1="363.6" x2="327.1" y2="390.8" gradientTransform="translate(-45.7 320.5) rotate(30.4) scale(1 -1)" gradientUnits="userSpaceOnUse">
      <stop offset="0" stop-color="#f084c1"/>
      <stop offset=".4" stop-color="#f084c1"/>
      <stop offset=".9" stop-color="#f084c1"/>
      <stop offset="1" stop-color="#f084c1"/>
    </linearGradient>
    <linearGradient id="linear-gradient34" x1="408.6" y1="311.8" x2="408.6" y2="338.9" gradientTransform="translate(-29.4 204.6) rotate(38.6) scale(1 -1)" gradientUnits="userSpaceOnUse">
      <stop offset="0" stop-color="#f081bf"/>
      <stop offset="0" stop-color="#f081bf"/>
      <stop offset="0" stop-color="#f081bf"/>
      <stop offset=".3" stop-color="#f6b0d7"/>
      <stop offset=".5" stop-color="#f4a1d0"/>
      <stop offset="1" stop-color="#f4a1d0"/>
    </linearGradient>
    <linearGradient id="linear-gradient35" x1="396.9" y1="312.4" x2="399.2" y2="339.6" gradientTransform="translate(-29.4 204.6) rotate(38.6) scale(1 -1)" gradientUnits="userSpaceOnUse">
      <stop offset="0" stop-color="#f084c1"/>
      <stop offset=".4" stop-color="#f084c1"/>
      <stop offset=".9" stop-color="#f084c1"/>
      <stop offset="1" stop-color="#f084c1"/>
    </linearGradient>
    <linearGradient id="linear-gradient36" x1="220.5" y1="377.4" x2="220.5" y2="403.5" gradientTransform="translate(-41.7 305.3) rotate(31.2) scale(1 -1)" gradientUnits="userSpaceOnUse">
      <stop offset="0" stop-color="#f081bf"/>
      <stop offset="0" stop-color="#f081bf"/>
      <stop offset="0" stop-color="#f081bf"/>
      <stop offset=".3" stop-color="#f6b0d7"/>
      <stop offset=".5" stop-color="#f4a1d0"/>
      <stop offset="1" stop-color="#f4a1d0"/>
    </linearGradient>
    <linearGradient id="linear-gradient37" x1="209.1" y1="378" x2="211.4" y2="404.1" gradientTransform="translate(-41.7 305.3) rotate(31.2) scale(1 -1)" gradientUnits="userSpaceOnUse">
      <stop offset="0" stop-color="#f084c1"/>
      <stop offset=".4" stop-color="#f084c1"/>
      <stop offset=".9" stop-color="#f084c1"/>
      <stop offset="1" stop-color="#f084c1"/>
    </linearGradient>
    <linearGradient id="linear-gradient38" x1="286.7" y1="392.5" x2="286.7" y2="418.6" gradientTransform="translate(-45.7 320.5) rotate(30.4) scale(1 -1)" gradientUnits="userSpaceOnUse">
      <stop offset="0" stop-color="#f081bf"/>
      <stop offset="0" stop-color="#f081bf"/>
      <stop offset="0" stop-color="#f081bf"/>
      <stop offset=".3" stop-color="#f6b0d7"/>
      <stop offset=".5" stop-color="#f4a1d0"/>
      <stop offset="1" stop-color="#f4a1d0"/>
    </linearGradient>
    <linearGradient id="linear-gradient39" x1="275.3" y1="393.1" x2="277.6" y2="419.2" gradientTransform="translate(-45.7 320.5) rotate(30.4) scale(1 -1)" gradientUnits="userSpaceOnUse">
      <stop offset="0" stop-color="#f084c1"/>
      <stop offset=".4" stop-color="#f084c1"/>
      <stop offset=".9" stop-color="#f084c1"/>
      <stop offset="1" stop-color="#f084c1"/>
    </linearGradient>
    <linearGradient id="linear-gradient40" x1="348.7" y1="334.5" x2="348.7" y2="360.6" gradientTransform="translate(-29.4 204.6) rotate(38.6) scale(1 -1)" gradientUnits="userSpaceOnUse">
      <stop offset="0" stop-color="#f081bf"/>
      <stop offset="0" stop-color="#f081bf"/>
      <stop offset="0" stop-color="#f081bf"/>
      <stop offset=".3" stop-color="#f6b0d7"/>
      <stop offset=".5" stop-color="#f4a1d0"/>
      <stop offset="1" stop-color="#f4a1d0"/>
    </linearGradient>
    <linearGradient id="linear-gradient41" x1="337.3" y1="335.1" x2="339.6" y2="361.3" gradientTransform="translate(-29.4 204.6) rotate(38.6) scale(1 -1)" gradientUnits="userSpaceOnUse">
      <stop offset="0" stop-color="#f084c1"/>
      <stop offset=".4" stop-color="#f084c1"/>
      <stop offset=".9" stop-color="#f084c1"/>
      <stop offset="1" stop-color="#f084c1"/>
    </linearGradient>
    <linearGradient id="linear-gradient42" x1="365.9" y1="632.7" x2="365.9" y2="800.3" gradientTransform="translate(184.7 1119.5) rotate(-27.8) scale(1 -1)" gradientUnits="userSpaceOnUse">
      <stop offset="0" stop-color="#fad1e8"/>
      <stop offset=".7" stop-color="#f7bede"/>
      <stop offset="1" stop-color="#f6b0d7"/>
    </linearGradient>
    <linearGradient id="linear-gradient43" x1="437" y1="349.7" x2="437" y2="491.9" gradientTransform="translate(-42.7 364.3) rotate(22.1) scale(1 -1)" gradientUnits="userSpaceOnUse">
      <stop offset="0" stop-color="#fc6563"/>
      <stop offset=".4" stop-color="#fad1e8"/>
      <stop offset="1" stop-color="#f6b0d7"/>
    </linearGradient>
    <linearGradient id="linear-gradient44" x1="1315.1" y1="322.8" x2="1320.6" y2="384.7" gradientTransform="translate(1818.4 779.3) rotate(-180)" gradientUnits="userSpaceOnUse">
      <stop offset="0" stop-color="#f084c1"/>
      <stop offset=".2" stop-color="#f084c1"/>
      <stop offset=".5" stop-color="#f084c1"/>
      <stop offset=".8" stop-color="#f084c1"/>
      <stop offset="1" stop-color="#f084c1"/>
    </linearGradient>
    <linearGradient id="linear-gradient45" x1="497" y1="338.5" x2="501" y2="383.8" gradientTransform="translate(0 779.3) scale(1 -1)" gradientUnits="userSpaceOnUse">
      <stop offset="0" stop-color="#f084c1"/>
      <stop offset=".4" stop-color="#f084c1"/>
      <stop offset=".9" stop-color="#f084c1"/>
      <stop offset="1" stop-color="#f084c1"/>
    </linearGradient>
    <linearGradient id="linear-gradient46" x1="501.3" y1="363.8" x2="501.3" y2="379.6" gradientTransform="translate(0 779.3) scale(1 -1)" gradientUnits="userSpaceOnUse">
      <stop offset="0" stop-color="#f084c1"/>
      <stop offset=".2" stop-color="#f084c1"/>
      <stop offset=".5" stop-color="#f084c1"/>
      <stop offset=".8" stop-color="#f084c1"/>
      <stop offset="1" stop-color="#f084c1"/>
    </linearGradient>
    <linearGradient id="linear-gradient47" x1="460.8" y1="179.9" x2="460.8" y2="263.8" gradientTransform="translate(0 779.3) scale(1 -1)" gradientUnits="userSpaceOnUse">
      <stop offset="0" stop-color="#f6b0d7"/>
      <stop offset=".3" stop-color="#f6b0d7"/>
      <stop offset="1" stop-color="#f9cae4"/>
    </linearGradient>
    <linearGradient id="linear-gradient48" x1="462.8" y1="190" x2="462.8" y2="268" gradientTransform="translate(0 779.3) scale(1 -1)" gradientUnits="userSpaceOnUse">
      <stop offset="0" stop-color="#fbe1f0"/>
      <stop offset="0" stop-color="#fbe1f0"/>
      <stop offset=".3" stop-color="#fce7f3"/>
      <stop offset="1" stop-color="#fce7f3"/>
    </linearGradient>
    <linearGradient id="linear-gradient49" x1="463.1" y1="204.2" x2="463.1" y2="263.1" gradientTransform="translate(0 779.3) scale(1 -1)" gradientUnits="userSpaceOnUse">
      <stop offset="0" stop-color="#f6b0d7"/>
      <stop offset=".3" stop-color="#f6b0d7"/>
      <stop offset="1" stop-color="#f9cae4"/>
    </linearGradient>
    <linearGradient id="linear-gradient50" x1="251.9" y1="633.4" x2="251.9" y2="677.7" gradientTransform="translate(0 779.3) scale(1 -1)" gradientUnits="userSpaceOnUse">
      <stop offset="0" stop-color="#f084c1"/>
      <stop offset=".3" stop-color="#f084c1"/>
      <stop offset=".4" stop-color="#f084c1"/>
      <stop offset=".6" stop-color="#f084c1"/>
      <stop offset=".8" stop-color="#f084c1"/>
      <stop offset="1" stop-color="#f084c1"/>
    </linearGradient>
    <linearGradient id="linear-gradient51" x1="550.9" y1="442.9" x2="550.9" y2="455.1" gradientTransform="translate(0 779.3) scale(1 -1)" gradientUnits="userSpaceOnUse">
      <stop offset="0" stop-color="#f084c1"/>
      <stop offset=".3" stop-color="#f084c1"/>
      <stop offset=".4" stop-color="#f084c1"/>
      <stop offset=".6" stop-color="#f084c1"/>
      <stop offset=".8" stop-color="#f084c1"/>
      <stop offset="1" stop-color="#f084c1"/>
    </linearGradient>
    <linearGradient id="linear-gradient52" x1="1338" y1="679.2" x2="1338" y2="696.7" gradientTransform="translate(1534.6 779.3) rotate(-180)" gradientUnits="userSpaceOnUse">
      <stop offset="0" stop-color="#f084c1"/>
      <stop offset=".3" stop-color="#f084c1"/>
      <stop offset=".4" stop-color="#f084c1"/>
      <stop offset=".6" stop-color="#f084c1"/>
      <stop offset=".8" stop-color="#f084c1"/>
      <stop offset="1" stop-color="#f084c1"/>
    </linearGradient>
    <linearGradient id="linear-gradient53" x1="434.2" y1="657.4" x2="434.2" y2="709.1" gradientTransform="translate(171.4 1142.3) rotate(-26.8) scale(1 -1)" gradientUnits="userSpaceOnUse">
      <stop offset="0" stop-color="#f084c1"/>
      <stop offset=".3" stop-color="#f084c1"/>
      <stop offset=".4" stop-color="#f084c1"/>
      <stop offset=".6" stop-color="#f084c1"/>
      <stop offset=".8" stop-color="#f084c1"/>
      <stop offset="1" stop-color="#f084c1"/>
    </linearGradient>
    <linearGradient id="linear-gradient54" x1="-75.1" y1="252.6" x2="163.4" y2="252.6" gradientTransform="translate(0 779.3) scale(1 -1)" gradientUnits="userSpaceOnUse">
      <stop offset="0" stop-color="#f9cae4"/>
      <stop offset=".5" stop-color="#f9cae4"/>
      <stop offset="1" stop-color="#d1c5f9"/>
    </linearGradient>
    <linearGradient id="linear-gradient55" x1="90.7" y1="86" x2="90.7" y2="324.8" gradientTransform="translate(0 779.3) scale(1 -1)" gradientUnits="userSpaceOnUse">
      <stop offset="0" stop-color="#fbe1f0"/>
      <stop offset=".6" stop-color="#fbdced"/>
      <stop offset="1" stop-color="#fad1e8"/>
    </linearGradient>
    <linearGradient id="linear-gradient56" x1="138.9" y1="151.9" x2="138.9" y2="244.9" gradientTransform="translate(0 779.3) scale(1 -1)" gradientUnits="userSpaceOnUse">
      <stop offset="0" stop-color="#fbe1f0"/>
      <stop offset=".6" stop-color="#fbdced"/>
      <stop offset="1" stop-color="#fad1e8"/>
    </linearGradient>
  </defs>
  <g class="st22">
    <g id="objects">
      <rect class="st77" x="-4.7" y="-7.5" width="645.7" height="704.9"/>
      <g>
        <path class="st79" d="M179.1,554c34.2-2,34.5,7.1,51.5,27.3s35.8-43,115.3-68.9c79.5-26,103.3-26.2,150.5,10.3,47.3,36.6,67.4-80,60.6-131.1-6.8-51.1-35.9-2.8-94.5.8-58.6,3.7,6.3-36.9,41.4-30.4s30.2-69-1.7-102.1c-31.9-33,11-13.7,30.6-2.9,19.6,10.8,2.7-35.1-10.8-67.6-13.5-32.6,30.7-11.7,51.2-35.4s-77.6-75.4-103.3-76c-25.6-.6-7.9,19.3-8.9,45.6s-135.1-70.1-155-61.1c-19.9,8.9,12.2,63,33.8,97.7,21.6,34.7,65.5,11.9,93.4,34.4,27.9,22.5-55.6,3.4-136,15.6-80.4,12.3-98.2,40-66.6,75.2,31.6,35.2,12.2,50.1-27.3,23.9-39.6-26.1-72.7-5.4-59.4,27,13.3,32.4,34.6,0,76.2,8.6,41.6,8.7,34.7,39.9-8.7,64.9s-90.2,74.3-112.6,110.1c-22.3,35.7,44.2,36.1,80.3,34.1h0Z"/>
        <g>
          <path class="st74" d="M300.1,255.7c-.1,2.6-2.9.7-2.9.7-2.6,0-11.6-12-26.5-24q-4.4-3.5,0,0c-6.1-4.9-13.1-9.7-21.1-13.8-27.7-14-51.4,11.2-67,10.1-2.1-.1-3.6-.6-4.8-1.4-7.3-5,4.3-21.5,18.4-26.2,16.2-5.3,29.7,6.2,34.1,2.6h0c4.1-3.6-18.8-12-51.8-11.3-19.1.4-32.9-9-33.6-17.6h0c-.5-6.4,6.2-12.3,23.2-13.6,40.1-3,70.5,32.7,81.4,42.3,10.8,9.6,9.5-9,0-22.8-9.5-13.9,4.2-22.7,15.8-19.6,11.6,3.1,2.5,13.6,4.5,38.4s30.4,53.9,30.3,56.4v-.2h0Z"/>
          <path class="st1" d="M297.2,256.4s-33-40.8-64.8-62.9c-31.8-22.1-76-25.1-79.1-24.1-3.1,1,46.5,1.2,77.7,25.2s23.3,18.2,21.1,18.3c-2.3.1-24-7.7-43.9-7-19.9.8-28,17.9-28,17.9,0,0,7-15.4,28.4-17.2s50.4,10.3,50.4,10.3c0,0,29.9,27.7,38.2,39.6h0Z"/>
          <path class="st0" d="M259.5,163.2c-.8.4.4,21.8,1.4,33.6,1,11.8,6.1,27.6,6.1,27.6l3,1.8s-8.8-11-9.4-36.6c-.6-25.6-1.1-26.4-1.1-26.4h0Z"/>
          <path class="st18" d="M210.4,200c-4.3-.4,5.8,4.3,16.9,7.2,11.1,2.9,18.8,2.2,20.6,2,1.9-.2-11.5-8.7-15.3-10.7s2,5.5-3.2,6c-5.1.6-11.9-3.6-19.1-4.6h.1Z"/>
          <path class="st18" d="M210,218.8c3.4-.8,11.8-10.2,23.8-9.4,12.1.8,24.5,8.4,27.7,11.7s-15.6-6.1-25.8-7.2c-10.2-1.1-25.8,4.9-25.8,4.9h.1Z"/>
          <path class="st18" d="M247.3,173.8c.4-6.9,13.6-1.2,18.4,9.9,4.8,11.1,4.3,30.7,5.7,37,1.4,6.3-10.2-4.6-12.8-10-2.5-5.3-.2-3.8-.9-12.5-.8-8.7-10.1-21.1-10.4-24.5h0Z"/>
          <path class="st20" d="M230.4,203.7c4.1-3.6-18.8-12-51.8-11.3-19.1.4-33-9-33.6-17.7,0,.5,1.9,12.6,29.5,15.7,28.3,3.2,47.8,3.8,53.7,7.4,5.4,3.3,2.6,5.7,2.2,6h0Z"/>
          <path class="st20" d="M270.7,232.3c-6.1-4.9-13.1-9.7-21.1-13.8-27.7-14-51.4,11.2-67,10.1-2.1-.1-3.6-.6-4.8-1.4h0c5,3.6,30.6-11.3,48.5-13.5,17.9-2.1,31.6,7.2,44.3,18.6h.1Z"/>
        </g>
        <g>
          <path class="st3" d="M502.5,291.9c-5.8,19-42.4,32.5-47,47.2-.5,1.5-.7,2.6-.6,3.4.5,6.5,19.1-12.5,31.3-12.8,6.3-.2,6.4,5.1,3.9,11.3h0c-3,7.2-9.5,15.6-14.2,18-8.7,4.4-17.8-9.5-42,4.9-11.8,7-21.5,22-28.4,35.6h0c-7.3,14.5-11.5,27.3-11.5,27.3-6.2,1.3,12.3-36.5,15.8-62.3s-18.2-13.4-14.9-34c3.3-20.6,22.5-1.6,23.9,14.9,1.3,16.4,11.9,7.9,10.8-7.9s-19.3-32.8-.2-43.7c19.1-10.9,16.4,16.1,20.8,28s9.3-34.2,29.3-52.2c7.9-7.2,14.1-8.1,18.3-5.5,6.4,4,8.1,16.3,4.7,27.8h0Z"/>
          <path class="st8" d="M394.1,426.8s11.2-42,24-60c12-16.8,36.2-37.4,56.5-58.6s17.9-40,17.3-41.3c-.6-1.4-11.4,34.8-25.5,48.8-14,14-17.8,16.7-21.4,19.8-3.5,3.1-10.7-22.5-10.5-31.5s1.2-8.9-.2-7.9c-1.4,1-.2,7.9,1.5,20.2,1.7,12.4,4.9,18,6.2,19.6,1.3,1.6-14.8,20.1-19.2,23.9-4.5,3.7-5.5-6-10.8-19.6-5.3-13.5-15.4-11.7-15.3-11.4,0,.3,9.7-.5,15.1,12.2,5.3,12.6,7.2,20.7,6.9,22.7-.3,2.1-7.8,12.2-13.7,28.7-4.3,12.1-11.7,28.7-11.7,29.9s.7,4.5.7,4.5h.1Z"/>
          <path class="st7" d="M428.3,354.2c7.2-7.4,32.8-7.7,44.8-6s14.7-6.9,14.7-7.4-2.3,5.6-12.5,6.4-13.2-.7-25.2,0-18.4,3.6-18.4,3.6l-3.3,3.4h-.1Z"/>
          <path class="st18" d="M478.5,274.9c-8,5.9-19.9,35.7-21.1,44.7s16.8,3.6,31.7-15.6c14.9-19.2-10.6-29.1-10.6-29.1Z"/>
          <path class="st18" d="M425.6,320c4.2,7.4,16,10.5,20.7,6.9s-1.4,7.9-9.2,15.3c-7.8,7.4-6.5-1.7-7.9-10.5-1.3-8.8-3.6-11.8-3.6-11.8h0Z"/>
          <path class="st20" d="M490.1,341h0c-3,7.2-9.5,15.6-14.2,18-8.7,4.4-17.8-9.5-42,4.9-11.8,7-21.5,22-28.4,35.6.2-.7,7.6-22.3,27.9-37.3,20.6-15.2,31.6-3.4,39.3-4,7.5-.6,16.9-16.6,17.3-17.2h.1Z"/>
          <path class="st20" d="M502.5,291.9c-5.8,19-42.4,32.5-47,47.2-.5,1.5-.7,2.6-.6,3.4,0,0-1.9-6.8,11-17.9s27.1-17.1,35.1-33.3c8-16.1-3.2-27.2-3.2-27.2,6.4,4,8.1,16.3,4.7,27.8Z"/>
        </g>
        <g>
          <path class="st4" d="M273.3,494.3s-6.8,24.3,94,6.5,84.4-37.9,84.4-37.9l-178.3,31.4h0Z"/>
          <path class="st6" d="M283.9,485c-55.7,29.2,121.8,1,158.8-13.4s-45.2-46-158.8,13.4h0Z"/>
          <path class="st5" d="M222.7,263.9c-2.7-3.9-2.9-32,94.1-49.1,100.8-17.8,105.1,10.2,105.4,15.4l-199.5,33.7h0Z"/>
          <path class="st2" d="M225.4,267.9c-25.9-21.6,134.4-61.6,190.8-43.6,41.5,13.3-142,84.3-190.8,43.6h0Z"/>
          <path class="st26" d="M422.4,429.7c0-.1-.1-.2-.1-.3-.1-.3-.2-.5-.3-.8,0,0,0-.2-.1-.2,0-.2-.1-.3-.2-.5-.2-.5-.5-1.1-.8-1.8-.1-.3-.3-.6-.4-.8-.1-.3-.3-.6-.4-.9-6.3-14.1-13.6-27.9-19.8-33.1-14.6-12.1-49.3-14.6-45.6-24.4,3.7-9.7,25.2-20.2,36.4-46.1,2.7-6.3,5.1-14.9,7.1-24.3,6.3-29.2,9.2-66.2,9.2-66.2-61.1,4.6-107.6,11.6-170.3,30,0,0,27.7,59.8,47,80.3,4.1,4.4,8.4,7.8,12.6,10.7,15.8,10.7,31.2,13.1,36.6,19.3,6.8,7.9-24.9,22.1-34.5,38.5-5.6,9.5-7.5,34.5-8.1,53.8v.2c-.4,13.9-.2,24.8-.2,24.8,0,0,31.3,1.8,73.5-5.7,46.5-8.2,71.1-19.8,71.1-19.8,0,0-5.4-15.7-12.5-32.5v-.2h-.2ZM363,476.8c-31.5,5.5-56.9,5.9-67.2,5.8,0-18.5,1-54.6,6.5-68.3h0c.2-.5.3-.9.5-1.3h0c.2-.4.4-.8.6-1.1,3.8-6.5,12.1-13.1,19.5-18.9,9.3-7.4,16.1-12.7,16.7-19.1.1-1.1,0-2.3-.3-3.3-.4-1.3-1-2.5-1.9-3.5-3.6-4.2-9.7-6.1-17.3-8.6-9.4-3-20.9-6.7-31.1-15.8-1.1-1-2.3-2.1-3.4-3.3-15.3-16.2-35.1-61-41.5-76.1,26.6-10.4,51.9-17.7,77.3-22.1,25.3-4.5,51.6-6.3,80.2-5.6-.7,12.9-2.8,45.7-8,69.2-1.4,6.4-3.1,12.1-5,16.5-5.2,12.2-13.7,20-21.4,26.2-1.5,1.2-3,2.4-4.5,3.5-6.2,4.8-11.1,8.6-13.2,13.6,0,.1-.1.3-.2.4-.3.9-.5,1.8-.6,2.7-.1,1.5.2,3,.9,4.4.2.5.5,1,.9,1.5h0c2.5,3.5,7.3,5.8,13.8,8.1h0c2.3.8,4.8,1.7,7.5,2.5,8.9,2.9,19,6.3,24.8,11.1,10.1,8.3,24.8,45.4,31.5,63.9-9,3.6-31.2,11.5-65.2,17.5h.1Z"/>
          <path class="st25" d="M396.7,395.4c10.1,8.3,24.8,45.4,31.5,63.9-9,3.6-31.2,11.5-65.2,17.5-31.5,5.5-56.9,5.9-67.3,5.8,0-19.8,1.1-59.5,7.7-70.7,3.8-6.5,12.1-13.1,19.5-18.9,9.3-7.4,16.1-12.7,16.7-19.1.2-2.5-.5-4.9-2.2-6.8-3.6-4.2-9.7-6.1-17.3-8.6-10.5-3.3-23.5-7.5-34.4-19.1-15.3-16.2-35.1-61-41.5-76.1,26.6-10.4,51.9-17.7,77.3-22.1,25.3-4.5,51.6-6.3,80.2-5.6-.8,16.4-4.1,65.3-12.9,85.7-6.3,14.6-17.1,23-25.8,29.7-6.3,4.9-11.3,8.8-13.3,14-.9,2.4-.8,4.9.3,7.2,2.7,5.8,10.9,8.5,22.2,12.2,8.9,2.9,19,6.3,24.8,11.1h-.3Z"/>
          <path class="st17" d="M354.9,236.9c-39.6,15.8-28.5,78.9-10.3,96.5s53.2-46.3,53.2-75.8-42.9-20.7-42.9-20.7h0Z"/>
          <path class="st24" d="M398.8,397.5c9.9,11.2,23.2,44.6,29.4,61.9-9,3.6-31.2,11.5-65.2,17.5-31.5,5.5-56.9,5.9-67.3,5.8,0-8.2.1-20,.9-31.6,1-16.3,3-32.5,6.8-39.1,3.8-6.5,12.1-13.1,19.5-18.9,9.3-7.4,16.1-12.7,16.7-19.1v-.7c0-2.2-.7-4.3-2.3-6.1-3.6-4.2-9.7-6.1-17.3-8.6-10.5-3.3-23.5-7.5-34.4-19.1-6.4-6.7-13.5-18.3-20.1-30.7-9.3-17.5-17.7-36.5-21.4-45.4,26.6-10.4,51.9-17.7,77.3-22.1,25.3-4.5,51.6-6.3,80.2-5.6-.7,12.9-2.8,45.9-8,69.3h0c-1.4,6.4-3,12-4.9,16.4-6.3,14.6-17.1,23-25.8,29.7-6.3,4.9-11.3,8.8-13.3,14-.5,1.4-.7,2.8-.6,4.2.1,1,.4,2,.9,3,2.7,5.8,10.9,8.5,22.2,12.2,8.9,2.9,19,6.3,24.8,11.1.7.6,1.4,1.3,2.1,2.1l-.2-.2h0Z"/>
          <path class="st59" d="M393.6,304.9c-1.4,6.4-3,12-4.9,16.4-6.3,14.6-17.1,23-25.8,29.7-6.3,4.9-11.3,8.8-13.3,14-.5,1.4-.7,2.8-.6,4.2,1,8.5-5.4,10.3-9.3,4,0-2.2-.7-4.3-2.3-6.1-3.6-4.2-9.7-6.1-17.3-8.6-10.5-3.3-23.5-7.5-34.4-19.1-6.4-6.7-13.5-18.3-20.1-30.7,7.5,9.7,109,12.8,128-3.8h0Z"/>
          <path class="st17" d="M315.7,398.9c-15.7,14.8-19.9,36.4-9.8,56.3s73-27.3,74.9-48.3c2-21-35.7-35.7-65.2-8h0Z"/>
          <path class="st63" d="M393.6,304.9c-12.6-6.6-71.7,6.8-92.8,7.1-21.1.3-35.7-6.9-35.2-3.3.5,3.7,52.4,14.1,84.3,13.7s43.7-17.5,43.7-17.5h0Z"/>
          <path class="st60" d="M428.2,459.4c-9,3.6-31.2,11.5-65.2,17.5-31.5,5.5-56.9,5.9-67.3,5.8,0-8.2.1-20,.9-31.6,3.3,7.2,89.7-25.7,102.2-53.5,9.9,11.2,23.2,44.6,29.4,61.9h0Z"/>
          <path class="st61" d="M398.8,397.5c-6-4.7-8.6,10.9-68.9,35-36.4,14.5-33.3,18.5-33.3,18.5,0,0,11.5,26.2,54-.8,44.8-28.5,48.2-52.7,48.2-52.7h0Z"/>
          <path class="st62" d="M347.4,393.1c-2.6,4-2.9,16.3,3,16.8,6,.6.6-22.6-3-16.8Z"/>
          <path class="st20" d="M244.8,276.3c-4.4-9,74.3-48.6,161.5-35.3l-.4,4.5s15.5-8.5,16.3-15.9c.9-7.5-62.9-16.4-128,1.7-65,18.1-71.5,28.6-70.1,33.9,1.5,5.3,20.7,11.2,20.7,11.2h0Z"/>
          <path class="st21" d="M290.4,487.8l1.7,9.8s-17.1.3-17.9-3.7,16.2-12.3,16.2-12.3v6.2h0Z"/>
          <path class="st21" d="M435,462.4l2,11.2s13.8-4.2,13.9-10.5c0-6.3-19.6-11-19.6-11l3.7,10.4h0Z"/>
          <path class="st23" d="M348.8,210.2c-24.4,3.2-18.7,11.3,34.5,8,38.6-2.4-1-11.9-34.5-8Z"/>
          <path class="st21" d="M408.1,480.9c-6.9-1.1,11.9-6,24-5.9,0,0-15.9,4.2-24,5.9Z"/>
          <path class="st12" d="M304.9,507.3c-15.6-3.5-21.6-7.4,21.9-12.4,43.5-5.1,75-2.8,75-2.8,0,0-56.9,16.5-96.9,15.2h0Z"/>
          <path class="st20" d="M240,251c-10.8,6.1,12.3,6,53.4-5.3,41.1-11.2-.2-24.8-53.4,5.3Z"/>
          <path class="st16" d="M363,476.8c-28.4,1.6,22.5-48.3,31-64.4s30.8,39.9,27,48c-3.7,8.1-58,16.4-58,16.4Z"/>
          <path class="st16" d="M284.5,336.3c-9.8-15.7,41.9-15.7,58.3-6.8,16.4,8.9,6.1,30.9-3.5,32.3-9.5,1.5-44.8-9.4-54.8-25.5Z"/>
          <path class="st75" d="M310.8,461.7s6.3,2.8,20.5,0,40-25.7,51.4-37.5c0,0-16.5,16-32.5,26.4-16.1,10.4-27.7,13.1-39.3,11.1h-.1Z"/>
          <path class="st75" d="M272,311.9s33.6,9.2,69.9,9.5c30.9.3,45.4-10.3,45.4-10.3,0,0-12,11.4-43.8,11.9-31.9.5-71.4-11.2-71.4-11.2h-.1Z"/>
          <path class="st80" d="M315.9,462.2c-18.6.1,25.9-28.7,46.2-31.2,20.3-2.5-14,31-46.2,31.2Z"/>
          <path class="st80" d="M338.8,321.9c-6.8-1.4,29.1-5.7,32-4s-21,6.2-32,4Z"/>
          <path class="st12" d="M346.7,323.3c-24.4,1.6-79.6-13.4-79.6-13.4l7.3,14.2c-.6-9.2,46.6-3.3,65.9,1.8,19.3,5.2,27-2.1,34.8-6.9,7.8-4.9,5.5.4,8.4,2.1,2.7,1.6,9.3-14.1,10.1-16-.9,1.8-9,15.8-46.9,18.2h0ZM356.4,323.7c-.4,1.4-2.2,1.7-2.2-.1s2.7-1.3,2.2.1ZM367.7,322.7c-4.5,2.2-12.6,3-9.3.9,4.4-2.8,13.8-3.1,9.3-.9ZM386.1,317.4c-1.6,2.9-4.6.5-3.3-1.5.9-1.5,5-1.4,3.3,1.5Z"/>
          <path class="st12" d="M398.8,397.5s-3.9,22.4-47.9,54.9c-23.6,17.4-49.2,11.5-54.3-2.2l-.5,8.5c1.1-3.2,5.8,8.1,24,10.8,18.2,2.7,15.5-7.5,25.5-11.8s10-.5,16.7-9.8,26.2-27.7,32.8-37.2c6.1-8.9,9.9-3.4,10.4-2.7-.4-.9-4-8-6.7-10.5h0ZM324.7,468.8c-.4,1-2.1.4-2.2-.4,0-1,2.6-.6,2.2.4ZM326.5,468.3c-6.8-1.9,4-6.3,8.3-6.6,4.3-.2-2.3,8.3-8.3,6.6Z"/>
          <path class="st21" d="M334.3,362.7c-2.1.3,5.2,3.4,8.4,8.7,3.1,5.3,4.5-7.3,12.8-14.8s24.9-20.4,28.7-30.2c3.8-9.8-21.4,3-26.1,5.6-4.6,2.7-4,19.8-12.7,27s-11.1,3.6-11.1,3.6h0Z"/>
          <path class="st21" d="M300.4,482.6c-6.7-1.8-3-13.4.2-14.9s17.7,11.6,32.1,9.2c14.3-2.3,14.5-11.8,18.4-15.2,3.9-3.4-1.2,14.3,9.5,15.5,0,0-43.6,7.3-60.2,5.4Z"/>
          <path class="st21" d="M419.1,449.7c-7.6-12.6-40.2,12.9-46.4,20.5-6.3,7.7,30.3-2.1,41.2-6.8,10.9-4.7,5.2-13.8,5.2-13.8h0Z"/>
          <path class="st78" d="M377.8,210c-3.3,2.1-3.4,4.9,4.8,4.1,8.2-.8-2.5-5.6-4.8-4.1Z"/>
          <path class="st78" d="M298.4,293.4c-8.8,4.6,6.2,26.9,15.2,33,8.9,6.1-4.9-38.3-15.2-33Z"/>
          <path class="st78" d="M286.7,268.3c-5.6,4,3.8,6.3,8,1.2,4.2-5-2.5-5.3-8-1.2Z"/>
          <path class="st78" d="M325,403c-6.2,6.5,2.4,10.9,5.4,4.1s-3-6.5-5.4-4.1Z"/>
          <path class="st15" d="M339.3,370.6c-.2,0-.4-.2-.7-.7-2.1-3.5-7.8-5.4-5.7-1,2.2,4.4,5,8.2-1.1,15.8-6.1,7.6-22.1,15.8-28.4,27.2-.2.4-.4.7-.6,1.1h0c-.2.4-.4.8-.5,1.2h0c-5.7,13.3-11.1,45.9-11.6,48.7.6-19.3,2.6-44.3,8.1-53.8,9.6-16.4,41.3-30.6,34.5-38.5-5.4-6.2-20.8-8.6-36.6-19.3-3.1-3.2-5.8-6.2-7.7-8.6,10.1,9.1,21.7,12.8,31.1,15.8,7.6,2.5,13.6,4.4,17.3,8.6.9,1,1.6,2.2,1.9,3.5h0Z"/>
          <path class="st15" d="M400.2,391.2c6.3,5.2,13.5,19,19.8,33.1-4.2-9.2-13.1-27.1-20.1-32.1-9.6-6.8-24-8.5-35.4-10.4h0c-6.5-2.3-11.3-4.6-13.8-8.1h0c-.8-1.7-1.4-3.7-1.7-6,0-.9.3-1.8.6-2.7,0-.1.1-.3.2-.4.5,1.4,1.2,3,1.8,3.5,1.6,1.4,1.7-4,12-14.4,7.8-7.9,6.5-7.5,3.8-6.2,7.7-6.2,16.1-14,21.4-26.2,1.9-4.4,3.5-10.1,5-16.5.8-1.6,1.5-3.1,2.1-4.6.7-1.7,1.5-2.9,2.3-3.6-2,9.4-4.4,18-7.1,24.3-11.2,25.9-32.7,36.3-36.4,46.1-3.7,9.7,31,12.3,45.6,24.4v-.2h0Z"/>
          <path class="st78" d="M377.9,384c-2.5.7,7.4,5.3,12.6,7.2,5.2,1.9-1.7-10-12.6-7.2Z"/>
          <path class="st78" d="M353.9,359.8c-2.4,6.7,7.5-3.2,12.1-8.7s-10.7,4.8-12.1,8.7Z"/>
          <path class="st78" d="M332.6,366.7c-.5,1.4,3.1,6.3,3.5,8.6.4,2.3,3.8-1.4,2.5-5.4s-5.8-3.8-6-3.2Z"/>
          <path class="st78" d="M252.1,287.2c-2-.8,10.2,22.4,13.3,25.8,3,3.4-8.1-23.8-13.3-25.8h0Z"/>
          <path class="st78" d="M395.8,293.5c.9,5.7,3.4.9,3.5-5.8.1-6.6-3.9,3.3-3.5,5.8Z"/>
        </g>
        <g>
          <path class="st58" d="M285,419.2s-24.1,111.9-29.3,123.6c0,0-6.9,14.2-22.1,18.7l-132.5-18.1s-10.9-4.6-9-14.9c1.9-10.4,57.5-121.1,57.5-121.1l135.3,11.8h.1Z"/>
          <path class="st64" d="M284,416.6s-24.1,111.9-29.3,123.6c0,0-6.9,14.2-22.1,18.7l-132.5-18.1s-9.9-2-8-12.4,56.5-123.7,56.5-123.7l135.3,11.8h.1Z"/>
          <path class="st16" d="M132,538.5s74.7,22.7,100.8,16.9c7.8-1.7,14.5-5.6,19.4-14.7,6-11,9.8-28.3,13.6-43,7.3-27.7,12.4-54.9,12.4-54.9l5.2-23.9-151.5,119.5h.1Z"/>
          <path class="st70" d="M83.7,525.4s-.4,4,5.2,7.4l122.4,16.2s22.6-.5,36.1-23c15.8-26.4,36.6-109.4,36.6-109.4l-5.3-4.4-195,113.3h0Z"/>
          <path class="st69" d="M278.7,412.2s-20.3,75.3-39.3,109.6c-4.5,8.2-20,16.5-30.5,17.1-4.8.3-26-2.4-58.8-6.3-49.6-5.8-66.3-7.1-66.3-7.1l184.8-114.4,10.2,1.1h-.1Z"/>
          <path class="st66" d="M76,494.3s.6,18.4,7,28.4l125.9,16.1s19.7-3.8,29.6-20.8c18.6-31.6,38.9-107.8,38.9-107.8l-14.4-7.2-187,91.3Z"/>
          <path class="st65" d="M263,403c-5.6,34.6-17.6,62.8-26.8,80.7h0c-7,13.5-12.4,21.1-12.4,21.1-11.2,17.4-29.1,17.9-29.1,17.9l-108.9-13.5c-2.1-1.5-3.8-3-5.1-4.5-5.4-5.9-4.7-10.4-4.7-10.4,39.7-37.6,46.9-98.7,46.9-98.7l140.1,7.3h0Z"/>
          <path class="st9" d="M126.8,397.8c-3.1.7-5.7,21.4-6.2,26.4-.5,5.1,122.6,11.2,127.5,11.2s12.4-26.8,13-29.7c.5-2.9-129.9-8.9-134.3-8h0Z"/>
          <path class="st67" d="M147.2,415.6c-1.2,4.5-4.6,7.5-7.6,6.8s-4.6-5.1-3.4-9.6c1.2-4.5,4.6-7.5,7.6-6.8,3,.8,4.6,5.1,3.4,9.6Z"/>
          <path class="st68" d="M227.2,421.7c-1.3,4.5-4.9,7.4-7.9,6.5s-4.4-5.2-3-9.7c1.3-4.5,4.9-7.4,7.9-6.5s4.4,5.2,3,9.7Z"/>
          <path class="st72" d="M248.8,402.1s1.8-4.4.6-8.6c-1.6-5.6-8.1-11-16.4-6.6-13.9,7.3-7.8,29.4-6.9,33.7.9,4.3-2.1,5.8-4.1,5-2.2-.9-5.9-6.6-7.2-14.6-1.1-7-.4-15.8,4.9-24.6,8.8-14.6,29.2-10.2,36.9,3h0c2.3,3.9,3.4,8.5,2.9,13.6l-10.7-.7v-.2h0Z"/>
          <path class="st71" d="M177,398.5l-8.7-.5s0-6.2-1.1-10.1c-1.5-5.1-7.4-10-14.9-6-12.6,6.7-7.1,26.7-6.3,30.6s-1.9,5.3-3.7,4.5c-1.7-.7-4.5-4.7-6-10.5h0c-1.7-6.7-1.7-15.9,3.9-25.1,9.3-15.4,33.8-8.2,36.7,10.5.3,2.1.4,4.3.1,6.6Z"/>
          <g>
            <g class="st10">
              <path class="st73" d="M190.6,455.1c4.2.3,6.3.5,10.4.8,1.4.1,3.1-.9,3.8-2.2,2.2-4.1,3.2-6.2,5.2-10.3.6-1.4,0-2.5-1.3-2.6-4.2-.3-6.3-.4-10.6-.7-1.4,0-3,.9-3.6,2.3-1.9,4.1-3,6.1-5.1,10.2-.7,1.3-.2,2.5,1.2,2.6h0Z"/>
              <path class="st73" d="M218.2,476c4.2.4,6.3.6,10.5,1,1.4.1,3.2-.9,4-2.2,2.6-4.2,3.9-6.3,6.3-10.5.8-1.4.3-2.6-1.1-2.7-4.3-.3-6.4-.5-10.6-.8-1.4-.1-3.1.9-3.9,2.3-2.4,4.2-3.6,6.2-6.2,10.3-.8,1.3-.4,2.5.9,2.6h.1Z"/>
              <path class="st73" d="M199.3,474.3c4.1.4,6.2.6,10.4,1,1.4.1,3.1-.9,4-2.2,2.6-4.1,3.8-6.2,6.2-10.3.8-1.4.3-2.5-1.1-2.6-4.2-.3-6.3-.5-10.5-.8-1.4-.1-3.1.9-3.8,2.2-2.3,4.1-3.5,6.1-6,10.2-.8,1.3-.4,2.5,1,2.6h-.2,0Z"/>
              <path class="st73" d="M180.5,472.6c4.1.4,6.2.6,10.3.9,1.3.1,3.1-.8,3.9-2.2,2.5-4,3.7-6.1,6-10.1.8-1.3.2-2.5-1.1-2.6-4.2-.3-6.3-.5-10.4-.8-1.4-.1-3,.9-3.8,2.2-2.2,4-3.4,6-5.8,10-.8,1.3-.4,2.4,1,2.6h0Z"/>
              <path class="st73" d="M206.2,493.7c4.1.4,6.2.7,10.3,1.1,1.3.1,3.2-.8,4.2-2.1,2.9-4.1,4.3-6.1,7.1-10.2.9-1.3.5-2.5-.9-2.7-4.2-.4-6.3-.6-10.5-1-1.4-.1-3.2.8-4,2.2-2.7,4.1-4.1,6.1-6.9,10.1-.9,1.3-.6,2.5.7,2.6h0Z"/>
              <path class="st73" d="M187.6,491.7c4.1.4,6.1.7,10.2,1.1,1.3.1,3.2-.8,4.1-2.1,2.8-4,4.2-6,6.9-10.1.9-1.3.5-2.5-.9-2.6-4.2-.4-6.2-.6-10.4-1-1.3-.1-3.1.8-4,2.1-2.6,4-4,6-6.7,10-.9,1.3-.6,2.4.7,2.6h0Z"/>
              <path class="st73" d="M169.1,489.7c4,.4,6.1.6,10.1,1.1,1.3.1,3.1-.8,4-2.1,2.8-3.9,4.1-5.9,6.7-9.9.8-1.3.4-2.5-.9-2.6-4.1-.4-6.2-.6-10.3-1-1.3-.1-3.1.8-3.9,2.1-2.5,3.9-3.9,5.9-6.6,9.8-.9,1.3-.5,2.4.8,2.5h0Z"/>
              <path class="st73" d="M192.9,510.9c4,.5,6.1.7,10.1,1.2,1.3.2,3.3-.7,4.3-2,3.2-4,4.8-5.9,7.8-10,1-1.3.7-2.5-.7-2.6-4.1-.5-6.2-.7-10.3-1.1-1.3-.1-3.2.8-4.2,2.1-3,4-4.5,5.9-7.6,9.8-1,1.3-.8,2.4.5,2.6h0Z"/>
              <path class="st73" d="M174.7,508.6c4,.5,6,.7,10,1.2,1.3.2,3.2-.7,4.2-2,3.1-3.9,4.6-5.9,7.6-9.8,1-1.3.7-2.5-.7-2.6-4.1-.4-6.1-.7-10.2-1.1-1.3-.1-3.1.8-4.1,2-2.9,3.9-4.4,5.8-7.4,9.7-1,1.3-.8,2.4.5,2.6h0Z"/>
              <path class="st73" d="M156.6,506.4c4,.5,5.9.7,9.9,1.2,1.3.2,3.2-.7,4.1-2,3-3.8,4.5-5.8,7.4-9.7.9-1.3.6-2.4-.7-2.6-4-.4-6.1-.7-10.1-1.1-1.3-.1-3.1.8-4,2-2.8,3.8-4.3,5.8-7.2,9.5-1,1.2-.7,2.4.6,2.5v.2Z"/>
              <path class="st73" d="M172.5,453.7c4.1.3,6.2.5,10.3.8,1.4.1,3-.9,3.7-2.2,2.1-4.1,3.1-6.1,5.1-10.2.6-1.3,0-2.5-1.3-2.6-4.2-.3-6.3-.4-10.5-.7-1.4,0-2.9.9-3.6,2.2-1.9,4-2.9,6-4.9,10-.7,1.3-.1,2.4,1.2,2.5v.2h0Z"/>
              <path class="st73" d="M162.7,471c4.1.4,6.1.6,10.2.9,1.3.1,3.1-.8,3.8-2.1,2.4-4,3.6-6,5.8-10,.7-1.3.2-2.5-1.1-2.6-4.1-.3-6.2-.5-10.3-.8-1.3-.1-3,.9-3.7,2.2-2.2,4-3.3,5.9-5.7,9.9-.8,1.3-.3,2.4,1,2.5Z"/>
              <path class="st73" d="M151.6,487.8c4,.4,6,.6,10,1.1,1.3.1,3.1-.8,4-2,2.7-3.9,4-5.8,6.5-9.8.8-1.3.4-2.4-.9-2.6-4.1-.4-6.1-.6-10.1-1-1.3-.1-3,.8-3.8,2.1-2.5,3.9-3.8,5.8-6.4,9.7-.9,1.2-.5,2.4.8,2.5h-.1Z"/>
              <path class="st73" d="M139.4,504.3c3.9.5,5.9.7,9.8,1.2,1.3.2,3.1-.7,4.1-1.9,3-3.8,4.4-5.7,7.2-9.5.9-1.3.6-2.4-.7-2.5-4-.4-6-.7-10-1.1-1.3-.1-3.1.7-4,2-2.7,3.8-4.2,5.7-7.1,9.4-.9,1.2-.7,2.3.6,2.5h0Z"/>
              <path class="st73" d="M154.6,452.3c4.1.3,6.1.5,10.2.8,1.3.1,3-.9,3.6-2.2,2.1-4,3-6,4.9-10,.6-1.3,0-2.4-1.4-2.5-4.1-.3-6.2-.4-10.3-.6-1.3,0-2.9.9-3.5,2.2-1.8,4-2.8,5.9-4.8,9.9-.7,1.3-.1,2.4,1.2,2.5h.1Z"/>
              <path class="st73" d="M145.1,469.3c4,.4,6,.6,10.1.9,1.3.1,3-.8,3.8-2.1,2.4-3.9,3.5-5.9,5.7-9.9.7-1.3.2-2.4-1.1-2.5-4.1-.3-6.1-.5-10.2-.8-1.3-.1-2.9.8-3.6,2.1-2.1,3.9-3.2,5.9-5.5,9.7-.7,1.3-.3,2.4,1,2.5h-.2Z"/>
              <path class="st73" d="M134.3,486c4,.4,5.9.6,9.9,1.1,1.3.1,3-.8,3.9-2,2.6-3.8,3.9-5.8,6.4-9.6.8-1.3.4-2.4-.9-2.5-4-.4-6-.6-10-.9-1.3-.1-3,.8-3.8,2-2.4,3.8-3.7,5.7-6.2,9.5-.8,1.2-.5,2.3.8,2.5h0Z"/>
              <path class="st73" d="M122.4,502.2c3.9.5,5.8.7,9.7,1.2,1.3.2,3.1-.7,4-1.9,2.9-3.7,4.3-5.6,7-9.4.9-1.2.6-2.4-.7-2.5-4-.4-5.9-.7-9.9-1.1-1.3-.1-3,.7-3.9,2-2.7,3.7-4,5.6-6.9,9.3-.9,1.2-.7,2.3.6,2.4h0Z"/>
              <path class="st73" d="M136.9,451c4,.3,6.1.5,10.1.8,1.3.1,2.9-.9,3.6-2.1,2-3.9,3-5.9,4.8-9.9.6-1.3,0-2.4-1.4-2.5-4.1-.3-6.1-.4-10.2-.6-1.3,0-2.9.9-3.4,2.2-1.8,3.9-2.7,5.9-4.7,9.7-.6,1.3,0,2.4,1.2,2.5h0Z"/>
              <path class="st73" d="M127.6,467.7c4,.4,6,.5,10,.9,1.3.1,3-.8,3.7-2.1,2.3-3.9,3.4-5.8,5.5-9.7.7-1.3.2-2.4-1.2-2.5-4-.3-6.1-.5-10.1-.8-1.3-.1-2.9.8-3.6,2.1-2.1,3.8-3.1,5.8-5.4,9.6-.7,1.2-.3,2.3,1,2.5h.1Z"/>
              <path class="st73" d="M117.1,484.1c3.9.4,5.9.6,9.8,1.1,1.3.1,3-.7,3.8-2,2.6-3.8,3.8-5.7,6.2-9.5.8-1.2.4-2.4-.9-2.5-4-.4-6-.6-9.9-.9-1.3-.1-2.9.8-3.7,2-2.3,3.8-3.6,5.6-6.1,9.4-.8,1.2-.5,2.3.8,2.4Z"/>
              <path class="st73" d="M119.4,449.7c4,.3,6,.5,10,.8,1.3,0,2.9-.8,3.5-2.1,1.9-3.9,2.9-5.8,4.6-9.7.6-1.3,0-2.4-1.4-2.5-4.1-.3-6.1-.4-10.1-.6-1.3,0-2.8.9-3.4,2.1-1.7,3.8-2.6,5.8-4.5,9.6-.6,1.2,0,2.3,1.2,2.4h0Z"/>
              <path class="st73" d="M110.3,466.2c3.9.4,5.9.5,9.9.9,1.3.1,2.9-.8,3.7-2,2.2-3.8,3.3-5.7,5.4-9.6.7-1.3.1-2.4-1.2-2.5-4-.3-6-.5-10-.8-1.3-.1-2.9.8-3.5,2.1-2,3.8-3.1,5.7-5.2,9.4-.7,1.2-.3,2.3,1,2.4h-.1Z"/>
              <path class="st73" d="M100.1,482.3c3.9.4,5.8.6,9.7,1,1.3.1,3-.7,3.8-1.9,2.5-3.7,3.7-5.6,6-9.4.8-1.2.3-2.3-1-2.4-3.9-.4-5.9-.6-9.8-.9-1.3-.1-2.9.8-3.7,2-2.3,3.7-3.5,5.6-5.9,9.2-.8,1.2-.4,2.3.8,2.4h0Z"/>
            </g>
            <path class="st73" d="M192.6,510.8c4,.5,6.1.7,10.1,1.2,1.3.2,3.3-.7,4.3-2,3.2-4,4.8-5.9,7.8-10,1-1.3.7-2.5-.7-2.6-4.1-.5-6.2-.7-10.3-1.1-1.3-.1-3.2.8-4.2,2.1-3,4-4.5,5.9-7.6,9.8-1,1.3-.8,2.4.5,2.6h0Z"/>
            <path class="st73" d="M174.3,508.6c4,.5,6,.7,10,1.2,1.3.2,3.2-.7,4.2-2,3.1-3.9,4.6-5.9,7.6-9.8,1-1.3.7-2.5-.7-2.6-4.1-.4-6.1-.7-10.2-1.1-1.3-.1-3.1.8-4.1,2-2.9,3.9-4.4,5.8-7.4,9.7-1,1.3-.8,2.4.5,2.6h0Z"/>
            <path class="st73" d="M156.2,506.4c4,.5,5.9.7,9.9,1.2,1.3.2,3.2-.7,4.1-2,3-3.8,4.5-5.8,7.4-9.7.9-1.3.6-2.4-.7-2.6-4-.4-6-.7-10.1-1.1-1.3-.1-3.1.8-4,2-2.8,3.8-4.3,5.8-7.2,9.5-1,1.2-.7,2.4.6,2.5v.2Z"/>
            <path class="st73" d="M139,504.2c3.9.5,5.9.7,9.8,1.2,1.3.2,3.1-.7,4.1-1.9,3-3.8,4.4-5.7,7.2-9.5.9-1.3.6-2.4-.7-2.5-4-.4-6-.7-10-1.1-1.3-.1-3.1.7-4,2-2.7,3.8-4.2,5.7-7.1,9.4-.9,1.2-.7,2.3.6,2.5h0Z"/>
          </g>
          <path class="st20" d="M248.8,402.1s1.8-4.4.6-8.6c-1.6-5.6-8.1-11-16.4-6.6-13.9,7.3-7.8,29.4-6.9,33.7.9,4.3-2.1,5.8-4.1,5-2.2-.9-5.9-6.6-7.2-14.6.7,3.4,3.6,8.4,6.7,8,3.1-.4-5.7-20.8,8.2-32.1,13.9-11.4,22.6-3.5,26.9,2.5h0c2.3,3.9,3.4,8.5,2.9,13.6l-10.7-.7v-.2h0Z"/>
          <path class="st20" d="M177,398.5l-8.7-.5s0-6.2-1.1-10.1c-1.5-5.1-7.4-10-14.9-6-12.6,6.7-7.1,26.7-6.3,30.6s-1.9,5.3-3.7,4.5c-1.7-.7-4.5-4.7-6-10.5.7,2.3,3.5,6.6,6.6,6.3,3.1-.3-4-22.9,7.9-33.4s22.7,3.3,26.1,12.4h0c.3,2.1.4,4.3.1,6.6h0Z"/>
          <path class="st23" d="M219.1,387.2c-3.7,6.9,5.4,5.3,12-1.6s-7.1-7.6-12,1.6Z"/>
          <path class="st23" d="M138.9,383.6c-3.1,6.1,9-.9,12.6-5.4s-7.6-4.4-12.6,5.4Z"/>
          <path class="st78" d="M229.6,384.3c-1.3,0-3.2,2.5-2.2,3s3.6-3,2.2-3Z"/>
          <path class="st78" d="M148.4,378.6c-3.2,0-3,3.1-1.7,2.9s2.8-2.9,1.7-2.9Z"/>
          <path class="st20" d="M152.5,381.4c-1.1.3,3.1-4.6,9.6-4.2s8.7,8.1,8.6,10.4c-.1,2.3-5.9-5.3-9.9-6.9-4.1-1.6-8.3.6-8.3.6h0Z"/>
          <path class="st20" d="M234.5,386c-1.1.3,3.1-4.6,9.6-4.2,6.5.5,8.7,8.1,8.6,10.4-.1,2.3-5.9-5.3-9.9-6.9-4.1-1.6-8.3.6-8.3.6h0Z"/>
          <path class="st9" d="M208.9,538.8c-1.2-2.7-10.3-15.3-21.5-16.8-11.1-1.5-94.9-12.3-99.5-10.6s-5,11.4-5,11.4l125.9,16.1h.1Z"/>
          <path class="st9" d="M89,532.9c-1.5-1.1-.9-5.9,2.3-6.2,3.2-.2,114.1,12.9,117.4,14.2,3.3,1.3,2.7,8.1,2.7,8.1l-122.4-16.2h0Z"/>
          <path class="st9" d="M234.9,523.1s-10.5-14.3-10.8-16.3,11.5-16.1,20.8-41.3c9.3-25.3,17.7-58.4,17.7-58.4,0,0,12.5,5.6,10.8,17.3-1.7,11.8-25.9,77.3-38.5,98.7Z"/>
          <path class="st9" d="M232.4,529.2l4.7,9.1s10.3-6.7,18.8-30c8.4-23.3,25.2-81.8,25.4-85.4.1-3.7-3.6-6.7-3.6-6.7,0,0-23.2,76.3-29.1,89.2-5.9,12.8-16.1,24-16.1,24v-.2h0Z"/>
          <path class="st76" d="M236.2,483.7c-7,13.5-12.4,21.1-12.4,21.1-11.2,17.4-29.1,17.9-29.1,17.9l-108.9-13.5c-2.1-1.5-3.8-3-5.1-4.5,0,0,14.1,6.7,68.4,12.1,54.3,5.4,63.1-2.3,69.2-7.5,5.9-5.1,17.2-24.4,17.9-25.6h0Z"/>
          <path class="st76" d="M215.8,423s-.1,5.5,4.1,6.7c4.3,1.2,6.9-7,6.9-7,0,0-1.8,5.1-6.1,5.6s-4.9-5.3-4.9-5.3h0Z"/>
          <path class="st76" d="M135.8,416.4s.8,5.1,4.8,5.4,6.1-4.6,6.1-4.6c0,0-2.2,5.9-6.1,5.7-4.7-.3-4.8-6.4-4.8-6.4h0Z"/>
          <path class="st16" d="M100.2,540.8c-4.5-5.7-14.6-29.3-12.2-29.4,2.4-.2,44.2.9,60.8,11.4s16,28.1,9.7,27.9c-6.4-.3-58.2-9.8-58.2-9.8h-.1Z"/>
        </g>
        <g>
          <path class="st56" d="M310,57.7c-8.5.3,8.6,55.4,28.1,72,19.4,16.5,124.1,65.5,174.2,109.6,50,44.1-6.3-54.8-42.9-91.1s-141.8-91-159.4-90.5h0Z"/>
          <path class="st57" d="M527.7,247.5c-3.2-1.4-7.8-4.7-14-10.2-50-44.1-155-95.7-174.4-112.2-7.7-6.5-14.9-18.6-20.4-31h0c-8.4-18.9-12.5-38.2-7.4-38.4,17.6-.6,117,47.6,159.4,90.5,31.7,32.1,79,111.5,56.9,101.4h-.1Z"/>
          <path class="st9" d="M330.1,95.1c-8.8-2.7,5.3,23.2,28.7,41.5,23.4,18.2,55.9,27.5,62.7,25.2,6.8-2.2-6.2-20.5-20.6-31.8-14.3-11.3-70.9-34.9-70.9-34.9h0Z"/>
          <path class="st9" d="M317,62.6c-6.8,5.5,27.6,33.7,67.6,52.3,40.1,18.6,15.8-16.4-9.7-31.3-25.4-15-58-21-58-21,0,0,.1,0,.1,0Z"/>
          <g>
            <path class="st20" d="M348.9,118.8s8.8,0,27.5,8.7c18.8,8.8,20.9,19.6,20.9,19.6,0,0-7.9.2-26.2-9.3-17.2-8.9-22.2-19-22.2-19h0Z"/>
            <path class="st30" d="M393.1,139.7c-2.8,4.6-13.9,1.1-23.6-4.7-9.9-5.9-18.4-14-15.3-18.4,3.7-5.2,13.9-2.7,23,2.5,10.3,5.9,19.2,15.2,15.9,20.6Z"/>
            <path class="st29" d="M369.5,135c-9.9-5.9-18.4-14-15.3-18.4,3.7-5.2,13.9-2.7,23,2.5.4.6,3.7,6.6-7.7,15.9Z"/>
            <path class="st28" d="M370.6,120.8c-3.1-.7,2.5,5.9,10.5,8.9,8,3,.8-6.2-10.5-8.9Z"/>
            <path class="st78" d="M364.2,118.4c-3.3,1.1-.2,2.3,1.8,2.4,2.1,0-.7-2.8-1.8-2.4Z"/>
            <path class="st19" d="M354.1,121c-.5-2.6,12.2,2.6,24.6,10.2,12.4,7.6,12.3,9.8,11.1,10.5-1.2.8-10.1-.6-20.3-6.7-10.2-6.1-15.4-14-15.4-14h0Z"/>
          </g>
          <g>
            <path class="st20" d="M412.3,153.4s8.7-.2,27.6,8.3,21.2,19.3,21.2,19.3c0,0-7.9.3-26.3-8.9-17.3-8.7-22.5-18.6-22.5-18.6h0Z"/>
            <path class="st32" d="M456.8,173.6c-2.7,4.6-13.8,1.3-23.6-4.4-10-5.7-18.6-13.8-15.5-18.2,3.6-5.3,13.9-2.9,23,2.2,10.4,5.7,19.4,14.9,16.2,20.3h-.1Z"/>
            <path class="st37" d="M433.2,169.3c-10-5.7-18.6-13.8-15.5-18.2,3.6-5.3,13.9-2.9,23,2.2.4.6,3.8,6.5-7.5,16Z"/>
            <path class="st28" d="M434.1,155c-3.1-.7,2.6,5.8,10.7,8.7s.7-6.2-10.7-8.7Z"/>
            <path class="st78" d="M427.6,152.7c-3.3,1.1-.2,2.3,1.9,2.4,2.1,0-.8-2.7-1.9-2.4Z"/>
            <path class="st19" d="M417.6,155.4c-.5-2.6,12.2,2.4,24.7,9.8,12.6,7.4,12.5,9.6,11.3,10.4-1.2.8-10.1-.4-20.4-6.4s-15.6-13.8-15.6-13.8Z"/>
          </g>
          <g>
            <path class="st20" d="M472.2,189.5s8.7,1,26.2,12.1,18.2,22.1,18.2,22.1c0,0-7.8-.8-24.7-12.6-15.9-11-19.6-21.7-19.6-21.7h-.1Z"/>
            <path class="st34" d="M513.4,215.9c-3.4,4.2-13.9-.7-22.8-7.7-9.1-7.1-16.4-16.3-12.8-20.2,4.4-4.7,14.1-.9,22.5,5.5,9.4,7.2,17.1,17.5,13.1,22.4Z"/>
            <path class="st36" d="M490.7,208.2c-9.1-7.1-16.4-16.3-12.8-20.2,4.4-4.7,14.1-.9,22.5,5.5.3.6,2.8,7-9.7,14.7Z"/>
            <path class="st28" d="M493.6,194.2c-3-1.1,1.7,6.1,9.3,10.1s1.6-6-9.3-10.1Z"/>
            <path class="st78" d="M487.5,191c-3.4.6-.5,2.3,1.5,2.6s-.4-2.8-1.5-2.6Z"/>
            <path class="st19" d="M477.2,192.3c-.2-2.6,11.7,4.1,23.1,13.3,11.4,9.1,11,11.3,9.7,11.9-1.3.6-9.9-1.9-19.3-9.2s-13.5-15.9-13.5-15.9h0Z"/>
          </g>
          <g>
            <path class="st20" d="M327.3,73.3s8.4,0,26.4,8.3c18,8.5,20,18.8,20,18.8,0,0-7.6.2-25.1-8.9-16.5-8.6-21.3-18.2-21.3-18.2Z"/>
            <path class="st38" d="M369.8,93.4c-2.7,4.4-13.3,1-22.6-4.5-9.5-5.6-17.6-13.5-14.7-17.7,3.6-5,13.3-2.6,22.1,2.5,9.9,5.7,18.4,14.6,15.2,19.7Z"/>
            <path class="st35" d="M347.2,88.8c-9.5-5.6-17.6-13.5-14.7-17.7,3.6-5,13.3-2.6,22.1,2.5.3.6,3.5,6.3-7.4,15.2Z"/>
            <path class="st28" d="M348.2,75.2c-3-.7,2.4,5.6,10.1,8.5s.8-5.9-10.1-8.5Z"/>
            <path class="st78" d="M342.1,72.9c-3.2,1-.2,2.2,1.8,2.3,2,0-.7-2.6-1.8-2.3Z"/>
            <path class="st19" d="M332.4,75.3c-.5-2.5,11.7,2.5,23.6,9.8s11.8,9.4,10.7,10.1c-1.2.7-9.7-.6-19.5-6.4-9.8-5.9-14.8-13.5-14.8-13.5h0Z"/>
          </g>
          <g>
            <path class="st20" d="M384.8,103.7s8.4-.2,26.5,8,20.3,18.5,20.3,18.5c0,0-7.6.3-25.2-8.6-16.6-8.3-21.6-17.9-21.6-17.9h0Z"/>
            <path class="st31" d="M427.6,123.1c-2.6,4.4-13.3,1.2-22.7-4.2-9.6-5.5-17.8-13.2-14.9-17.5,3.5-5.1,13.3-2.8,22.1,2.1,9.9,5.5,18.6,14.3,15.5,19.5h0Z"/>
            <path class="st33" d="M404.9,118.9c-9.6-5.5-17.8-13.2-14.9-17.5,3.5-5.1,13.3-2.8,22.1,2.1.4.6,3.6,6.3-7.2,15.3h0Z"/>
            <path class="st28" d="M405.8,105.3c-3-.7,2.5,5.6,10.2,8.4,7.8,2.8.7-5.9-10.2-8.4Z"/>
            <path class="st78" d="M399.6,103c-3.2,1.1-.2,2.2,1.8,2.3s-.7-2.6-1.8-2.3Z"/>
            <path class="st19" d="M389.9,105.7c-.5-2.5,11.7,2.3,23.7,9.4s12,9.2,10.8,10-9.7-.4-19.6-6.1-15-13.3-15-13.3h.1Z"/>
          </g>
          <g>
            <path class="st20" d="M440,135.3s8.3,1,25.1,11.7c16.8,10.7,17.5,21.2,17.5,21.2,0,0-7.5-.8-23.8-12.1-15.2-10.6-18.8-20.8-18.8-20.8h0Z"/>
            <path class="st39" d="M479.6,160.7c-3.2,4-13.3-.7-21.9-7.4-8.7-6.8-15.8-15.6-12.3-19.4,4.2-4.5,13.6-.8,21.6,5.3,9.1,6.9,16.4,16.8,12.6,21.5h0Z"/>
            <path class="st40" d="M457.7,153.3c-8.7-6.8-15.8-15.6-12.3-19.4,4.2-4.5,13.6-.8,21.6,5.3.3.6,2.7,6.7-9.3,14.1h0Z"/>
            <path class="st28" d="M460.5,139.9c-2.9-1.1,1.6,5.9,8.9,9.7s1.5-5.8-8.9-9.7Z"/>
            <path class="st78" d="M454.7,136.8c-3.3.6-.5,2.2,1.4,2.5,2,.3-.3-2.7-1.4-2.5Z"/>
            <path class="st19" d="M444.8,138c-.2-2.5,11.2,4,22.2,12.7,10.9,8.8,10.5,10.8,9.3,11.4-1.3.6-9.5-1.8-18.5-8.9-9-7.1-12.9-15.3-12.9-15.3h-.1Z"/>
          </g>
          <path class="st16" d="M320.2,88.1s63.9,24.3,112.9,52.9,69.2,48.2,69.2,48.2c0,0-71.7-56.8-182.1-101.1h0Z"/>
          <path class="st78" d="M324.4,90.1s76.5,36.4,100.5,49.7,43.4,25.8,43.4,25.8c0,0-44.2-29.7-90.5-51.8-46.3-22.1-53.4-23.7-53.4-23.7Z"/>
          <path class="st78" d="M527.7,247.5c-3.2-1.4-7.8-4.7-14-10.2-50-44.1-155-95.7-174.4-112.2-7.7-6.5-14.9-18.6-20.4-31,1.1,1.6,18.4,27.1,32.8,37.7,14.8,10.9,119.8,71.1,143.6,88.9,23.9,17.8,32.4,26.8,32.4,26.8h0Z"/>
          <path class="st12" d="M346,135.4s4.1-1.8,16.2,4.8,73.5,42.6,87.4,52.3c13.9,9.7-51.8-27-70.1-37.4-18.3-10.4-33.6-19.6-33.6-19.6h.1Z"/>
          <path class="st12" d="M330.5,121.2c-.7-7.1-8.7-20.6-13.3-31.1-4.6-10.4-7.3-23.4-7.3-23.4,0,0,.6,24.2,20.6,54.4h0Z"/>
        </g>
        <g>
          <path class="st41" d="M201.9,295.3h0c7.6,18.1,3.9,31.5,3.9,31.5l-3.1-.5c-3.2,5.5-15.7,8.6-30.9,6.4h0c-6.3-.9-13.1-2.7-19.9-5.6-23.1-10-23.7-30.5-30.1-64.1-6.3-33.6,40.2-18,65.6,10.2,7,7.7,11.5,15.3,14.4,22.1h.1Z"/>
          <path class="st11" d="M133.6,308.9c-6.2-16.3,20.9-35.1,44.7-20.6,23.9,14.5-5.1-21-24.8-27.5s-27.6,6.9-28.8,9c-1.2,2.1-2.1-8.8,11.1-14.6,13.2-5.8,41.3,15.1,55.7,34.2,14.4,19.2,13.8,28.2,13.8,28.2,0,0,1.8-16.3-19.8-39.2-21.6-22.8-46.2-32.2-56.1-30.5s-9.2,11.8-6.2,22.1c3,10.3,3.7,25.2,5.7,30s4.6,8.8,4.6,8.8h.1Z"/>
          <path class="st27" d="M202,295.4c7.6,18.1,3.9,31.4,3.9,31.4l-3.1-.5c-3.2,5.5-15.7,8.6-30.9,6.4,7.9.6,26.6-8.2,28.6-9.9,2-1.8-6-11.1-9.7-22.3-3.7-11.2,9.2,1,12.6,8.9,3.4,7.7-1.2-13.3-1.4-14h0Z"/>
          <path class="st12" d="M132.1,307.7s-4.7-14.7-2.4-28.8c2.3-14.1-3.4-17-5.7-21.2-2.3-4.2-.3-8.8-.3-8.8,0,0-3.9,2.5-1.4,16.3,2.5,13.8,4.9,28.6,6.7,35,1.7,6.4,3.2,7.6,3.2,7.6h-.1Z"/>
          <path class="st14" d="M153.4,248.7c-8.6-.7,7.9,26.1,16.4,32.8s22.7,11,30.2,22.4c7.6,11.5,1.9-13.3-16-34.4s-30.7-20.8-30.7-20.8h.1Z"/>
          <path class="st12" d="M167.1,331.9s12,1.2,21.6-1.2c9.6-2.3,14.1-4.4,14.1-4.4,0,0-1.5,4.3-11.5,6.2-10,1.9-24.2-.6-24.2-.6h0Z"/>
        </g>
        <g>
          <path class="st44" d="M576.3,160.7c-18.2,13.1-60.6-2.7-67.8-3.8-2.9-.4-4.7-2-5.8-3.7-1.6-2.5-1.8-5.2-1.8-5.2-2-1.9-35.2-27.4-33.9-59.8.2-4.1,1.2-7.5,3-10.1,12-18.5,56.1-6.4,61.5-4.2,6.2,2.6-4.5,23.4-4.9,33.1,0,0,8.5-29.5,11.3-33s45.8,11.3,59.8,26.6c14,15.3-3.2,47-21.4,60.1h0Z"/>
          <path class="st11" d="M537.4,85.8c4.5-4,52.8,15.1,59.9,31.9,7.1,16.9-35.9,35-76.2,23.7s-49.7-37.3-47.1-49.2c2.6-11.8,52.5-9.3,54.5-6.6,2.1,2.8-3.3,24.7-3.3,24.7,0,0,8.2-21.1,12.1-24.5h.1Z"/>
          <path class="st27" d="M499.9,133.4c-9.2-4.1-3.3,12.4,10.7,21,14,8.7,51.6,11.5,66.9.1s-23.9-7.4-47.5-11.5c-23.5-4.1-30.1-9.7-30.1-9.7h0Z"/>
          <path class="st12" d="M537.8,74c1.3-1.8-1.6,11.1-6.2,21.4-4.5,10.3-6.3,15.7-6.3,15.7,0,0,8.7-32,12.5-37.1Z"/>
          <path class="st16" d="M505.7,155.8l-3-2.5c-1.6-2.5-1.8-5.2-1.8-5.2-2-1.9-35.2-27.4-33.9-59.8.2-4.1,1.2-7.5,3-10.1-2.8,7.8-.5,33.7,15.2,51.8,15.7,18.1,20.1,20.7,21.7,23.1,1.5,2.3-1.1,2.8-1.1,2.8h-.1Z"/>
          <path class="st13" d="M556.8,77.7c5.5,8.6-16,55.1-30.2,64.6-14.2,9.6-16,12.1-16,12.1,0,0,13.7-9.4,25.6-18.8,11.9-9.4,25.2-23.9,30-34.7s29.5,4.5,8.7,25.3c-25.9,26-55.8,26.8-60.1,28.9-4.2,2.1,26.4-.9,53.7-19.7,34.1-23.5,19.5-40.4,14.9-45s-26.6-12.8-26.6-12.8h0Z"/>
          <path class="st27" d="M476.1,74.4c-7.6,5,12.1,8.9,33.2,8.9s19.3-8.4,19.3-8.4c0,0-34.7-12.3-52.5-.5h0Z"/>
        </g>
        <g>
          <path class="st45" d="M528.7,408.3c1,1.8,0,9.4-1.5,12.6-5,11.2-39.1,22.1-52.9,6.8-7-7.7-4.5-18.4-1.2-23.3,8.9-13.8,46.7-12.3,55.6,3.9Z"/>
          <path class="st47" d="M473.1,404.4c-9.4,13.1,11.6,29,45.8,13.4,34.4-15.7-31.6-33.2-45.8-13.4h0Z"/>
          <path class="st42" d="M482.8,399.7c-1.6,1.9,30.7,13.7,35.9,15.5,5.2,1.7-7.3-6.1-17.2-10.3-9.9-4.1-18.7-5.2-18.7-5.2Z"/>
          <path class="st16" d="M477,430.2c-4-4.1-5.3-8.1-5.1-10.4.2-2.3,5.6,3.8,25.7,5.2,20.1,1.4,4.9,10.3-3.9,10.3s-16.7-5.1-16.7-5.1Z"/>
          <path class="st21" d="M482.7,420.9c-10.9-3.2,2.9-13.1,12.8-12.4s19.4,7.8,20,9.1c.6,1.4-15,8.5-32.8,3.3Z"/>
          <path class="st21" d="M482.7,398.2c-2,1.1,19.8,4.5,29,6.7s6.6-6.2-2.8-8.7c-9.4-2.5-21.7-.4-26.3,2h0Z"/>
          <path class="st16" d="M490.7,404.4c-9.9-5.1.5-3.9,8.2-.5s10.5,7.9,10.5,7.9l-18.7-7.4Z"/>
          <path class="st73" d="M472.8,416.8s9.1,6.6,20.4,6.6,28.3-6.9,28.3-6.9c0,0-10.6,6.5-28.2,8.1-17.7,1.6-20.5-7.8-20.5-7.8h0Z"/>
        </g>
        <g>
          <path class="st46" d="M441.7,520.4c-2.8,2.1-4,5.3-5.8,12.1-5,18.1,10.3,48.5,37.1,33.5,8.3-4.7,11.5-12.7,13-17.8,5.7-19.1-24.2-42.6-44.3-27.8h0Z"/>
          <path class="st43" d="M445.3,516.1c-17.5,12.9-3.4,58.7,29.5,42.7s-4-61.4-29.5-42.7Z"/>
          <path class="st48" d="M456.3,516.5c-1.3-.7,11.4,35.6,12.9,38s2.5-30.2-12.9-38Z"/>
          <path class="st12" d="M459.6,569c-4.8.2,10.3-7.6,14.5-9.9,4.3-2.4,8.4-4.5,8.4-4.5,0,0-2.4,13.5-22.9,14.4Z"/>
          <path class="st14" d="M438.8,556c1.3,2.3,5.5-1.6,3.4-5.7-2-4.1-4.6-7.8-4.5-17.6,0,0-6.1,1.9,1.1,23.3Z"/>
          <path class="st12" d="M457.2,520.5c0-3.5,8.8,5.4,10.3,13.3,1.5,7.9-.9,12.2-1.3,12.2s-9.1-25.5-9.1-25.5h.1Z"/>
          <path class="st76" d="M458.4,524.2s1.2,8,2.9,18.7c1.7,10.8,9.2,15.7,9.2,15.7l-12.2-34.5h.1Z"/>
          <path class="st76" d="M446.5,555.8s14.3,6.4,24.5,4.5c0,0-13.8,6.7-24.5-4.5Z"/>
        </g>
        <g>
          <path class="st49" d="M237.9,106.6c-16.9,8.1-11.5,21,8.4,35.8,20,14.9,29.6-22.1,29.7-32,0-9.9-21-12-38.1-3.8Z"/>
          <path class="st16" d="M229.7,117.2c-2.5,5.9,2.2,10.7,10.5,16.2,8.3,5.4.6-10.1,11.1-20.9,10.5-10.9,18.2-1.7,20.5-5.2,2.4-3.4-34.6-7.9-42.1,9.9h0Z"/>
          <path class="st21" d="M244.6,136.9c-1.8-2.4,16.1-1.1,23.5-11.2,7.4-10.1-4.6,20.3-12.7,18.8-8.2-1.5-10.8-7.6-10.8-7.6Z"/>
          <path class="st80" d="M260.5,111.8c-.8,3.2,3.6,4.5,6.2.4s-3.9-9.4-6.2-.4Z"/>
        </g>
        <g>
          <path class="st50" d="M545.9,335.7c-4.4-2.2,4.1-15.1,9.5-10.6,5.4,4.6-3.1,13.8-9.5,10.6Z"/>
          <path class="st16" d="M548.4,327.3c-1.7,3.4,4.8,4.1,6.4,2.7s.6-4-1.7-5-4.7,2.3-4.7,2.3Z"/>
          <path class="st21" d="M548.2,336.2c-5.1-.3,4.3-5.4,5.7-5.3s-.8,5.7-5.7,5.3Z"/>
          <path class="st80" d="M552.9,327c-1.2,2.5,0,3.2,1,1.2s-.7-1.9-1-1.2Z"/>
        </g>
        <g>
          <path class="st51" d="M203.8,99.2c6.3-3.2-5.8-21.7-13.6-15.2s4.4,19.8,13.6,15.2Z"/>
          <path class="st16" d="M200.2,87c2.4,4.8-6.9,5.9-9.2,3.8s-.9-5.7,2.5-7.1c3.3-1.4,6.7,3.3,6.7,3.3Z"/>
          <path class="st21" d="M200.6,99.8c7.3-.5-6.2-7.8-8.2-7.6-2,0,1.1,8.1,8.2,7.6Z"/>
          <path class="st80" d="M193.9,86.6c1.7,3.5,0,4.6-1.4,1.8-1.4-2.9.9-2.8,1.4-1.8Z"/>
        </g>
        <g>
          <path class="st52" d="M245.2,317.3c-22.8-13.4-19,37.6,12.7,39.9,31.7,2.3,13.5-24.5-12.7-39.9Z"/>
          <path class="st16" d="M246.3,349.2c-4.3,1.5-16.3-16.6-11.5-27.7,4.8-11.2,28.7,11,34.2,17.5s-.2,12.3-9.6,11.8,2.2-1.9-2.5-14.4c-4.8-12.5-16.7-15.3-19.9-12.7s4.1,18.3,10,13.1c5.8-5.2-.7,12.4-.7,12.4h0Z"/>
          <path class="st21" d="M247.7,353.1c-1.4-3.9,11.7-1.3,20.2-3,8.5-1.6,5.9,5.5-2,6.3s-18.1-3.4-18.1-3.4h0Z"/>
          <path class="st21" d="M262.8,335.9c-3.5,2.3,1.7,7.2,4.6,6.4,2.9-.8-3.8-6.9-4.6-6.4Z"/>
          <path class="st80" d="M237.5,336.2c3.9,5.1,8.7,1.6,4.1-7-4.7-8.6-7.9,1.9-4.1,7Z"/>
        </g>
        <path class="st79" d="M283.2,49.5c-17.9,1-12.1,21,1.8,34,14,13,10.5-34.7-1.8-34Z"/>
        <path class="st79" d="M546.6,203.8c-7.9,2,.6,23.2,9,26.5s14.8-32.4-9-26.5Z"/>
        <path class="st79" d="M290.5,556.4c-5.2,18.7,16.9,9,29.6-7.4,12.8-16.4-20.7-24.4-29.6,7.4Z"/>
        <g>
          <path class="st54" d="M158.4,611c-.5-.2-1.1-.5-1.8-.8h0c-6.6-3.6-20.4-15.3-46.6-18.9-29-4-30.9,14.9-49.3,10.7-.9-.2-1.6-.4-2.4-.7h0c-14.9-5.3-3.3-22.3,22.8-25.1,8.4-.9,13.4-2.1,15.3-3.7l.2-.2s.2-.2.2-.3v-.2c2-3.5-10.5-8.5-36.3-15.3-25.2-6.6-35.7-11.8-39.4-18.8h0c-2.2-4.1-2.1-8.7-1.4-14.5,1.9-16,33.5,19.9,44.8,13,11.4-6.9-30.9-30.8-48.6-54.1-17.7-23.2-1.9-39.7,14.5-40.3,16.4-.6,38.1,82.3,52.8,99.4s7.3-31.6,2.9-57.9c-4.3-26.3,19-6.9,29.4,14.7,10.4,21.5-14.4,40.5-11.8,61s23.7,27.8,25,18.6c1.2-9.2-9.3-33.8,5-47.2s22.3,33.3,15.5,49.4c-6.8,16.1,10.5,27,12.7,30.1,2.2,3-3.6,1.2-3.6,1.2h.1Z"/>
          <path class="st55" d="M162,609.8s-21.7-18.2-42.8-24.1c-21.2-5.8-38-2.8-47.7,3.5-9.7,6.3-10.7,5.8-11.2,5.6-.6-.2,12.8-8.6,25.1-11.8s23.9-.7,27.6.2-17.3-23.5-28.8-28.4-31.4-6.3-41.8-10.9c-10.4-4.6-13.4-7.9-12.1-9.4s12.3,8.3,28.1,12.7,19.6,4.9,22.6,3.8c3-1.1-7.2-22.5-30.4-48.5-23.2-26.1-31.2-44.8-31.2-47.2s14.3,25.8,34.1,48.5,29.1,45.2,30.5,48,12.3,9.3,12.9,9.9c.7.6,2.1-20.2,3.6-36.2s-2.7-43.2-1.9-44.2,4.3,32,3.3,48.5c-.9,16.6-4.3,30.9-3.8,33.3.5,2.4,15.4,17.1,18.5,19.6s16.1,6.7,26.1,12.1c10.1,5.4,19.3,14.9,19.3,14.9h0Z"/>
          <path class="st18" d="M87.7,491.9c1.9-3.5,6.8,20.7,14.3,32.3,7.5,11.6-1.6,33.5-1.4,38.5s-7.2,0-9.9-7.6,1.7-10.3,2.2-25.6-5.2-37.7-5.2-37.7h0Z"/>
          <path class="st18" d="M129.7,583.4c-2-3.3.6-8-1.3-22.9-1.8-14.9,16.7-2.9,19.6,5.5,2.9,8.4-4,22.4-.7,28.9,3.4,6.5-17.7-11.6-17.7-11.6h0Z"/>
          <path class="st53" d="M142.7,594.9c-9.6-11.4-6.6-52.4-5.4-58.8,1.3-6.4-3.1,11.1-2,29.9,1.1,18.8,5.3,27.9,5.3,27.9l2.1,1.1h0Z"/>
          <path class="st18" d="M79.6,578.3c-6.8.9,8.9,8.6,23.2,9s4-9.3,0-12.8c-4-3.4-16.7,3-23.2,3.8Z"/>
          <path class="st20" d="M96.9,571.7c2-3.5-10.5-8.5-36.3-15.3-25.2-6.6-35.7-11.8-39.4-18.8h0c3.4,4.3,21.5,15.1,53.4,20.5,26.5,4.5,24,11.3,22.3,13.5h0Z"/>
          <path class="st20" d="M156.6,610.2c-6.6-3.6-20.4-15.3-46.6-18.9-29-4-30.9,14.9-49.3,10.7-.9-.2-1.6-.4-2.4-.7,10,2.4,17.4-2.8,29.4-9.5s40.4,1.5,52.1,6.8c11.3,5.2,16.5,11.3,16.8,11.6h0Z"/>
        </g>
      </g>
    </g>
  </g>
</svg>