<?xml version="1.0" encoding="UTF-8"?>
<svg xmlns="http://www.w3.org/2000/svg" xmlns:xlink="http://www.w3.org/1999/xlink" version="1.1" viewBox="0 0 631.1 687.8">
  <!-- Generator: Adobe Illustrator 30.2.1, SVG Export Plug-In . SVG Version: 2.1.1 Build 1)  -->
  <defs>
    <style>
      .st0, .st1 {
        fill: #ef2795;
      }

      .st0, .st1, .st2, .st3, .st4, .st5, .st6, .st7, .st8, .st9, .st10, .st11, .st12, .st13, .st14, .st15, .st16, .st17, .st18 {
        mix-blend-mode: multiply;
      }

      .st0, .st4, .st12, .st16 {
        opacity: .7;
      }

      .st1, .st3, .st7, .st11, .st17 {
        opacity: .3;
      }

      .st19 {
        fill: #ff0054;
      }

      .st2, .st9, .st13, .st18 {
        opacity: .2;
      }

      .st20 {
        fill: #ffa6e8;
      }

      .st3 {
        fill: #ff90c2;
      }

      .st21 {
        fill: url(#_Безымянный_градиент_951);
      }

      .st22 {
        fill: url(#_Безымянный_градиент_571);
      }

      .st23 {
        fill: url(#_Безымянный_градиент_110);
      }

      .st24 {
        fill: url(#_Безымянный_градиент_155);
      }

      .st25 {
        fill: url(#_Безымянный_градиент_145);
      }

      .st26 {
        fill: url(#_Безымянный_градиент_120);
      }

      .st27 {
        fill: url(#_Безымянный_градиент_130);
      }

      .st28 {
        fill: url(#_Безымянный_градиент_339);
      }

      .st29 {
        fill: url(#_Безымянный_градиент_349);
      }

      .st30 {
        fill: url(#_Безымянный_градиент_362);
      }

      .st31 {
        fill: url(#_Безымянный_градиент_442);
      }

      .st32 {
        fill: url(#_Безымянный_градиент_441);
      }

      .st33 {
        fill: url(#_Безымянный_градиент_401);
      }

      .st34 {
        fill: url(#_Безымянный_градиент_295);
      }

      .st35 {
        fill: url(#_Безымянный_градиент_225);
      }

      .st36 {
        fill: url(#_Безымянный_градиент_243);
      }

      .st37 {
        isolation: isolate;
      }

      .st38 {
        fill: #f4ebff;
      }

      .st39 {
        fill: url(#_Безымянный_градиент_98);
        opacity: .6;
      }

      .st40 {
        fill: url(#_Безымянный_градиент_44);
      }

      .st40, .st41 {
        opacity: .9;
      }

      .st42 {
        fill: #fff0ff;
      }

      .st4, .st5, .st6 {
        fill: #c20f95;
      }

      .st5 {
        opacity: .4;
      }

      .st6, .st8, .st10, .st14, .st15, .st43 {
        opacity: .5;
      }

      .st44 {
        fill: #ff7fd6;
      }

      .st45, .st46, .st47, .st43 {
        mix-blend-mode: soft-light;
      }

      .st45, .st43 {
        fill: #ffe8f1;
      }

      .st46 {
        fill: #ffc9f1;
      }

      .st47, .st48 {
        fill: #fff;
      }

      .st49 {
        fill: #e33b95;
      }

      .st7, .st8 {
        fill: #920f95;
      }

      .st50 {
        fill: url(#_Безымянный_градиент_1101);
      }

      .st51 {
        fill: url(#_Безымянный_градиент_1104);
      }

      .st52 {
        fill: url(#_Безымянный_градиент_1102);
      }

      .st53 {
        fill: url(#_Безымянный_градиент_1105);
      }

      .st54 {
        fill: url(#_Безымянный_градиент_1103);
      }

      .st55 {
        fill: url(#_Безымянный_градиент_1551);
      }

      .st56 {
        fill: url(#_Безымянный_градиент_1451);
      }

      .st57 {
        fill: url(#_Безымянный_градиент_1301);
      }

      .st58 {
        fill: url(#_Безымянный_градиент_1201);
      }

      .st59 {
        fill: url(#_Безымянный_градиент_1202);
      }

      .st60 {
        fill: url(#_Безымянный_градиент_1208);
      }

      .st61 {
        fill: url(#_Безымянный_градиент_1207);
      }

      .st62 {
        fill: url(#_Безымянный_градиент_1209);
      }

      .st63 {
        fill: url(#_Безымянный_градиент_1203);
      }

      .st64 {
        fill: url(#_Безымянный_градиент_1204);
      }

      .st65 {
        fill: url(#_Безымянный_градиент_1205);
      }

      .st66 {
        fill: url(#_Безымянный_градиент_1206);
      }

      .st67 {
        fill: url(#_Безымянный_градиент_2431);
      }

      .st68 {
        fill: url(#_Безымянный_градиент_2251);
      }

      .st69 {
        fill: url(#_Безымянный_градиент_2252);
      }

      .st70 {
        fill: url(#_Безымянный_градиент_2253);
      }

      .st71 {
        fill: url(#_Безымянный_градиент_2254);
      }

      .st72 {
        fill: url(#_Безымянный_градиент_2256);
      }

      .st73 {
        fill: url(#_Безымянный_градиент_2255);
      }

      .st74 {
        fill: url(#_Безымянный_градиент_3395);
      }

      .st75 {
        fill: url(#_Безымянный_градиент_3394);
      }

      .st76 {
        fill: url(#_Безымянный_градиент_3393);
      }

      .st77 {
        fill: url(#_Безымянный_градиент_3391);
      }

      .st78 {
        fill: url(#_Безымянный_градиент_3392);
      }

      .st79 {
        fill: url(#_Безымянный_градиент_3622);
      }

      .st80 {
        fill: url(#_Безымянный_градиент_3621);
      }

      .st81 {
        fill: url(#_Безымянный_градиент_3491);
      }

      .st9, .st10 {
        fill: #6029b1;
      }

      .st11 {
        fill: #ff0f95;
      }

      .st12 {
        fill: #e70f95;
      }

      .st13 {
        fill: #ef33b1;
      }

      .st14 {
        fill: #c20095;
      }

      .st15, .st16 {
        fill: #de0f95;
      }

      .st17 {
        fill: #c290c2;
      }

      .st82 {
        fill: url(#_Безымянный_градиент_40);
      }

      .st83 {
        fill: url(#_Безымянный_градиент_11);
      }

      .st84 {
        fill: url(#_Безымянный_градиент_15);
      }

      .st85 {
        fill: url(#_Безымянный_градиент_57);
      }

      .st86 {
        fill: url(#_Безымянный_градиент_95);
      }

      .st87 {
        fill: url(#_Безымянный_градиент_78);
      }

      .st88 {
        fill: #ff40bd;
      }

      .st18 {
        fill: #ff4eb1;
      }

      .st41 {
        fill: url(#_Безымянный_градиент_100);
      }

      .st89 {
        fill: #ecd4ff;
      }
    </style>
    <linearGradient id="_Безымянный_градиент_362" data-name="Безымянный градиент 362" x1="61.2" y1="208.7" x2="301" y2="208.7" gradientUnits="userSpaceOnUse">
      <stop offset="0" stop-color="#7772ff"/>
      <stop offset=".5" stop-color="#9883ff"/>
      <stop offset="1" stop-color="#c49aff"/>
    </linearGradient>
    <linearGradient id="_Безымянный_градиент_339" data-name="Безымянный градиент 339" x1="225.2" y1="303.5" x2="225.2" y2="168.7" gradientUnits="userSpaceOnUse">
      <stop offset="0" stop-color="#ffccfe"/>
      <stop offset=".6" stop-color="#ffc1f6"/>
      <stop offset="1" stop-color="#ffb8f0"/>
    </linearGradient>
    <linearGradient id="_Безымянный_градиент_3391" data-name="Безымянный градиент 339" x1="264.6" y1="260.3" x2="264.6" y2="162.8" xlink:href="#_Безымянный_градиент_339"/>
    <linearGradient id="_Безымянный_градиент_3621" data-name="Безымянный градиент 362" x1="337.3" y1="232.1" x2="570" y2="232.1" gradientTransform="translate(-93.9 266.9) rotate(-17.1)" xlink:href="#_Безымянный_градиент_362"/>
    <linearGradient id="_Безымянный_градиент_3392" data-name="Безымянный градиент 339" x1="489.8" y1="363.3" x2="489.8" y2="171.3" gradientTransform="translate(-93.9 266.9) rotate(-17.1)" xlink:href="#_Безымянный_градиент_339"/>
    <linearGradient id="_Безымянный_градиент_3393" data-name="Безымянный градиент 339" x1="504" y1="252.3" x2="504" y2="234.4" gradientTransform="translate(-93.9 266.9) rotate(-17.1)" xlink:href="#_Безымянный_градиент_339"/>
    <linearGradient id="_Безымянный_градиент_57" data-name="Безымянный градиент 57" x1="366.4" y1="479.4" x2="370.8" y2="429.4" gradientTransform="translate(-77.7 112) rotate(-10)" gradientUnits="userSpaceOnUse">
      <stop offset="0" stop-color="#5852db"/>
      <stop offset=".4" stop-color="#6839dd"/>
      <stop offset=".7" stop-color="#7526e0"/>
      <stop offset="1" stop-color="#7a1fe1"/>
    </linearGradient>
    <linearGradient id="_Безымянный_градиент_40" data-name="Безымянный градиент 40" x1="366.9" y1="471.5" x2="372" y2="412.4" gradientTransform="translate(-77.7 112) rotate(-10)" gradientUnits="userSpaceOnUse">
      <stop offset="0" stop-color="#7772ff"/>
      <stop offset=".2" stop-color="#826aff"/>
      <stop offset=".7" stop-color="#955eff"/>
      <stop offset="1" stop-color="#9d5aff"/>
    </linearGradient>
    <linearGradient id="_Безымянный_градиент_401" data-name="Безымянный градиент 40" x1="367.7" y1="233.4" x2="373.4" y2="167.9" xlink:href="#_Безымянный_градиент_40"/>
    <linearGradient id="_Безымянный_градиент_571" data-name="Безымянный градиент 57" x1="365.6" y1="260.4" x2="372.7" y2="179" xlink:href="#_Безымянный_градиент_57"/>
    <linearGradient id="_Безымянный_градиент_100" data-name="Безымянный градиент 100" x1="370.7" y1="441.3" x2="370.7" y2="195.7" gradientTransform="translate(-77.7 112) rotate(-10)" gradientUnits="userSpaceOnUse">
      <stop offset="0" stop-color="#ffe3fe"/>
      <stop offset="1" stop-color="#fdd6ff"/>
    </linearGradient>
    <linearGradient id="_Безымянный_градиент_44" data-name="Безымянный градиент 44" x1="370.7" y1="565" x2="370.7" y2="195.2" gradientTransform="translate(-77.7 112) rotate(-10)" gradientUnits="userSpaceOnUse">
      <stop offset="0" stop-color="#ffccfe"/>
      <stop offset="0" stop-color="#ffcdfe"/>
      <stop offset=".3" stop-color="#ffd4fe"/>
      <stop offset="1" stop-color="#ffd7ff"/>
    </linearGradient>
    <linearGradient id="_Безымянный_градиент_98" data-name="Безымянный градиент 98" x1="370.7" y1="565" x2="370.7" y2="195.2" gradientTransform="translate(-77.7 112) rotate(-10)" gradientUnits="userSpaceOnUse">
      <stop offset=".5" stop-color="#ffccfe"/>
      <stop offset=".6" stop-color="#fac2fe"/>
      <stop offset=".8" stop-color="#eda9fe"/>
      <stop offset="1" stop-color="#d981fe"/>
      <stop offset="1" stop-color="#d981ff"/>
    </linearGradient>
    <linearGradient id="_Безымянный_градиент_110" data-name="Безымянный градиент 110" x1="367.3" y1="334.3" x2="367.3" y2="253.4" gradientTransform="translate(-77.7 112) rotate(-10)" gradientUnits="userSpaceOnUse">
      <stop offset="0" stop-color="#ed006f"/>
      <stop offset=".3" stop-color="#e5004f"/>
      <stop offset=".4" stop-color="#e1003f"/>
      <stop offset=".6" stop-color="#ca0038"/>
      <stop offset=".8" stop-color="#b70033"/>
      <stop offset="1" stop-color="#b00031"/>
    </linearGradient>
    <linearGradient id="_Безымянный_градиент_95" data-name="Безымянный градиент 95" x1="364.8" y1="292" x2="367.8" y2="257.9" gradientTransform="translate(-77.7 112) rotate(-10)" gradientUnits="userSpaceOnUse">
      <stop offset="0" stop-color="#ff2d89"/>
      <stop offset=".5" stop-color="#ff3991"/>
      <stop offset="1" stop-color="#ff4196"/>
    </linearGradient>
    <linearGradient id="_Безымянный_градиент_1101" data-name="Безымянный градиент 110" x1="370.7" y1="435.8" x2="370.7" y2="363.9" xlink:href="#_Безымянный_градиент_110"/>
    <linearGradient id="_Безымянный_градиент_951" data-name="Безымянный градиент 95" x1="358.9" y1="448.3" x2="366.8" y2="357.9" xlink:href="#_Безымянный_градиент_95"/>
    <linearGradient id="_Безымянный_градиент_78" data-name="Безымянный градиент 78" x1="370.1" y1="367.8" x2="370.1" y2="349.9" gradientTransform="translate(-77.7 112) rotate(-10)" gradientUnits="userSpaceOnUse">
      <stop offset="0" stop-color="#de0031"/>
      <stop offset=".2" stop-color="#df0038"/>
      <stop offset=".6" stop-color="#e4004b"/>
      <stop offset="1" stop-color="#ec006c"/>
      <stop offset="1" stop-color="#ed006f"/>
    </linearGradient>
    <linearGradient id="_Безымянный_градиент_120" data-name="Безымянный градиент 120" x1="93.1" y1="512.5" x2="273.3" y2="512.5" gradientTransform="translate(59.9 -46.4) rotate(6.1)" gradientUnits="userSpaceOnUse">
      <stop offset="0" stop-color="#ff5690"/>
      <stop offset="0" stop-color="#ff5690"/>
      <stop offset=".1" stop-color="#ff66a2"/>
      <stop offset=".3" stop-color="#ff71ae"/>
      <stop offset=".5" stop-color="#ff78b5"/>
      <stop offset="1" stop-color="#ff7ab8"/>
    </linearGradient>
    <linearGradient id="_Безымянный_градиент_130" data-name="Безымянный градиент 130" x1="182.6" y1="583.5" x2="182.6" y2="436.5" gradientTransform="translate(59.9 -46.4) rotate(6.1)" gradientUnits="userSpaceOnUse">
      <stop offset="0" stop-color="#f93d8d"/>
      <stop offset=".2" stop-color="#f73589"/>
      <stop offset=".6" stop-color="#f3227f"/>
      <stop offset="1" stop-color="#ed016f"/>
      <stop offset="1" stop-color="#ed006f"/>
    </linearGradient>
    <linearGradient id="_Безымянный_градиент_1201" data-name="Безымянный градиент 120" x1="84.4" y1="504.3" x2="272" y2="504.3" xlink:href="#_Безымянный_градиент_120"/>
    <linearGradient id="_Безымянный_градиент_1301" data-name="Безымянный градиент 130" x1="84.4" y1="499.6" x2="266.3" y2="499.6" xlink:href="#_Безымянный_градиент_130"/>
    <linearGradient id="_Безымянный_градиент_1202" data-name="Безымянный градиент 120" x1="73.4" y1="495.6" x2="264.8" y2="495.6" xlink:href="#_Безымянный_градиент_120"/>
    <linearGradient id="_Безымянный_градиент_441" data-name="Безымянный градиент 44" x1="161.6" y1="619.8" x2="161.6" y2="424.5" gradientTransform="translate(59.9 -46.4) rotate(6.1)" xlink:href="#_Безымянный_градиент_44"/>
    <linearGradient id="_Безымянный_градиент_155" data-name="Безымянный градиент 155" x1="159.8" y1="509.7" x2="159.8" y2="492.8" gradientTransform="translate(111.8 -111.1) rotate(14.4)" gradientUnits="userSpaceOnUse">
      <stop offset="0" stop-color="#e2388d"/>
      <stop offset=".2" stop-color="#da3189"/>
      <stop offset=".6" stop-color="#c71e7f"/>
      <stop offset="1" stop-color="#a6006f"/>
      <stop offset="1" stop-color="#a6006f"/>
    </linearGradient>
    <linearGradient id="_Безымянный_градиент_1551" data-name="Безымянный градиент 155" x1="248.6" y1="517.2" x2="248.6" y2="500.4" gradientTransform="translate(129.3 -138.6) rotate(16.6)" xlink:href="#_Безымянный_градиент_155"/>
    <linearGradient id="_Безымянный_градиент_145" data-name="Безымянный градиент 145" x1="223.7" y1="479" x2="223.7" y2="402" gradientTransform="translate(59.9 -46.4) rotate(6.1)" gradientUnits="userSpaceOnUse">
      <stop offset="0" stop-color="#873fff"/>
      <stop offset="1" stop-color="#a772ff"/>
    </linearGradient>
    <linearGradient id="_Безымянный_градиент_1451" data-name="Безымянный градиент 145" x1="142.9" y1="476.6" x2="142.9" y2="406.4" xlink:href="#_Безымянный_градиент_145"/>
    <linearGradient id="_Безымянный_градиент_1203" data-name="Безымянный градиент 120" x1="339.6" y1="282.8" x2="339.6" y2="185.7" gradientTransform="translate(268.2 -222) rotate(34.9)" xlink:href="#_Безымянный_градиент_120"/>
    <linearGradient id="_Безымянный_градиент_15" data-name="Безымянный градиент 15" x1="148.1" y1="352.7" x2="432.5" y2="154.6" gradientTransform="translate(268.2 -222) rotate(34.9)" gradientUnits="userSpaceOnUse">
      <stop offset="0" stop-color="#ffccfe"/>
      <stop offset=".6" stop-color="#ffeffe"/>
      <stop offset="1" stop-color="#fff"/>
    </linearGradient>
    <linearGradient id="_Безымянный_градиент_1204" data-name="Безымянный градиент 120" x1="290.4" y1="243.5" x2="290.4" y2="216.3" gradientTransform="translate(242 -215.5) rotate(31.2)" xlink:href="#_Безымянный_градиент_120"/>
    <linearGradient id="_Безымянный_градиент_225" data-name="Безымянный градиент 225" x1="278.6" y1="242.9" x2="281" y2="215.7" gradientTransform="translate(242 -215.5) rotate(31.2)" gradientUnits="userSpaceOnUse">
      <stop offset="0" stop-color="#de0063"/>
      <stop offset=".4" stop-color="#e50065"/>
      <stop offset=".9" stop-color="#f8006c"/>
      <stop offset="1" stop-color="#ff006f"/>
    </linearGradient>
    <linearGradient id="_Безымянный_градиент_1205" data-name="Безымянный градиент 120" x1="362.5" y1="236.4" x2="362.5" y2="209.3" gradientTransform="translate(235 -209.8) rotate(30.4)" xlink:href="#_Безымянный_градиент_120"/>
    <linearGradient id="_Безымянный_градиент_2251" data-name="Безымянный градиент 225" x1="350.7" y1="235.8" x2="353.1" y2="208.6" gradientTransform="translate(235 -209.8) rotate(30.4)" xlink:href="#_Безымянный_градиент_225"/>
    <linearGradient id="_Безымянный_градиент_1206" data-name="Безымянный градиент 120" x1="425.1" y1="238.9" x2="425.1" y2="211.8" gradientTransform="translate(301.2 -236.1) rotate(38.6)" xlink:href="#_Безымянный_градиент_120"/>
    <linearGradient id="_Безымянный_градиент_2252" data-name="Безымянный градиент 225" x1="413.3" y1="238.3" x2="415.6" y2="211.1" gradientTransform="translate(301.2 -236.1) rotate(38.6)" xlink:href="#_Безымянный_градиент_225"/>
    <linearGradient id="_Безымянный_градиент_1207" data-name="Безымянный градиент 120" x1="245.9" y1="217.2" x2="245.9" y2="191.1" gradientTransform="translate(244.6 -216.5) rotate(31.2)" xlink:href="#_Безымянный_градиент_120"/>
    <linearGradient id="_Безымянный_градиент_2253" data-name="Безымянный градиент 225" x1="234.5" y1="216.6" x2="236.8" y2="190.5" gradientTransform="translate(244.6 -216.5) rotate(31.2)" xlink:href="#_Безымянный_градиент_225"/>
    <linearGradient id="_Безымянный_градиент_1208" data-name="Безымянный градиент 120" x1="312.7" y1="206.9" x2="312.7" y2="180.8" gradientTransform="translate(235 -209.8) rotate(30.4)" xlink:href="#_Безымянный_градиент_120"/>
    <linearGradient id="_Безымянный_градиент_2254" data-name="Безымянный градиент 225" x1="301.3" y1="206.3" x2="303.6" y2="180.2" gradientTransform="translate(235 -209.8) rotate(30.4)" xlink:href="#_Безымянный_градиент_225"/>
    <linearGradient id="_Безымянный_градиент_1209" data-name="Безымянный градиент 120" x1="365.1" y1="216.2" x2="365.1" y2="190.1" gradientTransform="translate(301.2 -236.1) rotate(38.6)" xlink:href="#_Безымянный_градиент_120"/>
    <linearGradient id="_Безымянный_градиент_2255" data-name="Безымянный градиент 225" x1="353.8" y1="215.6" x2="356.1" y2="189.4" gradientTransform="translate(301.2 -236.1) rotate(38.6)" xlink:href="#_Безымянный_градиент_225"/>
    <linearGradient id="_Безымянный_градиент_11" data-name="Безымянный градиент 11" x1="264.8" y1="279" x2="264.8" y2="111.4" gradientTransform="translate(-151.1 265.9) rotate(-27.8)" gradientUnits="userSpaceOnUse">
      <stop offset="0" stop-color="#ffa4dd"/>
      <stop offset=".7" stop-color="#ff86f1"/>
      <stop offset="1" stop-color="#ff75fe"/>
    </linearGradient>
    <linearGradient id="_Безымянный_градиент_295" data-name="Безымянный градиент 295" x1="465.7" y1="299.8" x2="465.7" y2="157.6" gradientTransform="translate(175.2 -248.3) rotate(22.1)" gradientUnits="userSpaceOnUse">
      <stop offset="0" stop-color="#ffc8dd"/>
      <stop offset=".4" stop-color="#ffaae8"/>
      <stop offset="1" stop-color="#ff75fe"/>
    </linearGradient>
    <linearGradient id="_Безымянный_градиент_349" data-name="Безымянный градиент 349" x1="679.1" y1="456.5" x2="684.6" y2="394.6" gradientTransform="translate(1182.4) rotate(-180) scale(1 -1)" gradientUnits="userSpaceOnUse">
      <stop offset="0" stop-color="#880063"/>
      <stop offset=".2" stop-color="#8f0061"/>
      <stop offset=".5" stop-color="#a2005e"/>
      <stop offset=".8" stop-color="#c30059"/>
      <stop offset="1" stop-color="#dd0056"/>
    </linearGradient>
    <linearGradient id="_Безымянный_градиент_2256" data-name="Безымянный градиент 225" x1="497" y1="440.8" x2="501" y2="395.5" gradientTransform="matrix(1,0,0,1,0,0)" xlink:href="#_Безымянный_градиент_225"/>
    <linearGradient id="_Безымянный_градиент_3491" data-name="Безымянный градиент 349" x1="501.3" y1="415.5" x2="501.3" y2="399.7" gradientTransform="matrix(1,0,0,1,0,0)" xlink:href="#_Безымянный_градиент_349"/>
    <linearGradient id="_Безымянный_градиент_243" data-name="Безымянный градиент 243" x1="460.8" y1="599.4" x2="460.8" y2="515.5" gradientUnits="userSpaceOnUse">
      <stop offset="0" stop-color="#ff75fe"/>
      <stop offset=".3" stop-color="#ff83f3"/>
      <stop offset="1" stop-color="#ffa1dd"/>
    </linearGradient>
    <linearGradient id="_Безымянный_градиент_442" data-name="Безымянный градиент 44" x1="462.7" y1="589.3" x2="462.7" y2="511.3" gradientTransform="matrix(1,0,0,1,0,0)" xlink:href="#_Безымянный_градиент_44"/>
    <linearGradient id="_Безымянный_градиент_2431" data-name="Безымянный градиент 243" x1="463.1" y1="575.1" x2="463.1" y2="516.2" xlink:href="#_Безымянный_градиент_243"/>
    <linearGradient id="_Безымянный_градиент_1102" data-name="Безымянный градиент 110" x1="251.9" y1="145.9" x2="251.9" y2="101.5" gradientTransform="matrix(1,0,0,1,0,0)" xlink:href="#_Безымянный_градиент_110"/>
    <linearGradient id="_Безымянный_градиент_1103" data-name="Безымянный градиент 110" x1="550.9" y1="336.4" x2="550.9" y2="324.2" gradientTransform="matrix(1,0,0,1,0,0)" xlink:href="#_Безымянный_градиент_110"/>
    <linearGradient id="_Безымянный_градиент_1104" data-name="Безымянный градиент 110" x1="701.9" y1="100.1" x2="701.9" y2="82.6" gradientTransform="translate(898.6) rotate(-180) scale(1 -1)" xlink:href="#_Безымянный_градиент_110"/>
    <linearGradient id="_Безымянный_градиент_1105" data-name="Безымянный градиент 110" x1="337.9" y1="250.4" x2="337.9" y2="198.7" gradientTransform="translate(-151.8 288.5) rotate(-26.8)" xlink:href="#_Безымянный_градиент_110"/>
    <linearGradient id="_Безымянный_градиент_3622" data-name="Безымянный градиент 362" x1="-75.1" y1="526.7" x2="163.4" y2="526.7" xlink:href="#_Безымянный_градиент_362"/>
    <linearGradient id="_Безымянный_градиент_3394" data-name="Безымянный градиент 339" x1="90.6" y1="693.3" x2="90.6" y2="454.5" xlink:href="#_Безымянный_градиент_339"/>
    <linearGradient id="_Безымянный_градиент_3395" data-name="Безымянный градиент 339" x1="138.9" y1="627.4" x2="138.9" y2="534.4" xlink:href="#_Безымянный_градиент_339"/>
  </defs>
  <g class="st37">
    <g id="objects">
      <rect class="st38" x="-4.7" y="-7.5" width="645.7" height="704.9"/>
      <g>
        <path class="st89" d="M179.1,554c34.2-2,34.5,7.1,51.5,27.3,17,20.2,35.8-43,115.3-68.9,79.5-26,103.3-26.2,150.5,10.3,47.3,36.6,67.4-80,60.6-131.1-6.8-51.1-35.9-2.8-94.5.8-58.6,3.7,6.3-36.9,41.4-30.4,35.1,6.5,30.2-69-1.7-102.1-31.9-33,11-13.7,30.6-2.9,19.6,10.8,2.7-35.1-10.8-67.6-13.5-32.6,30.7-11.7,51.2-35.4,20.5-23.7-77.6-75.4-103.3-76-25.6-.6-7.9,19.3-8.9,45.6-1,26.3-135.1-70.1-155-61.1-19.9,8.9,12.2,63,33.8,97.7,21.6,34.7,65.5,11.9,93.4,34.4,27.9,22.5-55.6,3.4-136,15.6-80.4,12.3-98.2,40-66.6,75.2,31.6,35.2,12.2,50.1-27.3,23.9-39.6-26.1-72.7-5.4-59.4,27,13.3,32.4,34.6,0,76.2,8.6,41.6,8.7,34.7,39.9-8.7,64.9-43.4,25-90.2,74.3-112.6,110.1-22.3,35.7,44.2,36.1,80.3,34.1Z"/>
        <g>
          <path class="st30" d="M300.1,255.7c-.1,2.6-2.9.7-2.9.7-2.6,0-11.6-12-26.5-24t0,0c-6.1-4.9-13.1-9.7-21.1-13.8-27.7-14-51.4,11.2-67,10.1-2.1-.1-3.6-.6-4.8-1.4-7.3-5,4.3-21.5,18.4-26.2,16.2-5.3,29.7,6.2,34.1,2.6,0,0,0,0,0,0,4.1-3.6-18.8-12-51.8-11.3-19.1.4-32.9-9-33.6-17.6,0,0,0,0,0,0h0c-.5-6.4,6.2-12.3,23.2-13.6,40.1-3,70.5,32.7,81.4,42.3,10.8,9.6,9.5-9,0-22.8-9.5-13.9,4.2-22.7,15.8-19.6,11.6,3.1,2.5,13.6,4.5,38.4,2,24.8,30.4,53.9,30.3,56.4Z"/>
          <path class="st28" d="M297.2,256.4s-33-40.8-64.8-62.9c-31.8-22.1-76-25.1-79.1-24.1-3.1,1,46.5,1.2,77.7,25.2,31.2,24,23.3,18.2,21.1,18.3-2.3.1-24-7.7-43.9-7-19.9.8-28,17.9-28,17.9,0,0,7-15.4,28.4-17.2,21.4-1.8,50.4,10.3,50.4,10.3,0,0,29.9,27.7,38.2,39.6Z"/>
          <path class="st77" d="M259.5,163.2c-.8.4.4,21.8,1.4,33.6,1,11.8,6.1,27.6,6.1,27.6l3,1.8s-8.8-11-9.4-36.6c-.6-25.6-1.1-26.4-1.1-26.4Z"/>
          <path class="st9" d="M210.4,200c-4.3-.4,5.8,4.3,16.9,7.2,11.1,2.9,18.8,2.2,20.6,2,1.9-.2-11.5-8.7-15.3-10.7-3.8-2,2,5.5-3.2,6-5.1.6-11.9-3.6-19.1-4.6Z"/>
          <path class="st9" d="M210,218.8c3.4-.8,11.8-10.2,23.8-9.4,12.1.8,24.5,8.4,27.7,11.7,3.2,3.3-15.6-6.1-25.8-7.2-10.2-1.1-25.8,4.9-25.8,4.9Z"/>
          <path class="st9" d="M247.3,173.8c.4-6.9,13.6-1.2,18.4,9.9,4.8,11.1,4.3,30.7,5.7,37,1.4,6.3-10.2-4.6-12.8-10-2.5-5.3-.2-3.8-.9-12.5-.8-8.7-10.1-21.1-10.4-24.5Z"/>
          <path class="st10" d="M230.4,203.7c4.1-3.6-18.8-12-51.8-11.3-19.1.4-33-9-33.6-17.7,0,.5,1.9,12.6,29.5,15.7,28.3,3.2,47.8,3.8,53.7,7.4,5.4,3.3,2.6,5.7,2.2,6Z"/>
          <path class="st10" d="M270.7,232.3c-6.1-4.9-13.1-9.7-21.1-13.8-27.7-14-51.4,11.2-67,10.1-2.1-.1-3.6-.6-4.8-1.4h0c5,3.6,30.6-11.3,48.5-13.5,17.9-2.1,31.6,7.2,44.3,18.6Z"/>
        </g>
        <g>
          <path class="st80" d="M502.5,291.9c-5.8,19-42.4,32.5-47,47.2-.5,1.5-.7,2.6-.6,3.4.5,6.5,19.1-12.5,31.3-12.8,6.3-.2,6.4,5.1,3.9,11.3h0s0,0,0,0c-3,7.2-9.5,15.6-14.2,18-8.7,4.4-17.8-9.5-42,4.9-11.8,7-21.5,22-28.4,35.6h0c-7.3,14.5-11.5,27.3-11.5,27.3-6.2,1.3,12.3-36.5,15.8-62.3,3.5-25.8-18.2-13.4-14.9-34,3.3-20.6,22.5-1.6,23.9,14.9,1.3,16.4,11.9,7.9,10.8-7.9-1.1-15.8-19.3-32.8-.2-43.7,19.1-10.9,16.4,16.1,20.8,28,4.4,11.9,9.3-34.2,29.3-52.2,7.9-7.2,14.1-8.1,18.3-5.5,6.4,4,8.1,16.3,4.7,27.8Z"/>
          <path class="st78" d="M394.1,426.8s11.2-42,24-60c12-16.8,36.2-37.4,56.5-58.6,20.3-21.2,17.9-40,17.3-41.3-.6-1.4-11.4,34.8-25.5,48.8-14,14-17.8,16.7-21.4,19.8-3.5,3.1-10.7-22.5-10.5-31.5s1.2-8.9-.2-7.9c-1.4,1-.2,7.9,1.5,20.2,1.7,12.4,4.9,18,6.2,19.6,1.3,1.6-14.8,20.1-19.2,23.9-4.5,3.7-5.5-6-10.8-19.6-5.3-13.5-15.4-11.7-15.3-11.4,0,.3,9.7-.5,15.1,12.2,5.3,12.6,7.2,20.7,6.9,22.7-.3,2.1-7.8,12.2-13.7,28.7-4.3,12.1-11.7,28.7-11.7,29.9,0,1.2.7,4.5.7,4.5Z"/>
          <path class="st76" d="M428.3,354.2c7.2-7.4,32.8-7.7,44.8-6,12,1.7,14.7-6.9,14.7-7.4,0-.5-2.3,5.6-12.5,6.4-10.2.8-13.2-.7-25.2,0-12,.7-18.4,3.6-18.4,3.6l-3.3,3.4Z"/>
          <path class="st9" d="M478.5,274.9c-8,5.9-19.9,35.7-21.1,44.7-1.2,9,16.8,3.6,31.7-15.6,14.9-19.2-10.6-29.1-10.6-29.1Z"/>
          <path class="st9" d="M425.6,320c4.2,7.4,16,10.5,20.7,6.9,4.7-3.6-1.4,7.9-9.2,15.3-7.8,7.4-6.5-1.7-7.9-10.5-1.3-8.8-3.6-11.8-3.6-11.8Z"/>
          <path class="st10" d="M490.1,341h0c-3,7.2-9.5,15.6-14.2,18-8.7,4.4-17.8-9.5-42,4.9-11.8,7-21.5,22-28.4,35.6.2-.7,7.6-22.3,27.9-37.3,20.6-15.2,31.6-3.4,39.3-4,7.5-.6,16.9-16.6,17.3-17.2Z"/>
          <path class="st10" d="M502.5,291.9c-5.8,19-42.4,32.5-47,47.2-.5,1.5-.7,2.6-.6,3.4,0,0-1.9-6.8,11-17.9,12.9-11.1,27.1-17.1,35.1-33.3,8-16.1-3.2-27.2-3.2-27.2,6.4,4,8.1,16.3,4.7,27.8Z"/>
        </g>
        <g>
          <path class="st85" d="M273.3,494.3s-6.8,24.3,94,6.5c100.8-17.8,84.4-37.9,84.4-37.9l-178.3,31.4Z"/>
          <path class="st82" d="M283.9,485c-55.7,29.2,121.8,1,158.8-13.4,37-14.4-45.2-46-158.8,13.4Z"/>
          <path class="st33" d="M222.7,263.9c-2.7-3.9-2.9-32,94.1-49.1,100.8-17.8,105.1,10.2,105.4,15.4l-199.5,33.7Z"/>
          <path class="st22" d="M225.4,267.9c-25.9-21.6,134.4-61.6,190.8-43.6,41.5,13.3-142,84.3-190.8,43.6Z"/>
          <path class="st41" d="M422.4,429.7c0-.1-.1-.2-.1-.3-.1-.3-.2-.5-.3-.8,0,0,0-.2-.1-.2,0-.2-.1-.3-.2-.5-.2-.5-.5-1.1-.8-1.8-.1-.3-.3-.6-.4-.8-.1-.3-.3-.6-.4-.9-6.3-14.1-13.6-27.9-19.8-33.1-14.6-12.1-49.3-14.6-45.6-24.4,3.7-9.7,25.2-20.2,36.4-46.1,2.7-6.3,5.1-14.9,7.1-24.3,6.3-29.2,9.2-66.2,9.2-66.2-61.1,4.6-107.6,11.6-170.3,30,0,0,27.7,59.8,47,80.3,4.1,4.4,8.4,7.8,12.6,10.7,15.8,10.7,31.2,13.1,36.6,19.3,6.8,7.9-24.9,22.1-34.5,38.5-5.6,9.5-7.5,34.5-8.1,53.8,0,0,0,.1,0,.2-.4,13.9-.2,24.8-.2,24.8,0,0,31.3,1.8,73.5-5.7,46.5-8.2,71.1-19.8,71.1-19.8,0,0-5.4-15.7-12.5-32.5,0,0,0-.1,0-.2ZM363,476.8c-31.5,5.5-56.9,5.9-67.2,5.8,0-18.5,1-54.6,6.5-68.3,0,0,0-.1,0-.1.2-.4.3-.8.5-1.2h0c.2-.4.4-.8.6-1.1,3.8-6.5,12.1-13.1,19.5-18.9,9.3-7.4,16.1-12.7,16.7-19.1.1-1.1,0-2.3-.3-3.3-.4-1.3-1-2.5-1.9-3.5-3.6-4.2-9.7-6.1-17.3-8.6-9.4-3-20.9-6.7-31.1-15.8-1.1-1-2.3-2.1-3.4-3.3-15.3-16.2-35.1-61-41.5-76.1,26.6-10.4,51.9-17.7,77.3-22.1,25.3-4.5,51.6-6.3,80.2-5.6-.7,12.9-2.8,45.7-8,69.2-1.4,6.4-3.1,12.1-5,16.5-5.2,12.2-13.7,20-21.4,26.2-1.5,1.2-3,2.4-4.5,3.5-6.2,4.8-11.1,8.6-13.2,13.6,0,.1-.1.3-.2.4-.3.9-.5,1.8-.6,2.7-.1,1.5.2,3,.9,4.4.2.5.5,1,.9,1.5,0,0,0,0,0,0,2.5,3.5,7.3,5.8,13.8,8.1h0c2.3.8,4.8,1.7,7.5,2.5,8.9,2.9,19,6.3,24.8,11.1,10.1,8.3,24.8,45.4,31.5,63.9-9,3.6-31.2,11.5-65.2,17.5Z"/>
          <path class="st40" d="M396.7,395.4c10.1,8.3,24.8,45.4,31.5,63.9-9,3.6-31.2,11.5-65.2,17.5-31.5,5.5-56.9,5.9-67.3,5.8,0-19.8,1.1-59.5,7.7-70.7,3.8-6.5,12.1-13.1,19.5-18.9,9.3-7.4,16.1-12.7,16.7-19.1.2-2.5-.5-4.9-2.2-6.8-3.6-4.2-9.7-6.1-17.3-8.6-10.5-3.3-23.5-7.5-34.4-19.1-15.3-16.2-35.1-61-41.5-76.1,26.6-10.4,51.9-17.7,77.3-22.1,25.3-4.5,51.6-6.3,80.2-5.6-.8,16.4-4.1,65.3-12.9,85.7-6.3,14.6-17.1,23-25.8,29.7-6.3,4.9-11.3,8.8-13.3,14-.9,2.4-.8,4.9.3,7.2,2.7,5.8,10.9,8.5,22.2,12.2,8.9,2.9,19,6.3,24.8,11.1Z"/>
          <path class="st17" d="M354.9,236.9c-39.6,15.8-28.5,78.9-10.3,96.5,18.2,17.6,53.2-46.3,53.2-75.8,0-29.5-42.9-20.7-42.9-20.7Z"/>
          <path class="st39" d="M398.8,397.5c9.9,11.2,23.2,44.6,29.4,61.9-9,3.6-31.2,11.5-65.2,17.5-31.5,5.5-56.9,5.9-67.3,5.8,0-8.2.1-20,.9-31.6,1-16.3,3-32.5,6.8-39.1,3.8-6.5,12.1-13.1,19.5-18.9,9.3-7.4,16.1-12.7,16.7-19.1,0-.2,0-.5,0-.7,0-2.2-.7-4.3-2.3-6.1-3.6-4.2-9.7-6.1-17.3-8.6-10.5-3.3-23.5-7.5-34.4-19.1-6.4-6.7-13.5-18.3-20.1-30.7-9.3-17.5-17.7-36.5-21.4-45.4,26.6-10.4,51.9-17.7,77.3-22.1,25.3-4.5,51.6-6.3,80.2-5.6-.7,12.9-2.8,45.9-8,69.3,0,0,0,0,0,0-1.4,6.4-3,12-4.9,16.4-6.3,14.6-17.1,23-25.8,29.7-6.3,4.9-11.3,8.8-13.3,14-.5,1.4-.7,2.8-.6,4.2.1,1,.4,2,.9,3,2.7,5.8,10.9,8.5,22.2,12.2,8.9,2.9,19,6.3,24.8,11.1.7.6,1.4,1.3,2.1,2.1Z"/>
          <path class="st23" d="M393.6,304.9c-1.4,6.4-3,12-4.9,16.4-6.3,14.6-17.1,23-25.8,29.7-6.3,4.9-11.3,8.8-13.3,14-.5,1.4-.7,2.8-.6,4.2,1,8.5-5.4,10.3-9.3,4,0-2.2-.7-4.3-2.3-6.1-3.6-4.2-9.7-6.1-17.3-8.6-10.5-3.3-23.5-7.5-34.4-19.1-6.4-6.7-13.5-18.3-20.1-30.7,7.5,9.7,109,12.8,128-3.8Z"/>
          <path class="st17" d="M315.7,398.9c-15.7,14.8-19.9,36.4-9.8,56.3,10.1,19.9,73-27.3,74.9-48.3,2-21-35.7-35.7-65.2-8Z"/>
          <path class="st86" d="M393.6,304.9c-12.6-6.6-71.7,6.8-92.8,7.1-21.1.3-35.7-6.9-35.2-3.3.5,3.7,52.4,14.1,84.3,13.7,31.9-.4,43.7-17.5,43.7-17.5Z"/>
          <path class="st50" d="M428.2,459.4c-9,3.6-31.2,11.5-65.2,17.5-31.5,5.5-56.9,5.9-67.3,5.8,0-8.2.1-20,.9-31.6,3.3,7.2,89.7-25.7,102.2-53.5,9.9,11.2,23.2,44.6,29.4,61.9Z"/>
          <path class="st21" d="M398.8,397.5c-6-4.7-8.6,10.9-68.9,35-36.4,14.5-33.3,18.5-33.3,18.5,0,0,11.5,26.2,54-.8,44.8-28.5,48.2-52.7,48.2-52.7Z"/>
          <path class="st87" d="M347.4,393.1c-2.6,4-2.9,16.3,3,16.8,6,.6.6-22.6-3-16.8Z"/>
          <path class="st8" d="M244.8,276.3c-4.4-9,74.3-48.6,161.5-35.3l-.4,4.5s15.5-8.5,16.3-15.9c.9-7.5-62.9-16.4-128,1.7-65,18.1-71.5,28.6-70.1,33.9,1.5,5.3,20.7,11.2,20.7,11.2Z"/>
          <path class="st45" d="M290.4,487.8l1.7,9.8s-17.1.3-17.9-3.7,16.2-12.3,16.2-12.3v6.2Z"/>
          <path class="st45" d="M435,462.4l2,11.2s13.8-4.2,13.9-10.5c0-6.3-19.6-11-19.6-11l3.7,10.4Z"/>
          <path class="st43" d="M348.8,210.2c-24.4,3.2-18.7,11.3,34.5,8,38.6-2.4-1-11.9-34.5-8Z"/>
          <path class="st45" d="M408.1,480.9c-6.9-1.1,11.9-6,24-5.9,0,0-15.9,4.2-24,5.9Z"/>
          <path class="st4" d="M304.9,507.3c-15.6-3.5-21.6-7.4,21.9-12.4,43.5-5.1,75-2.8,75-2.8,0,0-56.9,16.5-96.9,15.2Z"/>
          <path class="st8" d="M240,251c-10.8,6.1,12.3,6,53.4-5.3,41.1-11.2-.2-24.8-53.4,5.3Z"/>
          <path class="st6" d="M363,476.8c-28.4,1.6,22.5-48.3,31-64.4,8.5-16.1,30.8,39.9,27,48-3.7,8.1-58,16.4-58,16.4Z"/>
          <path class="st6" d="M284.5,336.3c-9.8-15.7,41.9-15.7,58.3-6.8,16.4,8.9,6.1,30.9-3.5,32.3-9.5,1.5-44.8-9.4-54.8-25.5Z"/>
          <path class="st44" d="M310.8,461.7s6.3,2.8,20.5,0c14.2-2.8,40-25.7,51.4-37.5,0,0-16.5,16-32.5,26.4-16.1,10.4-27.7,13.1-39.3,11.1Z"/>
          <path class="st44" d="M272,311.9s33.6,9.2,69.9,9.5c30.9.3,45.4-10.3,45.4-10.3,0,0-12,11.4-43.8,11.9-31.9.5-71.4-11.2-71.4-11.2Z"/>
          <path class="st20" d="M315.9,462.2c-18.6.1,25.9-28.7,46.2-31.2,20.3-2.5-14,31-46.2,31.2Z"/>
          <path class="st20" d="M338.8,321.9c-6.8-1.4,29.1-5.7,32-4,2.9,1.7-21,6.2-32,4Z"/>
          <path class="st4" d="M346.7,323.3c-24.4,1.6-79.6-13.4-79.6-13.4l7.3,14.2c-.6-9.2,46.6-3.3,65.9,1.8,19.3,5.2,27-2.1,34.8-6.9,7.8-4.9,5.5.4,8.4,2.1,2.7,1.6,9.3-14.1,10.1-16-.9,1.8-9,15.8-46.9,18.2ZM356.4,323.7c-.4,1.4-2.2,1.7-2.2-.1,0-1.4,2.7-1.3,2.2.1ZM367.7,322.7c-4.5,2.2-12.6,3-9.3.9,4.4-2.8,13.8-3.1,9.3-.9ZM386.1,317.4c-1.6,2.9-4.6.5-3.3-1.5.9-1.5,5-1.4,3.3,1.5Z"/>
          <path class="st4" d="M398.8,397.5s-3.9,22.4-47.9,54.9c-23.6,17.4-49.2,11.5-54.3-2.2l-.5,8.5c1.1-3.2,5.8,8.1,24,10.8,18.2,2.7,15.5-7.5,25.5-11.8,10-4.3,10-.5,16.7-9.8,6.7-9.3,26.2-27.7,32.8-37.2,6.1-8.9,9.9-3.4,10.4-2.7-.4-.9-4-8-6.7-10.5ZM324.7,468.8c-.4,1-2.1.4-2.2-.4,0-1,2.6-.6,2.2.4ZM326.5,468.3c-6.8-1.9,4-6.3,8.3-6.6,4.3-.2-2.3,8.3-8.3,6.6Z"/>
          <path class="st45" d="M334.3,362.7c-2.1.3,5.2,3.4,8.4,8.7,3.1,5.3,4.5-7.3,12.8-14.8,8.3-7.5,24.9-20.4,28.7-30.2,3.8-9.8-21.4,3-26.1,5.6-4.6,2.7-4,19.8-12.7,27-8.7,7.2-11.1,3.6-11.1,3.6Z"/>
          <path class="st45" d="M300.4,482.6c-6.7-1.8-3-13.4.2-14.9,3.2-1.5,17.7,11.6,32.1,9.2,14.3-2.3,14.5-11.8,18.4-15.2,3.9-3.4-1.2,14.3,9.5,15.5,0,0-43.6,7.3-60.2,5.4Z"/>
          <path class="st45" d="M419.1,449.7c-7.6-12.6-40.2,12.9-46.4,20.5-6.3,7.7,30.3-2.1,41.2-6.8,10.9-4.7,5.2-13.8,5.2-13.8Z"/>
          <path class="st48" d="M377.8,210c-3.3,2.1-3.4,4.9,4.8,4.1,8.2-.8-2.5-5.6-4.8-4.1Z"/>
          <path class="st48" d="M298.4,293.4c-8.8,4.6,6.2,26.9,15.2,33,8.9,6.1-4.9-38.3-15.2-33Z"/>
          <path class="st48" d="M286.7,268.3c-5.6,4,3.8,6.3,8,1.2,4.2-5-2.5-5.3-8-1.2Z"/>
          <path class="st48" d="M325,403c-6.2,6.5,2.4,10.9,5.4,4.1s-3-6.5-5.4-4.1Z"/>
          <path class="st5" d="M339.3,370.6c-.2,0-.4-.2-.7-.7-2.1-3.5-7.8-5.4-5.7-1,2.2,4.4,5,8.2-1.1,15.8-6.1,7.6-22.1,15.8-28.4,27.2-.2.4-.4.7-.6,1.1h0c-.2.4-.4.8-.5,1.2,0,0,0,0,0,.1-5.7,13.2-11.1,45.8-11.6,48.6.6-19.3,2.6-44.3,8.1-53.8,9.6-16.4,41.3-30.6,34.5-38.5-5.4-6.2-20.8-8.6-36.6-19.3-3.1-3.2-5.8-6.2-7.7-8.6,10.1,9.1,21.7,12.8,31.1,15.8,7.6,2.5,13.6,4.4,17.3,8.6.9,1,1.6,2.2,1.9,3.5Z"/>
          <path class="st5" d="M400.2,391.2c6.3,5.2,13.5,19,19.8,33.1-4.2-9.2-13.1-27.1-20.1-32.1-9.6-6.8-24-8.5-35.4-10.4h0c-6.5-2.3-11.3-4.6-13.8-8.1,0,0,0,0,0,0-.8-1.7-1.4-3.7-1.7-6,0-.9.3-1.8.6-2.7,0-.1.1-.3.2-.4.5,1.4,1.2,3,1.8,3.5,1.6,1.4,1.7-4,12-14.4,7.8-7.9,6.5-7.5,3.8-6.2,7.7-6.2,16.1-14,21.4-26.2,1.9-4.4,3.5-10.1,5-16.5.8-1.6,1.5-3.1,2.1-4.6.7-1.7,1.5-2.9,2.3-3.6-2,9.4-4.4,18-7.1,24.3-11.2,25.9-32.7,36.3-36.4,46.1-3.7,9.7,31,12.3,45.6,24.4Z"/>
          <path class="st48" d="M377.9,384c-2.5.7,7.4,5.3,12.6,7.2,5.2,1.9-1.7-10-12.6-7.2Z"/>
          <path class="st48" d="M353.9,359.8c-2.4,6.7,7.5-3.2,12.1-8.7,4.6-5.5-10.7,4.8-12.1,8.7Z"/>
          <path class="st48" d="M332.6,366.7c-.5,1.4,3.1,6.3,3.5,8.6.4,2.3,3.8-1.4,2.5-5.4s-5.8-3.8-6-3.2Z"/>
          <path class="st48" d="M252.1,287.2c-2-.8,10.2,22.4,13.3,25.8,3,3.4-8.1-23.8-13.3-25.8Z"/>
          <path class="st48" d="M395.8,293.5c.9,5.7,3.4.9,3.5-5.8.1-6.6-3.9,3.3-3.5,5.8Z"/>
        </g>
        <g>
          <path class="st26" d="M285,419.2s-24.1,111.9-29.3,123.6c0,0-6.9,14.2-22.1,18.7l-132.5-18.1s-10.9-4.6-9-14.9c1.9-10.4,57.5-121.1,57.5-121.1l135.3,11.8Z"/>
          <path class="st27" d="M284,416.6s-24.1,111.9-29.3,123.6c0,0-6.9,14.2-22.1,18.7l-132.5-18.1s-9.9-2-8-12.4c1.9-10.4,56.5-123.7,56.5-123.7l135.3,11.8Z"/>
          <path class="st14" d="M132,538.5s74.7,22.7,100.8,16.9c7.8-1.7,14.5-5.6,19.4-14.7,6-11,9.8-28.3,13.6-43,7.3-27.7,12.4-54.9,12.4-54.9l5.2-23.9-151.5,119.5Z"/>
          <path class="st58" d="M83.7,525.4s-.4,4,5.2,7.4l122.4,16.2s22.6-.5,36.1-23c15.8-26.4,36.6-109.4,36.6-109.4l-5.3-4.4-195,113.3Z"/>
          <path class="st57" d="M278.7,412.2s-20.3,75.3-39.3,109.6c-4.5,8.2-20,16.5-30.5,17.1-4.8.3-26-2.4-58.8-6.3-49.6-5.8-66.3-7.1-66.3-7.1l184.8-114.4,10.2,1.1Z"/>
          <path class="st59" d="M76,494.3s.6,18.4,7,28.4l125.9,16.1s19.7-3.8,29.6-20.8c18.6-31.6,38.9-107.8,38.9-107.8l-14.4-7.2-187,91.3Z"/>
          <path class="st32" d="M263,403c-5.6,34.6-17.6,62.8-26.8,80.7,0,0,0,0,0,0-7,13.5-12.4,21.1-12.4,21.1-11.2,17.4-29.1,17.9-29.1,17.9l-108.9-13.5c-2.1-1.5-3.8-3-5.1-4.5-5.4-5.9-4.7-10.4-4.7-10.4,39.7-37.6,46.9-98.7,46.9-98.7l140.1,7.3Z"/>
          <path class="st3" d="M126.8,397.8c-3.1.7-5.7,21.4-6.2,26.4-.5,5.1,122.6,11.2,127.5,11.2,4.9,0,12.4-26.8,13-29.7.5-2.9-129.9-8.9-134.3-8Z"/>
          <path class="st24" d="M147.2,415.6c-1.2,4.5-4.6,7.5-7.6,6.8s-4.6-5.1-3.4-9.6c1.2-4.5,4.6-7.5,7.6-6.8,3,.8,4.6,5.1,3.4,9.6Z"/>
          <path class="st55" d="M227.2,421.7c-1.3,4.5-4.9,7.4-7.9,6.5s-4.4-5.2-3-9.7c1.3-4.5,4.9-7.4,7.9-6.5,3,.9,4.4,5.2,3,9.7Z"/>
          <path class="st25" d="M248.8,402.1s1.8-4.4.6-8.6c-1.6-5.6-8.1-11-16.4-6.6-13.9,7.3-7.8,29.4-6.9,33.7.9,4.3-2.1,5.8-4.1,5-2.2-.9-5.9-6.6-7.2-14.6-1.1-7-.4-15.8,4.9-24.6,8.8-14.6,29.2-10.2,36.9,3h0c2.3,3.9,3.4,8.5,2.9,13.6l-10.7-.7Z"/>
          <path class="st56" d="M177,398.5l-8.7-.5s0-6.2-1.1-10.1c-1.5-5.1-7.4-10-14.9-6-12.6,6.7-7.1,26.7-6.3,30.6.8,3.9-1.9,5.3-3.7,4.5-1.7-.7-4.5-4.7-6-10.5,0,0,0,0,0,0-1.7-6.7-1.7-15.9,3.9-25.1,9.3-15.4,33.8-8.2,36.7,10.5.3,2.1.4,4.3.1,6.6Z"/>
          <g>
            <g class="st2">
              <path class="st49" d="M190.6,455.1c4.2.3,6.3.5,10.4.8,1.4.1,3.1-.9,3.8-2.2,2.2-4.1,3.2-6.2,5.2-10.3.6-1.4,0-2.5-1.3-2.6-4.2-.3-6.3-.4-10.6-.7-1.4,0-3,.9-3.6,2.3-1.9,4.1-3,6.1-5.1,10.2-.7,1.3-.2,2.5,1.2,2.6Z"/>
              <path class="st49" d="M218.2,476c4.2.4,6.3.6,10.5,1,1.4.1,3.2-.9,4-2.2,2.6-4.2,3.9-6.3,6.3-10.5.8-1.4.3-2.6-1.1-2.7-4.3-.3-6.4-.5-10.6-.8-1.4-.1-3.1.9-3.9,2.3-2.4,4.2-3.6,6.2-6.2,10.3-.8,1.3-.4,2.5.9,2.6Z"/>
              <path class="st49" d="M199.3,474.3c4.1.4,6.2.6,10.4,1,1.4.1,3.1-.9,4-2.2,2.6-4.1,3.8-6.2,6.2-10.3.8-1.4.3-2.5-1.1-2.6-4.2-.3-6.3-.5-10.5-.8-1.4-.1-3.1.9-3.8,2.2-2.3,4.1-3.5,6.1-6,10.2-.8,1.3-.4,2.5,1,2.6Z"/>
              <path class="st49" d="M180.5,472.6c4.1.4,6.2.6,10.3.9,1.3.1,3.1-.8,3.9-2.2,2.5-4,3.7-6.1,6-10.1.8-1.3.2-2.5-1.1-2.6-4.2-.3-6.3-.5-10.4-.8-1.4-.1-3,.9-3.8,2.2-2.2,4-3.4,6-5.8,10-.8,1.3-.4,2.4,1,2.6Z"/>
              <path class="st49" d="M206.2,493.7c4.1.4,6.2.7,10.3,1.1,1.3.1,3.2-.8,4.2-2.1,2.9-4.1,4.3-6.1,7.1-10.2.9-1.3.5-2.5-.9-2.7-4.2-.4-6.3-.6-10.5-1-1.4-.1-3.2.8-4,2.2-2.7,4.1-4.1,6.1-6.9,10.1-.9,1.3-.6,2.5.7,2.6Z"/>
              <path class="st49" d="M187.6,491.7c4.1.4,6.1.7,10.2,1.1,1.3.1,3.2-.8,4.1-2.1,2.8-4,4.2-6,6.9-10.1.9-1.3.5-2.5-.9-2.6-4.2-.4-6.2-.6-10.4-1-1.3-.1-3.1.8-4,2.1-2.6,4-4,6-6.7,10-.9,1.3-.6,2.4.7,2.6Z"/>
              <path class="st49" d="M169.1,489.7c4,.4,6.1.6,10.1,1.1,1.3.1,3.1-.8,4-2.1,2.8-3.9,4.1-5.9,6.7-9.9.8-1.3.4-2.5-.9-2.6-4.1-.4-6.2-.6-10.3-1-1.3-.1-3.1.8-3.9,2.1-2.5,3.9-3.9,5.9-6.6,9.8-.9,1.3-.5,2.4.8,2.5Z"/>
              <path class="st49" d="M192.9,510.9c4,.5,6.1.7,10.1,1.2,1.3.2,3.3-.7,4.3-2,3.2-4,4.8-5.9,7.8-10,1-1.3.7-2.5-.7-2.6-4.1-.5-6.2-.7-10.3-1.1-1.3-.1-3.2.8-4.2,2.1-3,4-4.5,5.9-7.6,9.8-1,1.3-.8,2.4.5,2.6Z"/>
              <path class="st49" d="M174.7,508.6c4,.5,6,.7,10,1.2,1.3.2,3.2-.7,4.2-2,3.1-3.9,4.6-5.9,7.6-9.8,1-1.3.7-2.5-.7-2.6-4.1-.4-6.1-.7-10.2-1.1-1.3-.1-3.1.8-4.1,2-2.9,3.9-4.4,5.8-7.4,9.7-1,1.3-.8,2.4.5,2.6Z"/>
              <path class="st49" d="M156.6,506.4c4,.5,5.9.7,9.9,1.2,1.3.2,3.2-.7,4.1-2,3-3.8,4.5-5.8,7.4-9.7.9-1.3.6-2.4-.7-2.6-4-.4-6.1-.7-10.1-1.1-1.3-.1-3.1.8-4,2-2.8,3.8-4.3,5.8-7.2,9.5-1,1.2-.7,2.4.6,2.5Z"/>
              <path class="st49" d="M172.5,453.7c4.1.3,6.2.5,10.3.8,1.4.1,3-.9,3.7-2.2,2.1-4.1,3.1-6.1,5.1-10.2.6-1.3,0-2.5-1.3-2.6-4.2-.3-6.3-.4-10.5-.7-1.4,0-2.9.9-3.6,2.2-1.9,4-2.9,6-4.9,10-.7,1.3-.1,2.4,1.2,2.5Z"/>
              <path class="st49" d="M162.7,471c4.1.4,6.1.6,10.2.9,1.3.1,3.1-.8,3.8-2.1,2.4-4,3.6-6,5.8-10,.7-1.3.2-2.5-1.1-2.6-4.1-.3-6.2-.5-10.3-.8-1.3-.1-3,.9-3.7,2.2-2.2,4-3.3,5.9-5.7,9.9-.8,1.3-.3,2.4,1,2.5Z"/>
              <path class="st49" d="M151.6,487.8c4,.4,6,.6,10,1.1,1.3.1,3.1-.8,4-2,2.7-3.9,4-5.8,6.5-9.8.8-1.3.4-2.4-.9-2.6-4.1-.4-6.1-.6-10.1-1-1.3-.1-3,.8-3.8,2.1-2.5,3.9-3.8,5.8-6.4,9.7-.9,1.2-.5,2.4.8,2.5Z"/>
              <path class="st49" d="M139.4,504.3c3.9.5,5.9.7,9.8,1.2,1.3.2,3.1-.7,4.1-1.9,3-3.8,4.4-5.7,7.2-9.5.9-1.3.6-2.4-.7-2.5-4-.4-6-.7-10-1.1-1.3-.1-3.1.7-4,2-2.7,3.8-4.2,5.7-7.1,9.4-.9,1.2-.7,2.3.6,2.5Z"/>
              <path class="st49" d="M154.6,452.3c4.1.3,6.1.5,10.2.8,1.3.1,3-.9,3.6-2.2,2.1-4,3-6,4.9-10,.6-1.3,0-2.4-1.4-2.5-4.1-.3-6.2-.4-10.3-.6-1.3,0-2.9.9-3.5,2.2-1.8,4-2.8,5.9-4.8,9.9-.7,1.3-.1,2.4,1.2,2.5Z"/>
              <path class="st49" d="M145.1,469.3c4,.4,6,.6,10.1.9,1.3.1,3-.8,3.8-2.1,2.4-3.9,3.5-5.9,5.7-9.9.7-1.3.2-2.4-1.1-2.5-4.1-.3-6.1-.5-10.2-.8-1.3-.1-2.9.8-3.6,2.1-2.1,3.9-3.2,5.9-5.5,9.7-.7,1.3-.3,2.4,1,2.5Z"/>
              <path class="st49" d="M134.3,486c4,.4,5.9.6,9.9,1.1,1.3.1,3-.8,3.9-2,2.6-3.8,3.9-5.8,6.4-9.6.8-1.3.4-2.4-.9-2.5-4-.4-6-.6-10-.9-1.3-.1-3,.8-3.8,2-2.4,3.8-3.7,5.7-6.2,9.5-.8,1.2-.5,2.3.8,2.5Z"/>
              <path class="st49" d="M122.4,502.2c3.9.5,5.8.7,9.7,1.2,1.3.2,3.1-.7,4-1.9,2.9-3.7,4.3-5.6,7-9.4.9-1.2.6-2.4-.7-2.5-4-.4-5.9-.7-9.9-1.1-1.3-.1-3,.7-3.9,2-2.7,3.7-4,5.6-6.9,9.3-.9,1.2-.7,2.3.6,2.4Z"/>
              <path class="st49" d="M136.9,451c4,.3,6.1.5,10.1.8,1.3.1,2.9-.9,3.6-2.1,2-3.9,3-5.9,4.8-9.9.6-1.3,0-2.4-1.4-2.5-4.1-.3-6.1-.4-10.2-.6-1.3,0-2.9.9-3.4,2.2-1.8,3.9-2.7,5.9-4.7,9.7-.6,1.3,0,2.4,1.2,2.5Z"/>
              <path class="st49" d="M127.6,467.7c4,.4,6,.5,10,.9,1.3.1,3-.8,3.7-2.1,2.3-3.9,3.4-5.8,5.5-9.7.7-1.3.2-2.4-1.2-2.5-4-.3-6.1-.5-10.1-.8-1.3-.1-2.9.8-3.6,2.1-2.1,3.8-3.1,5.8-5.4,9.6-.7,1.2-.3,2.3,1,2.5Z"/>
              <path class="st49" d="M117.1,484.1c3.9.4,5.9.6,9.8,1.1,1.3.1,3-.7,3.8-2,2.6-3.8,3.8-5.7,6.2-9.5.8-1.2.4-2.4-.9-2.5-4-.4-6-.6-9.9-.9-1.3-.1-2.9.8-3.7,2-2.3,3.8-3.6,5.6-6.1,9.4-.8,1.2-.5,2.3.8,2.4Z"/>
              <path class="st49" d="M119.4,449.7c4,.3,6,.5,10,.8,1.3,0,2.9-.8,3.5-2.1,1.9-3.9,2.9-5.8,4.6-9.7.6-1.3,0-2.4-1.4-2.5-4.1-.3-6.1-.4-10.1-.6-1.3,0-2.8.9-3.4,2.1-1.7,3.8-2.6,5.8-4.5,9.6-.6,1.2,0,2.3,1.2,2.4Z"/>
              <path class="st49" d="M110.3,466.2c3.9.4,5.9.5,9.9.9,1.3.1,2.9-.8,3.7-2,2.2-3.8,3.3-5.7,5.4-9.6.7-1.3.1-2.4-1.2-2.5-4-.3-6-.5-10-.8-1.3-.1-2.9.8-3.5,2.1-2,3.8-3.1,5.7-5.2,9.4-.7,1.2-.3,2.3,1,2.4Z"/>
              <path class="st49" d="M100.1,482.3c3.9.4,5.8.6,9.7,1,1.3.1,3-.7,3.8-1.9,2.5-3.7,3.7-5.6,6-9.4.8-1.2.3-2.3-1-2.4-3.9-.4-5.9-.6-9.8-.9-1.3-.1-2.9.8-3.7,2-2.3,3.7-3.5,5.6-5.9,9.2-.8,1.2-.4,2.3.8,2.4Z"/>
            </g>
            <path class="st19" d="M192.6,510.8c4,.5,6.1.7,10.1,1.2,1.3.2,3.3-.7,4.3-2,3.2-4,4.8-5.9,7.8-10,1-1.3.7-2.5-.7-2.6-4.1-.5-6.2-.7-10.3-1.1-1.3-.1-3.2.8-4.2,2.1-3,4-4.5,5.9-7.6,9.8-1,1.3-.8,2.4.5,2.6Z"/>
            <path class="st19" d="M174.3,508.6c4,.5,6,.7,10,1.2,1.3.2,3.2-.7,4.2-2,3.1-3.9,4.6-5.9,7.6-9.8,1-1.3.7-2.5-.7-2.6-4.1-.4-6.1-.7-10.2-1.1-1.3-.1-3.1.8-4.1,2-2.9,3.9-4.4,5.8-7.4,9.7-1,1.3-.8,2.4.5,2.6Z"/>
            <path class="st19" d="M156.2,506.4c4,.5,5.9.7,9.9,1.2,1.3.2,3.2-.7,4.1-2,3-3.8,4.5-5.8,7.4-9.7.9-1.3.6-2.4-.7-2.6-4-.4-6-.7-10.1-1.1-1.3-.1-3.1.8-4,2-2.8,3.8-4.3,5.8-7.2,9.5-1,1.2-.7,2.4.6,2.5Z"/>
            <path class="st19" d="M139,504.2c3.9.5,5.9.7,9.8,1.2,1.3.2,3.1-.7,4.1-1.9,3-3.8,4.4-5.7,7.2-9.5.9-1.3.6-2.4-.7-2.5-4-.4-6-.7-10-1.1-1.3-.1-3.1.7-4,2-2.7,3.8-4.2,5.7-7.1,9.4-.9,1.2-.7,2.3.6,2.5Z"/>
          </g>
          <path class="st8" d="M248.8,402.1s1.8-4.4.6-8.6c-1.6-5.6-8.1-11-16.4-6.6-13.9,7.3-7.8,29.4-6.9,33.7.9,4.3-2.1,5.8-4.1,5-2.2-.9-5.9-6.6-7.2-14.6.7,3.4,3.6,8.4,6.7,8,3.1-.4-5.7-20.8,8.2-32.1,13.9-11.4,22.6-3.5,26.9,2.5h0c2.3,3.9,3.4,8.5,2.9,13.6l-10.7-.7Z"/>
          <path class="st8" d="M177,398.5l-8.7-.5s0-6.2-1.1-10.1c-1.5-5.1-7.4-10-14.9-6-12.6,6.7-7.1,26.7-6.3,30.6.8,3.9-1.9,5.3-3.7,4.5-1.7-.7-4.5-4.7-6-10.5.7,2.3,3.5,6.6,6.6,6.3,3.1-.3-4-22.9,7.9-33.4,11.9-10.5,22.7,3.3,26.1,12.4,0,0,0,0,0,0,.3,2.1.4,4.3.1,6.6Z"/>
          <path class="st43" d="M219.1,387.2c-3.7,6.9,5.4,5.3,12-1.6,6.6-6.9-7.1-7.6-12,1.6Z"/>
          <path class="st43" d="M138.9,383.6c-3.1,6.1,9-.9,12.6-5.4,3.6-4.5-7.6-4.4-12.6,5.4Z"/>
          <path class="st48" d="M229.6,384.3c-1.3,0-3.2,2.5-2.2,3,1,.5,3.6-3,2.2-3Z"/>
          <path class="st48" d="M148.4,378.6c-3.2,0-3,3.1-1.7,2.9,1.3-.2,2.8-2.9,1.7-2.9Z"/>
          <path class="st8" d="M152.5,381.4c-1.1.3,3.1-4.6,9.6-4.2s8.7,8.1,8.6,10.4c-.1,2.3-5.9-5.3-9.9-6.9-4.1-1.6-8.3.6-8.3.6Z"/>
          <path class="st8" d="M234.5,386c-1.1.3,3.1-4.6,9.6-4.2,6.5.5,8.7,8.1,8.6,10.4-.1,2.3-5.9-5.3-9.9-6.9-4.1-1.6-8.3.6-8.3.6Z"/>
          <path class="st3" d="M208.9,538.8c-1.2-2.7-10.3-15.3-21.5-16.8-11.1-1.5-94.9-12.3-99.5-10.6-4.6,1.7-5,11.4-5,11.4l125.9,16.1Z"/>
          <path class="st3" d="M89,532.9c-1.5-1.1-.9-5.9,2.3-6.2,3.2-.2,114.1,12.9,117.4,14.2,3.3,1.3,2.7,8.1,2.7,8.1l-122.4-16.2Z"/>
          <path class="st3" d="M234.9,523.1s-10.5-14.3-10.8-16.3c-.3-2,11.5-16.1,20.8-41.3,9.3-25.3,17.7-58.4,17.7-58.4,0,0,12.5,5.6,10.8,17.3-1.7,11.8-25.9,77.3-38.5,98.7Z"/>
          <path class="st3" d="M232.4,529.2l4.7,9.1s10.3-6.7,18.8-30c8.4-23.3,25.2-81.8,25.4-85.4.1-3.7-3.6-6.7-3.6-6.7,0,0-23.2,76.3-29.1,89.2-5.9,12.8-16.1,24-16.1,24Z"/>
          <path class="st42" d="M236.2,483.7c-7,13.5-12.4,21.1-12.4,21.1-11.2,17.4-29.1,17.9-29.1,17.9l-108.9-13.5c-2.1-1.5-3.8-3-5.1-4.5,0,0,14.1,6.7,68.4,12.1s63.1-2.3,69.2-7.5c5.9-5.1,17.2-24.4,17.9-25.6Z"/>
          <path class="st42" d="M215.8,423s-.1,5.5,4.1,6.7c4.3,1.2,6.9-7,6.9-7,0,0-1.8,5.1-6.1,5.6-4.3.5-4.9-5.3-4.9-5.3Z"/>
          <path class="st42" d="M135.8,416.4s.8,5.1,4.8,5.4c4,.3,6.1-4.6,6.1-4.6,0,0-2.2,5.9-6.1,5.7-4.7-.3-4.8-6.4-4.8-6.4Z"/>
          <path class="st14" d="M100.2,540.8c-4.5-5.7-14.6-29.3-12.2-29.4,2.4-.2,44.2.9,60.8,11.4,16.6,10.5,16,28.1,9.7,27.9-6.4-.3-58.2-9.8-58.2-9.8Z"/>
        </g>
        <g>
          <path class="st63" d="M310,57.7c-8.5.3,8.6,55.4,28.1,72,19.4,16.5,124.1,65.5,174.2,109.6,50,44.1-6.3-54.8-42.9-91.1-36.6-36.3-141.8-91-159.4-90.5Z"/>
          <path class="st84" d="M527.7,247.5c-3.2-1.4-7.8-4.7-14-10.2-50-44.1-155-95.7-174.4-112.2-7.7-6.5-14.9-18.6-20.4-31,0,0,0,0,0,0-8.4-18.9-12.5-38.2-7.4-38.4,17.6-.6,117,47.6,159.4,90.5,31.7,32.1,79,111.5,56.9,101.4Z"/>
          <path class="st3" d="M330.1,95.1c-8.8-2.7,5.3,23.2,28.7,41.5,23.4,18.2,55.9,27.5,62.7,25.2,6.8-2.2-6.2-20.5-20.6-31.8-14.3-11.3-70.9-34.9-70.9-34.9Z"/>
          <path class="st3" d="M317,62.6c-6.8,5.5,27.6,33.7,67.6,52.3,40.1,18.6,15.8-16.4-9.7-31.3-25.4-15-58-21-58-21Z"/>
          <g>
            <path class="st8" d="M348.9,118.8s8.8-.1,27.5,8.7c18.8,8.8,20.9,19.6,20.9,19.6,0,0-7.9.2-26.2-9.3-17.2-8.9-22.2-19-22.2-19Z"/>
            <path class="st64" d="M393.1,139.7c-2.8,4.6-13.9,1.1-23.6-4.7-9.9-5.9-18.4-14-15.3-18.4,3.7-5.2,13.9-2.7,23,2.5,10.3,5.9,19.2,15.2,15.9,20.6Z"/>
            <path class="st35" d="M369.5,135c-9.9-5.9-18.4-14-15.3-18.4,3.7-5.2,13.9-2.7,23,2.5.4.6,3.7,6.6-7.7,15.9Z"/>
            <path class="st47" d="M370.6,120.8c-3.1-.7,2.5,5.9,10.5,8.9,8,3,.8-6.2-10.5-8.9Z"/>
            <path class="st48" d="M364.2,118.4c-3.3,1.1-.2,2.3,1.8,2.4,2.1,0-.7-2.8-1.8-2.4Z"/>
            <path class="st7" d="M354.1,121c-.5-2.6,12.2,2.6,24.6,10.2,12.4,7.6,12.3,9.8,11.1,10.5-1.2.8-10.1-.6-20.3-6.7-10.2-6.1-15.4-14-15.4-14Z"/>
          </g>
          <g>
            <path class="st8" d="M412.3,153.4s8.7-.2,27.6,8.3c18.9,8.5,21.2,19.3,21.2,19.3,0,0-7.9.3-26.3-8.9-17.3-8.7-22.5-18.6-22.5-18.6Z"/>
            <path class="st65" d="M456.8,173.6c-2.7,4.6-13.8,1.3-23.6-4.4-10-5.7-18.6-13.8-15.5-18.2,3.6-5.3,13.9-2.9,23,2.2,10.4,5.7,19.4,14.9,16.2,20.3Z"/>
            <path class="st68" d="M433.2,169.3c-10-5.7-18.6-13.8-15.5-18.2,3.6-5.3,13.9-2.9,23,2.2.4.6,3.8,6.5-7.5,16Z"/>
            <path class="st47" d="M434.1,155c-3.1-.7,2.6,5.8,10.7,8.7,8.1,2.9.7-6.2-10.7-8.7Z"/>
            <path class="st48" d="M427.6,152.7c-3.3,1.1-.2,2.3,1.9,2.4,2.1,0-.8-2.7-1.9-2.4Z"/>
            <path class="st7" d="M417.6,155.4c-.5-2.6,12.2,2.4,24.7,9.8,12.6,7.4,12.5,9.6,11.3,10.4-1.2.8-10.1-.4-20.4-6.4-10.3-6-15.6-13.8-15.6-13.8Z"/>
          </g>
          <g>
            <path class="st8" d="M472.2,189.5s8.7,1,26.2,12.1c17.5,11.1,18.2,22.1,18.2,22.1,0,0-7.8-.8-24.7-12.6-15.9-11-19.6-21.7-19.6-21.7Z"/>
            <path class="st66" d="M513.4,215.9c-3.4,4.2-13.9-.7-22.8-7.7-9.1-7.1-16.4-16.3-12.8-20.2,4.4-4.7,14.1-.9,22.5,5.5,9.4,7.2,17.1,17.5,13.1,22.4Z"/>
            <path class="st69" d="M490.7,208.2c-9.1-7.1-16.4-16.3-12.8-20.2,4.4-4.7,14.1-.9,22.5,5.5.3.6,2.8,7-9.7,14.7Z"/>
            <path class="st47" d="M493.6,194.2c-3-1.1,1.7,6.1,9.3,10.1s1.6-6-9.3-10.1Z"/>
            <path class="st48" d="M487.5,191c-3.4.6-.5,2.3,1.5,2.6,2,.3-.4-2.8-1.5-2.6Z"/>
            <path class="st7" d="M477.2,192.3c-.2-2.6,11.7,4.1,23.1,13.3,11.4,9.1,11,11.3,9.7,11.9-1.3.6-9.9-1.9-19.3-9.2s-13.5-15.9-13.5-15.9Z"/>
          </g>
          <g>
            <path class="st8" d="M327.3,73.3s8.4-.1,26.4,8.3c18,8.5,20,18.8,20,18.8,0,0-7.6.2-25.1-8.9-16.5-8.6-21.3-18.2-21.3-18.2Z"/>
            <path class="st61" d="M369.8,93.4c-2.7,4.4-13.3,1-22.6-4.5-9.5-5.6-17.6-13.5-14.7-17.7,3.6-5,13.3-2.6,22.1,2.5,9.9,5.7,18.4,14.6,15.2,19.7Z"/>
            <path class="st70" d="M347.2,88.8c-9.5-5.6-17.6-13.5-14.7-17.7,3.6-5,13.3-2.6,22.1,2.5.3.6,3.5,6.3-7.4,15.2Z"/>
            <path class="st47" d="M348.2,75.2c-3-.7,2.4,5.6,10.1,8.5s.8-5.9-10.1-8.5Z"/>
            <path class="st48" d="M342.1,72.9c-3.2,1-.2,2.2,1.8,2.3,2,0-.7-2.6-1.8-2.3Z"/>
            <path class="st7" d="M332.4,75.3c-.5-2.5,11.7,2.5,23.6,9.8,11.9,7.3,11.8,9.4,10.7,10.1-1.2.7-9.7-.6-19.5-6.4-9.8-5.9-14.8-13.5-14.8-13.5Z"/>
          </g>
          <g>
            <path class="st8" d="M384.8,103.7s8.4-.2,26.5,8c18.1,8.2,20.3,18.5,20.3,18.5,0,0-7.6.3-25.2-8.6-16.6-8.3-21.6-17.9-21.6-17.9Z"/>
            <path class="st60" d="M427.6,123.1c-2.6,4.4-13.3,1.2-22.7-4.2-9.6-5.5-17.8-13.2-14.9-17.5,3.5-5.1,13.3-2.8,22.1,2.1,9.9,5.5,18.6,14.3,15.5,19.5Z"/>
            <path class="st71" d="M404.9,118.9c-9.6-5.5-17.8-13.2-14.9-17.5,3.5-5.1,13.3-2.8,22.1,2.1.4.6,3.6,6.3-7.2,15.3Z"/>
            <path class="st47" d="M405.8,105.3c-3-.7,2.5,5.6,10.2,8.4,7.8,2.8.7-5.9-10.2-8.4Z"/>
            <path class="st48" d="M399.6,103c-3.2,1.1-.2,2.2,1.8,2.3s-.7-2.6-1.8-2.3Z"/>
            <path class="st7" d="M389.9,105.7c-.5-2.5,11.7,2.3,23.7,9.4,12,7.1,12,9.2,10.8,10s-9.7-.4-19.6-6.1c-9.9-5.7-15-13.3-15-13.3Z"/>
          </g>
          <g>
            <path class="st8" d="M440,135.3s8.3,1,25.1,11.7c16.8,10.7,17.5,21.2,17.5,21.2,0,0-7.5-.8-23.8-12.1-15.2-10.6-18.8-20.8-18.8-20.8Z"/>
            <path class="st62" d="M479.6,160.7c-3.2,4-13.3-.7-21.9-7.4-8.7-6.8-15.8-15.6-12.3-19.4,4.2-4.5,13.6-.8,21.6,5.3,9.1,6.9,16.4,16.8,12.6,21.5Z"/>
            <path class="st73" d="M457.7,153.3c-8.7-6.8-15.8-15.6-12.3-19.4,4.2-4.5,13.6-.8,21.6,5.3.3.6,2.7,6.7-9.3,14.1Z"/>
            <path class="st47" d="M460.5,139.9c-2.9-1.1,1.6,5.9,8.9,9.7,7.3,3.8,1.5-5.8-8.9-9.7Z"/>
            <path class="st48" d="M454.7,136.8c-3.3.6-.5,2.2,1.4,2.5,2,.3-.3-2.7-1.4-2.5Z"/>
            <path class="st7" d="M444.8,138c-.2-2.5,11.2,4,22.2,12.7,10.9,8.8,10.5,10.8,9.3,11.4-1.3.6-9.5-1.8-18.5-8.9-9-7.1-12.9-15.3-12.9-15.3Z"/>
          </g>
          <path class="st6" d="M320.2,88.1s63.9,24.3,112.9,52.9c49,28.6,69.2,48.2,69.2,48.2,0,0-71.7-56.8-182.1-101.1Z"/>
          <path class="st48" d="M324.4,90.1s76.5,36.4,100.5,49.7c24,13.3,43.4,25.8,43.4,25.8,0,0-44.2-29.7-90.5-51.8-46.3-22.1-53.4-23.7-53.4-23.7Z"/>
          <path class="st48" d="M527.7,247.5c-3.2-1.4-7.8-4.7-14-10.2-50-44.1-155-95.7-174.4-112.2-7.7-6.5-14.9-18.6-20.4-31,1.1,1.6,18.4,27.1,32.8,37.7,14.8,10.9,119.8,71.1,143.6,88.9,23.9,17.8,32.4,26.8,32.4,26.8Z"/>
          <path class="st12" d="M346,135.4s4.1-1.8,16.2,4.8c12.1,6.6,73.5,42.6,87.4,52.3,13.9,9.7-51.8-27-70.1-37.4-18.3-10.4-33.6-19.6-33.6-19.6Z"/>
          <path class="st12" d="M330.5,121.2c-.7-7.1-8.7-20.6-13.3-31.1-4.6-10.4-7.3-23.4-7.3-23.4,0,0,.6,24.2,20.6,54.4Z"/>
        </g>
        <g>
          <path class="st83" d="M201.9,295.3h0c7.6,18.1,3.9,31.5,3.9,31.5l-3.1-.5c-3.2,5.5-15.7,8.6-30.9,6.4,0,0,0,0,0,0-6.3-.9-13.1-2.7-19.9-5.6-23.1-10-23.7-30.5-30.1-64.1-6.3-33.6,40.2-18,65.6,10.2,7,7.7,11.5,15.3,14.4,22.1Z"/>
          <path class="st18" d="M133.6,308.9c-6.2-16.3,20.9-35.1,44.7-20.6,23.9,14.5-5.1-21-24.8-27.5-19.7-6.5-27.6,6.9-28.8,9-1.2,2.1-2.1-8.8,11.1-14.6s41.3,15.1,55.7,34.2c14.4,19.2,13.8,28.2,13.8,28.2,0,0,1.8-16.3-19.8-39.2-21.6-22.8-46.2-32.2-56.1-30.5s-9.2,11.8-6.2,22.1c3,10.3,3.7,25.2,5.7,30,2,4.8,4.6,8.8,4.6,8.8Z"/>
          <path class="st46" d="M202,295.4c7.6,18.1,3.9,31.4,3.9,31.4l-3.1-.5c-3.2,5.5-15.7,8.6-30.9,6.4,7.9.6,26.6-8.2,28.6-9.9,2-1.8-6-11.1-9.7-22.3-3.7-11.2,9.2,1,12.6,8.9,3.4,7.7-1.2-13.3-1.4-14Z"/>
          <path class="st16" d="M132.1,307.7s-4.7-14.7-2.4-28.8c2.3-14.1-3.4-17-5.7-21.2-2.3-4.2-.3-8.8-.3-8.8,0,0-3.9,2.5-1.4,16.3,2.5,13.8,4.9,28.6,6.7,35,1.7,6.4,3.2,7.6,3.2,7.6Z"/>
          <path class="st11" d="M153.4,248.7c-8.6-.7,7.9,26.1,16.4,32.8,8.5,6.7,22.7,11,30.2,22.4,7.6,11.5,1.9-13.3-16-34.4-17.9-21.1-30.7-20.8-30.7-20.8Z"/>
          <path class="st16" d="M167.1,331.9s12,1.2,21.6-1.2c9.6-2.3,14.1-4.4,14.1-4.4,0,0-1.5,4.3-11.5,6.2-10,1.9-24.2-.6-24.2-.6Z"/>
        </g>
        <g>
          <path class="st34" d="M576.3,160.7c-18.2,13.1-60.6-2.7-67.8-3.8-2.9-.4-4.7-2-5.8-3.7-1.6-2.5-1.8-5.2-1.8-5.2-2-1.9-35.2-27.4-33.9-59.8.2-4.1,1.2-7.5,3-10.1,12-18.5,56.1-6.4,61.5-4.2,6.2,2.6-4.5,23.4-4.9,33.1,0,0,8.5-29.5,11.3-33,2.8-3.5,45.8,11.3,59.8,26.6,14,15.3-3.2,47-21.4,60.1Z"/>
          <path class="st18" d="M537.4,85.8c4.5-4,52.8,15.1,59.9,31.9,7.1,16.9-35.9,35-76.2,23.7-40.3-11.3-49.7-37.3-47.1-49.2,2.6-11.8,52.5-9.3,54.5-6.6,2.1,2.8-3.3,24.7-3.3,24.7,0,0,8.2-21.1,12.1-24.5Z"/>
          <path class="st46" d="M499.9,133.4c-9.2-4.1-3.3,12.4,10.7,21,14,8.7,51.6,11.5,66.9.1s-23.9-7.4-47.5-11.5c-23.5-4.1-30.1-9.7-30.1-9.7Z"/>
          <path class="st16" d="M537.8,74c1.3-1.8-1.6,11.1-6.2,21.4-4.5,10.3-6.3,15.7-6.3,15.7,0,0,8.7-32,12.5-37.1Z"/>
          <path class="st15" d="M505.7,155.8l-3-2.5c-1.6-2.5-1.8-5.2-1.8-5.2-2-1.9-35.2-27.4-33.9-59.8.2-4.1,1.2-7.5,3-10.1-2.8,7.8-.5,33.7,15.2,51.8,15.7,18.1,20.1,20.7,21.7,23.1,1.5,2.3-1.1,2.8-1.1,2.8Z"/>
          <path class="st13" d="M556.8,77.7c5.5,8.6-16,55.1-30.2,64.6-14.2,9.6-16,12.1-16,12.1,0,0,13.7-9.4,25.6-18.8,11.9-9.4,25.2-23.9,30-34.7s29.5,4.5,8.7,25.3c-25.9,26-55.8,26.8-60.1,28.9-4.2,2.1,26.4-.9,53.7-19.7,34.1-23.5,19.5-40.4,14.9-45-4.6-4.6-26.6-12.8-26.6-12.8Z"/>
          <path class="st46" d="M476.1,74.4c-7.6,5,12.1,8.9,33.2,8.9,21.2,0,19.3-8.4,19.3-8.4,0,0-34.7-12.3-52.5-.5Z"/>
        </g>
        <g>
          <path class="st29" d="M528.7,408.3c1,1.8,0,9.4-1.5,12.6-5,11.2-39.1,22.1-52.9,6.8-7-7.7-4.5-18.4-1.2-23.3,8.9-13.8,46.7-12.3,55.6,3.9Z"/>
          <path class="st72" d="M473.1,404.4c-9.4,13.1,11.6,29,45.8,13.4,34.4-15.7-31.6-33.2-45.8-13.4Z"/>
          <path class="st81" d="M482.8,399.7c-1.6,1.9,30.7,13.7,35.9,15.5,5.2,1.7-7.3-6.1-17.2-10.3-9.9-4.1-18.7-5.2-18.7-5.2Z"/>
          <path class="st14" d="M477,430.2c-4-4.1-5.3-8.1-5.1-10.4.2-2.3,5.6,3.8,25.7,5.2,20.1,1.4,4.9,10.3-3.9,10.3-8.8,0-16.7-5.1-16.7-5.1Z"/>
          <path class="st45" d="M482.7,420.9c-10.9-3.2,2.9-13.1,12.8-12.4,9.9.7,19.4,7.8,20,9.1.6,1.4-15,8.5-32.8,3.3Z"/>
          <path class="st45" d="M482.7,398.2c-2,1.1,19.8,4.5,29,6.7,9.2,2.2,6.6-6.2-2.8-8.7-9.4-2.5-21.7-.4-26.3,2Z"/>
          <path class="st14" d="M490.7,404.4c-9.9-5.1.5-3.9,8.2-.5,7.7,3.4,10.5,7.9,10.5,7.9l-18.7-7.4Z"/>
          <path class="st88" d="M472.8,416.8s9.1,6.6,20.4,6.6c11.3,0,28.3-6.9,28.3-6.9,0,0-10.6,6.5-28.2,8.1-17.7,1.6-20.5-7.8-20.5-7.8Z"/>
        </g>
        <g>
          <path class="st36" d="M441.7,520.4c-2.8,2.1-4,5.3-5.8,12.1-5,18.1,10.3,48.5,37.1,33.5,8.3-4.7,11.5-12.7,13-17.8,5.7-19.1-24.2-42.6-44.3-27.8Z"/>
          <path class="st31" d="M445.3,516.1c-17.5,12.9-3.4,58.7,29.5,42.7,32.9-16-4-61.4-29.5-42.7Z"/>
          <path class="st67" d="M456.3,516.5c-1.3-.7,11.4,35.6,12.9,38,1.5,2.4,2.5-30.2-12.9-38Z"/>
          <path class="st0" d="M459.6,569c-4.8.2,10.3-7.6,14.5-9.9,4.3-2.4,8.4-4.5,8.4-4.5,0,0-2.4,13.5-22.9,14.4Z"/>
          <path class="st1" d="M438.8,556c1.3,2.3,5.5-1.6,3.4-5.7-2-4.1-4.6-7.8-4.5-17.6,0,0-6.1,1.9,1.1,23.3Z"/>
          <path class="st0" d="M457.2,520.5c0-3.5,8.8,5.4,10.3,13.3,1.5,7.9-.9,12.2-1.3,12.2-.4,0-9.1-25.5-9.1-25.5Z"/>
          <path class="st42" d="M458.4,524.2s1.2,8,2.9,18.7c1.7,10.8,9.2,15.7,9.2,15.7l-12.2-34.5Z"/>
          <path class="st42" d="M446.5,555.8s14.3,6.4,24.5,4.5c0,0-13.8,6.7-24.5-4.5Z"/>
        </g>
        <g>
          <path class="st52" d="M237.9,106.6c-16.9,8.1-11.5,21,8.4,35.8,20,14.9,29.6-22.1,29.7-32,0-9.9-21-12-38.1-3.8Z"/>
          <path class="st6" d="M229.7,117.2c-2.5,5.9,2.2,10.7,10.5,16.2,8.3,5.4.6-10.1,11.1-20.9,10.5-10.9,18.2-1.7,20.5-5.2,2.4-3.4-34.6-7.9-42.1,9.9Z"/>
          <path class="st45" d="M244.6,136.9c-1.8-2.4,16.1-1.1,23.5-11.2,7.4-10.1-4.6,20.3-12.7,18.8-8.2-1.5-10.8-7.6-10.8-7.6Z"/>
          <path class="st20" d="M260.5,111.8c-.8,3.2,3.6,4.5,6.2.4s-3.9-9.4-6.2-.4Z"/>
        </g>
        <g>
          <path class="st54" d="M545.9,335.7c-4.4-2.2,4.1-15.1,9.5-10.6,5.4,4.6-3.1,13.8-9.5,10.6Z"/>
          <path class="st6" d="M548.4,327.3c-1.7,3.4,4.8,4.1,6.4,2.7s.6-4-1.7-5c-2.3-1-4.7,2.3-4.7,2.3Z"/>
          <path class="st45" d="M548.2,336.2c-5.1-.3,4.3-5.4,5.7-5.3s-.8,5.7-5.7,5.3Z"/>
          <path class="st20" d="M552.9,327c-1.2,2.5,0,3.2,1,1.2,1-2-.7-1.9-1-1.2Z"/>
        </g>
        <g>
          <path class="st51" d="M203.8,99.2c6.3-3.2-5.8-21.7-13.6-15.2-7.8,6.5,4.4,19.8,13.6,15.2Z"/>
          <path class="st6" d="M200.2,87c2.4,4.8-6.9,5.9-9.2,3.8-2.3-2.1-.9-5.7,2.5-7.1,3.3-1.4,6.7,3.3,6.7,3.3Z"/>
          <path class="st45" d="M200.6,99.8c7.3-.5-6.2-7.8-8.2-7.6-2,.1,1.1,8.1,8.2,7.6Z"/>
          <path class="st20" d="M193.9,86.6c1.7,3.5,0,4.6-1.4,1.8-1.4-2.9.9-2.8,1.4-1.8Z"/>
        </g>
        <g>
          <path class="st53" d="M245.2,317.3c-22.8-13.4-19,37.6,12.7,39.9,31.7,2.3,13.5-24.5-12.7-39.9Z"/>
          <path class="st6" d="M246.3,349.2c-4.3,1.5-16.3-16.6-11.5-27.7,4.8-11.2,28.7,11,34.2,17.5,5.5,6.5-.2,12.3-9.6,11.8-9.4-.5,2.2-1.9-2.5-14.4-4.8-12.5-16.7-15.3-19.9-12.7s4.1,18.3,10,13.1c5.8-5.2-.7,12.4-.7,12.4Z"/>
          <path class="st45" d="M247.7,353.1c-1.4-3.9,11.7-1.3,20.2-3,8.5-1.6,5.9,5.5-2,6.3-7.9.8-18.1-3.4-18.1-3.4Z"/>
          <path class="st45" d="M262.8,335.9c-3.5,2.3,1.7,7.2,4.6,6.4,2.9-.8-3.8-6.9-4.6-6.4Z"/>
          <path class="st20" d="M237.5,336.2c3.9,5.1,8.7,1.6,4.1-7-4.7-8.6-7.9,1.9-4.1,7Z"/>
        </g>
        <path class="st89" d="M283.2,49.5c-17.9,1-12.1,21,1.8,34,14,13,10.5-34.7-1.8-34Z"/>
        <path class="st89" d="M546.6,203.8c-7.9,2,.6,23.2,9,26.5,8.4,3.3,14.8-32.4-9-26.5Z"/>
        <path class="st89" d="M290.5,556.4c-5.2,18.7,16.9,9,29.6-7.4,12.8-16.4-20.7-24.4-29.6,7.4Z"/>
        <g>
          <path class="st79" d="M158.4,611c-.5-.2-1.1-.5-1.8-.8h0c-6.6-3.6-20.4-15.3-46.6-18.9-29-4-30.9,14.9-49.3,10.7-.9-.2-1.6-.4-2.4-.7,0,0,0,0,0,0-14.9-5.3-3.3-22.3,22.8-25.1,8.4-.9,13.4-2.1,15.3-3.7,0,0,0,0,.2-.2,0,0,.2-.2.2-.3,0,0,0-.1.1-.2,2-3.5-10.5-8.5-36.3-15.3-25.2-6.6-35.7-11.8-39.4-18.8h0c-2.2-4.1-2.1-8.7-1.4-14.5,1.9-16,33.5,19.9,44.8,13,11.4-6.9-30.9-30.8-48.6-54.1-17.7-23.2-1.9-39.7,14.5-40.3,16.4-.6,38.1,82.3,52.8,99.4,14.7,17.1,7.3-31.6,2.9-57.9-4.3-26.3,19-6.9,29.4,14.7,10.4,21.5-14.4,40.5-11.8,61,2.6,20.5,23.7,27.8,25,18.6,1.2-9.2-9.3-33.8,5-47.2,14.3-13.4,22.3,33.3,15.5,49.4-6.8,16.1,10.5,27,12.7,30.1,2.2,3-3.6,1.2-3.6,1.2Z"/>
          <path class="st75" d="M162,609.8s-21.7-18.2-42.8-24.1c-21.2-5.8-38-2.8-47.7,3.5-9.7,6.3-10.7,5.8-11.2,5.6-.6-.2,12.8-8.6,25.1-11.8,12.3-3.2,23.9-.7,27.6.2,3.7.9-17.3-23.5-28.8-28.4-11.5-4.9-31.4-6.3-41.8-10.9-10.4-4.6-13.4-7.9-12.1-9.4s12.3,8.3,28.1,12.7c15.8,4.4,19.6,4.9,22.6,3.8,3-1.1-7.2-22.5-30.4-48.5-23.2-26.1-31.2-44.8-31.2-47.2s14.3,25.8,34.1,48.5c19.8,22.7,29.1,45.2,30.5,48,1.4,2.8,12.3,9.3,12.9,9.9.7.6,2.1-20.2,3.6-36.2,1.5-16-2.7-43.2-1.9-44.2s4.3,32,3.3,48.5c-.9,16.6-4.3,30.9-3.8,33.3.5,2.4,15.4,17.1,18.5,19.6,3.1,2.5,16.1,6.7,26.1,12.1,10.1,5.4,19.3,14.9,19.3,14.9Z"/>
          <path class="st9" d="M87.7,491.9c1.9-3.5,6.8,20.7,14.3,32.3,7.5,11.6-1.6,33.5-1.4,38.5.2,5-7.2.1-9.9-7.6s1.7-10.3,2.2-25.6c.5-15.3-5.2-37.7-5.2-37.7Z"/>
          <path class="st9" d="M129.7,583.4c-2-3.3.6-8-1.3-22.9-1.8-14.9,16.7-2.9,19.6,5.5,2.9,8.4-4,22.4-.7,28.9,3.4,6.5-17.7-11.6-17.7-11.6Z"/>
          <path class="st74" d="M142.7,594.9c-9.6-11.4-6.6-52.4-5.4-58.8,1.3-6.4-3.1,11.1-2,29.9,1.1,18.8,5.3,27.9,5.3,27.9l2.1,1.1Z"/>
          <path class="st9" d="M79.6,578.3c-6.8.9,8.9,8.6,23.2,9,14.3.4,4-9.3,0-12.8-4-3.4-16.7,3-23.2,3.8Z"/>
          <path class="st10" d="M96.9,571.7c2-3.5-10.5-8.5-36.3-15.3-25.2-6.6-35.7-11.8-39.4-18.8h0c3.4,4.3,21.5,15.1,53.4,20.5,26.5,4.5,24,11.3,22.3,13.5Z"/>
          <path class="st10" d="M156.6,610.2c-6.6-3.6-20.4-15.3-46.6-18.9-29-4-30.9,14.9-49.3,10.7-.9-.2-1.6-.4-2.4-.7,10,2.4,17.4-2.8,29.4-9.5,12-6.7,40.4,1.5,52.1,6.8,11.3,5.2,16.5,11.3,16.8,11.6Z"/>
        </g>
      </g>
    </g>
  </g>
</svg>