<?xml version="1.0" encoding="UTF-8"?>
<svg id="Layer_1" xmlns="http://www.w3.org/2000/svg" version="1.1" viewBox="0 0 80 80">
  <!-- Generator: Adobe Illustrator 30.2.1, SVG Export Plug-In . SVG Version: 2.1.1 Build 1)  -->
  <defs>
    <style>
      .st0 {
        fill: #7190ff;
      }

      .st1 {
        fill: #fff;
        isolation: isolate;
        opacity: .9;
      }
    </style>
  </defs>
  <path class="st0" d="M40,0h0C62.1,0,80,17.9,80,40h0c0,22.1-17.9,40-40,40h0C17.9,80,0,62.1,0,40h0C0,17.9,17.9,0,40,0Z"/>
  <path class="st1" d="M40,18s-16,16-16,28,7.2,16,16,16,16-7,16-16-16-28-16-28ZM33.8,56.5c-.2.3-.6.4-.9.4s-.6,0-.9-.3c-3.6-3.4-5.2-7.5-4.2-11.5.2-.7.8-1.1,1.5-.9.7.2,1.1.8.9,1.5-.7,3.1.6,6.4,3.5,9.1.5.5.5,1.3,0,1.8h.1Z"/>
</svg>