<?xml version="1.0" encoding="UTF-8"?>
<svg id="Layer_2" xmlns="http://www.w3.org/2000/svg" xmlns:xlink="http://www.w3.org/1999/xlink" version="1.1" viewBox="0 0 412.7 360.5">
  <!-- Generator: Adobe Illustrator 30.2.1, SVG Export Plug-In . SVG Version: 2.1.1 Build 1)  -->
  <defs>
    <style>
      .st0 {
        fill: url(#linear-gradient1);
      }

      .st1 {
        fill: #f28499;
      }

      .st2 {
        fill: url(#linear-gradient);
      }

      .st3 {
        fill: #fcebfd;
      }

      .st4 {
        fill: #fff;
      }

      .st5 {
        fill: #e772ee;
        opacity: .1;
      }

      .st5, .st6 {
        isolation: isolate;
      }

      .st7 {
        opacity: .3;
      }

      .st8 {
        fill: #fea6cf;
      }

      .st6 {
        fill: url(#linear-gradient2);
        opacity: .6;
      }

      .st9 {
        fill: #fe8abf;
      }
    </style>
    <linearGradient id="linear-gradient" x1="117.4" y1="169.1" x2="293" y2="169.1" gradientTransform="translate(0 361.3) scale(1 -1)" gradientUnits="userSpaceOnUse">
      <stop offset="0" stop-color="#ed5673"/>
      <stop offset=".3" stop-color="#ed5673"/>
      <stop offset=".4" stop-color="#ed5673"/>
      <stop offset=".6" stop-color="#ed5673"/>
      <stop offset=".8" stop-color="#ed5673"/>
      <stop offset="1" stop-color="#ed5673"/>
    </linearGradient>
    <linearGradient id="linear-gradient1" x1="70.2" y1="102.8" x2="340.3" y2="102.8" gradientTransform="translate(0 361.3) scale(1 -1)" gradientUnits="userSpaceOnUse">
      <stop offset="0" stop-color="#faccd5"/>
      <stop offset="0" stop-color="#faccd5"/>
      <stop offset=".3" stop-color="#fbd5dc"/>
      <stop offset="1" stop-color="#fbd5dc"/>
    </linearGradient>
    <linearGradient id="linear-gradient2" x1="244.7" y1="83.5" x2="312.8" y2="83.5" gradientTransform="translate(0 361.3) scale(1 -1)" gradientUnits="userSpaceOnUse">
      <stop offset=".5" stop-color="#faccd5"/>
      <stop offset=".6" stop-color="#f9c9d2"/>
      <stop offset=".8" stop-color="#f3bbf7"/>
      <stop offset="1" stop-color="#efa3f4"/>
      <stop offset="1" stop-color="#ed98f3"/>
    </linearGradient>
  </defs>
  <g id="OBJECTS">
    <g>
      <ellipse class="st3" cx="205.4" cy="342.9" rx="203.2" ry="17.6"/>
      <g>
        <polygon class="st1" points="406.1 215.4 406.1 209.6 402.2 209.6 402.2 215.4 396.5 215.4 396.5 219.2 402.2 219.2 402.2 224.9 406.1 224.9 406.1 219.2 411.8 219.2 411.8 215.4 406.1 215.4"/>
        <polygon class="st1" points="370 31.6 370 22.8 364.2 22.8 364.2 31.6 355.4 31.6 355.4 37.4 364.2 37.4 364.2 46.2 370 46.2 370 37.4 378.8 37.4 378.8 31.6 370 31.6"/>
        <polygon class="st1" points="354.1 201.1 354.1 196.9 351.4 196.9 351.4 201.1 347.2 201.1 347.2 203.9 351.4 203.9 351.4 208 354.1 208 354.1 203.9 358.3 203.9 358.3 201.1 354.1 201.1"/>
        <polygon class="st1" points="115.7 55.7 115.7 51.5 112.9 51.5 112.9 55.7 108.8 55.7 108.8 58.4 112.9 58.4 112.9 62.6 115.7 62.6 115.7 58.4 119.9 58.4 119.9 55.7 115.7 55.7"/>
        <polygon class="st1" points="83.5 28 83.5 22.3 79.7 22.3 79.7 28 73.9 28 73.9 31.8 79.7 31.8 79.7 37.6 83.5 37.6 83.5 31.8 89.2 31.8 89.2 28 83.5 28"/>
      </g>
      <g>
        <path class="st8" d="M187.3,74.7c0,1.2-1,2.2-2.2,2.2s-2.2-1-2.2-2.2,1-2.2,2.2-2.2,2.2,1,2.2,2.2Z"/>
        <path class="st8" d="M196.3,37.2c0,1.2-1,2.2-2.2,2.2s-2.2-1-2.2-2.2,1-2.2,2.2-2.2,2.2,1,2.2,2.2Z"/>
        <circle class="st8" cx="238.9" cy="55.1" r="4.1"/>
        <path class="st8" d="M410.7,175.4c0,1.2-1,2.2-2.2,2.2s-2.2-1-2.2-2.2,1-2.2,2.2-2.2,2.2,1,2.2,2.2Z"/>
        <path class="st8" d="M408.5,243.6c0,1.2-1,2.2-2.2,2.2s-2.2-1-2.2-2.2,1-2.2,2.2-2.2,2.2,1,2.2,2.2Z"/>
        <path class="st8" d="M76.1,124.4c0,1.2-1,2.2-2.2,2.2s-2.2-1-2.2-2.2,1-2.2,2.2-2.2,2.2,1,2.2,2.2Z"/>
        <circle class="st8" cx="38.1" cy="33.8" r="4.1"/>
        <path class="st8" d="M119.6,10.5c0,1.2-1,2.2-2.2,2.2s-2.2-1-2.2-2.2,1-2.2,2.2-2.2,2.2,1,2.2,2.2Z"/>
      </g>
      <g>
        <g>
          <path class="st8" d="M322.7,323.5s-36.2-72.3,62-120.3c0,0,7.5,103.1-62,120.3Z"/>
          <path class="st8" d="M326.9,314.3c0-10.3,2.1-20.6,5.1-30.5.4-1.2.7-2.5,1.1-3.7l1.3-3.7,1.3-3.7,1.5-3.6c1.9-4.8,4.4-9.4,6.7-14.1l3.9-6.7c1.3-2.3,2.7-4.4,4.1-6.6,1.5-2.1,2.9-4.3,4.4-6.4,1.6-2.1,3.1-4.1,4.7-6.2l2.4-3.1,2.6-2.9,5.2-5.8c.9-1,1.8-1.9,2.7-2.8l2.8-2.7c1.9-1.8,3.7-3.6,5.6-5.3-1.6,2-3.2,4-4.9,6l-2.5,2.9c-.8,1-1.7,1.9-2.4,3l-4.7,6.1-2.4,3-2.2,3.1c-1.5,2.1-2.9,4.2-4.4,6.3-1.4,2.1-2.7,4.3-4.1,6.4-2.9,4.2-5.2,8.8-7.8,13.2-4.8,9-9,18.3-12.5,27.9-3.4,9.6-6.3,19.5-7.7,29.6h0l.2.3Z"/>
          <path class="st5" d="M381,202.5c-1.4,24.9-9.9,91-61.4,105.9,1.9,7.5,4.1,12,4.1,12,69.5-17.3,62-120.3,62-120.3-1.6.8-3.2,1.6-4.7,2.4h0Z"/>
        </g>
        <g>
          <g>
            <path class="st9" d="M313.8,346.8s5.1-22,26.7-48.7c23.6-29.2,54.4-39.8,67.1-25.7,12.4,13.6,1.9,32.5-30.1,42.1s-50,13.8-63.7,32.3h0Z"/>
            <path class="st1" d="M397.5,280c-7.3,2.9-14.4,6.2-21.3,9.8-6.9,3.6-13.7,7.5-20.1,11.8-6.5,4.3-12.6,9.1-18.4,14.4-5.7,5.3-10.9,11.1-15.4,17.5,1.8-3.5,4-6.8,6.3-10,2.4-3.1,5-6.2,7.7-9,5.5-5.7,11.8-10.6,18.3-15,3.3-2.2,6.7-4.2,10.1-6.2,3.5-1.9,7-3.7,10.6-5.3,7.2-3.3,14.6-6,22.2-8h0Z"/>
          </g>
          <path class="st5" d="M407.6,272.4c-.7-.8-1.5-1.4-2.2-2.1-10.4,25.4-40.6,43.7-76.4,43.8-12,18.9-15.2,32.7-15.2,32.7,13.8-18.5,31.8-22.7,63.7-32.3,31.9-9.6,42.5-28.5,30.1-42.1h0Z"/>
        </g>
        <g>
          <path class="st9" d="M128.5,334.4s-74.3,31.9-116.5-68.9c0,0,103.3-1.5,116.5,68.9Z"/>
          <path class="st8" d="M122.6,330.9c-10.3-.6-20.5-3.3-30.2-6.9-1.2-.5-2.4-.9-3.7-1.4l-3.6-1.5-3.6-1.5-3.5-1.7c-4.7-2.2-9.1-4.9-13.7-7.5l-6.5-4.3c-2.2-1.4-4.3-3-6.3-4.5-2-1.6-4.2-3.1-6.2-4.8-2-1.7-3.9-3.4-5.9-5.1l-2.9-2.6-2.8-2.7-5.5-5.5c-.9-.9-1.8-1.9-2.6-2.9l-2.5-2.9c-1.7-2-3.3-3.9-5-5.9,1.9,1.7,3.8,3.5,5.7,5.2l2.8,2.6c.9.9,1.8,1.8,2.8,2.6l5.8,5,2.9,2.5,3,2.4c2,1.6,4,3.2,6,4.8,2,1.6,4.1,3,6.2,4.5,4.1,3.1,8.5,5.7,12.7,8.5,8.7,5.3,17.7,10,27.1,14.1,9.4,4,19.1,7.4,29.2,9.5h.3Z"/>
          <path class="st5" d="M14.1,270.4c24.8,2.8,90.2,15.2,102.2,67.4,7.6-1.4,12.2-3.4,12.2-3.4-13.2-70.4-116.5-68.9-116.5-68.9.7,1.6,1.4,3.2,2.1,4.8h0Z"/>
        </g>
        <g>
          <g>
            <path class="st8" d="M97.9,307.3s-.4-22.6-15.8-53.3c-16.9-33.6-44.7-50.4-60.2-39.3-15,10.7-8.7,31.4,20.5,47.5,29.2,16.2,45.9,24.1,55.5,45.1h0Z"/>
            <path class="st1" d="M30.3,224.3c6.5,4.4,12.7,9.1,18.8,14.1,6,5,11.8,10.2,17.2,15.8,5.4,5.6,10.4,11.6,14.9,17.9,4.4,6.4,8.3,13.2,11.4,20.4-1-3.8-2.4-7.5-4-11.1-1.7-3.6-3.5-7.1-5.7-10.4-4.2-6.7-9.2-12.9-14.7-18.6-2.8-2.8-5.6-5.6-8.6-8.2-3-2.6-6-5.1-9.2-7.4-6.3-4.7-13-9-20-12.5h-.1Z"/>
          </g>
          <path class="st5" d="M22,214.7c.8-.6,1.7-1.1,2.6-1.5,4.7,27,30.4,51.4,65.4,59,7.7,21,7.9,35.2,7.9,35.2-9.5-21-26.3-28.9-55.5-45.1-29.2-16.2-35.5-36.8-20.5-47.5h0Z"/>
        </g>
      </g>
      <g>
        <path class="st1" d="M303.8,329.2c-.8,5.4-6.2,9.7-12,9.7H121.4c-5.8,0-11.2-4.4-12.1-9.7l-28.2-171.2c-.9-5.3,3.1-9.7,8.9-9.7h230.7c5.8,0,9.8,4.4,9,9.7l-25.9,171.2h0Z"/>
        <g>
          <polygon class="st2" points="261 91.1 117.4 91.1 117.4 293.3 293 293.3 293 123.5 261 91.1"/>
          <polygon class="st8" points="261 91.1 293.2 123.3 261 123.3 261 91.1"/>
        </g>
        <g>
          <path class="st0" d="M222,207c-4.5,0-9.3-3.5-10.7-7.9l-6.6-21.3c-1.3-4.3-6.1-7.9-10.7-7.9h-116.9c-4.5,0-7.6,3.6-6.8,8.1l28.5,160.9c.8,4.5,5.1,8.1,9.7,8.1h202.6c4.5,0,8.8-3.7,9.5-8.1l19.6-123.9c.7-4.5-2.4-8.1-6.9-8.1l-111.4.2h0Z"/>
          <path class="st4" d="M193.5,282.4c0-6.3,2.5-11.1,7.5-14.6l2.4-1.7c2.3-1.5,3.9-2.7,4.7-3.6.9-1,1.3-2.1,1.3-3.5,0-3.6-3-5.3-8.9-5.3s-5.6.4-8.6,1.1-5.7,1.8-8.4,3.1v-14.2c5.6-2.6,12-3.9,19-3.9s13.5,1.6,17.9,4.7c4.4,3.2,6.6,7.5,6.6,13.1s-.7,5.7-2.1,7.6c-1.4,1.9-3.8,4.1-7.2,6.5-2.3,1.7-3.9,2.9-5,3.8-1,.9-1.8,1.9-2.4,3-.5,1.1-.8,2.5-.8,4v1.8h-16.2v-1.9h.2ZM195.4,304.5c-1.6-1.6-2.4-3.6-2.4-6s.8-4.5,2.4-6.1c1.6-1.6,3.7-2.4,6.1-2.4s4.4.8,6.1,2.4c1.7,1.6,2.5,3.6,2.5,6s-.9,4.4-2.5,6c-1.7,1.6-3.7,2.4-6.1,2.4s-4.5-.8-6.1-2.4h0Z"/>
          <path class="st5" d="M333.4,206.9h-12.7c.3,2.9.4,5.9.4,8.9,0,66.4-71.1,120.3-158.8,120.3s-45.8-3.9-65.9-10.8l2.4,13.7c.8,4.5,5.1,8.1,9.7,8.1h202.6c4.5,0,8.8-3.7,9.5-8.1l19.6-123.9c.7-4.5-2.4-8.1-6.9-8.1h.1Z"/>
        </g>
        <g class="st7">
          <path class="st4" d="M90,193.8c.6,4,1.2,8.1,1.8,12.1,1.4,9.6,2.9,19.2,4.3,28.8,1.7,11.7,3.5,23.4,5.2,35.1,1.5,10,3,20.1,4.5,30.1.5,3.3,1,6.7,1.5,10,.2,1.6.4,3.2.7,4.7v.2c.2,1.4,1.9,2.1,3.2,1.8,1.5-.4,2-1.8,1.8-3.2-.6-4-1.2-8.1-1.8-12.1-1.4-9.6-2.9-19.2-4.3-28.8-1.8-11.7-3.5-23.4-5.2-35.1-1.5-10.1-3-20.1-4.5-30.1-.5-3.3-1-6.7-1.5-10-.2-1.6-.4-3.2-.7-4.7v-.2c-.2-1.4-1.9-2.1-3.2-1.8-1.5.4-2,1.8-1.8,3.2h0Z"/>
        </g>
      </g>
      <g>
        <path class="st1" d="M372.4,104.8c-15.8,0-28.6,12.8-28.6,28.6s2.6,13.5,6.8,18.5l-1.2,14.7,13.7-6.2c2.9,1,6.1,1.6,9.3,1.6,15.8,0,28.6-12.8,28.6-28.6s-12.8-28.6-28.6-28.6h0Z"/>
        <path class="st4" d="M370.4,148.1c-.5-.5-.8-1.2-.8-1.9s.3-1.4.8-1.9,1.2-.8,1.9-.8,1.4.3,2,.8c.5.5.8,1.2.8,1.9s-.3,1.4-.8,1.9-1.2.8-2,.8-1.4-.3-1.9-.8ZM368.8,115.9h7.2l-1.3,23.1h-4.5l-1.3-23.1h-.1Z"/>
        <path class="st5" d="M356.7,148.6c-3.1,0-6.1-.3-9.1-.8.9,1.5,1.8,2.9,2.9,4.1l-1.2,14.7,13.7-6.2c2.9,1,6.1,1.6,9.3,1.6,15.8,0,28.6-12.8,28.6-28.6s-.8-7.5-2.1-10.8c-5.7,15.1-22.4,26-42.2,26h.1Z"/>
      </g>
      <g>
        <path class="st1" d="M79.1,97v-27.1c0-3.3-2.7-5.9-5.9-5.9H23.7c-3.3,0-5.9,2.7-5.9,5.9v34.2c0,3.3,2.7,5.9,5.9,5.9h69.7s-14.3-13-14.3-13Z"/>
        <g>
          <g>
            <path class="st4" d="M40.2,83.2c0,2.6-1.5,4.7-3.4,4.7s-3.4-2.1-3.4-4.7,1.5-4.7,3.4-4.7,3.4,2.1,3.4,4.7Z"/>
            <path class="st4" d="M62.6,83.2c0,2.6-1.5,4.7-3.4,4.7s-3.4-2.1-3.4-4.7,1.5-4.7,3.4-4.7,3.4,2.1,3.4,4.7Z"/>
          </g>
          <path class="st4" d="M40.3,96.4c1.2-1.3,2.8-2.3,4.4-2.8,4.1-1.5,8,0,11.1,2.8.8.7,2-.5,1.2-1.2-3.4-3.1-7.9-4.9-12.4-3.4-2,.7-4,1.8-5.5,3.4-.8.8.5,2.1,1.2,1.2h0Z"/>
        </g>
        <path class="st5" d="M79.1,97v-27.1c0-3.3-2.7-5.9-5.9-5.9h-5.1c.9,3.2,1.3,6.6,1.3,10,0,14.4-8.2,27.3-21.1,36.1h45l-14.3-13h0Z"/>
      </g>
      <g>
        <g>
          <g>
            <path class="st1" d="M250,249.1c-15.9,15.9-15.9,41.6,0,57.4s41.6,15.9,57.4,0,15.9-41.6,0-57.4-41.6-15.9-57.4,0ZM302.8,301.8c-13.3,13.3-34.8,13.3-48.1,0-13.3-13.3-13.3-34.8,0-48.1,13.3-13.3,34.8-13.3,48.1,0,13.3,13.3,13.3,34.8,0,48.1Z"/>
            <circle class="st6" cx="278.8" cy="277.8" r="34"/>
          </g>
          <g>
            <rect class="st1" x="323.3" y="293.3" width="7.2" height="65.1" transform="translate(-134.7 326.6) rotate(-45)"/>
            <rect class="st1" x="308.7" y="299.5" width="7.2" height="24" transform="translate(-128.8 312.1) rotate(-45)"/>
          </g>
        </g>
        <path class="st4" d="M259,263.8c1.3-3.7,4.1-6.7,7.5-8.8,3.4-2.1,7.5-3.2,11.6-3.2s8.1,1.1,11.6,3.2c3.4,2.1,6.2,5.1,7.5,8.8-3.7-1.3-6.9-2.2-10-2.9-3.1-.6-6.1-.9-9.1-.9s-6,.3-9.1.9-6.3,1.6-10,2.9h0Z"/>
      </g>
    </g>
  </g>
</svg>